<svg xmlns="http://www.w3.org/2000/svg" version="1.1"
     style="width:0;height:0;position:absolute;overflow:hidden;">
    <defs>
        <!-- Email icon -->
        <symbol viewBox="0 0 24 24" id="email" fill-rule="evenodd" clip-rule="evenodd">
            <path d="M24 0l-6 22-8.129-7.239 7.802-8.234-10.458 7.227-7.215-1.754 24-12zm-15 16.668v7.332l3.258-4.431-3.258-2.901z"/>
        </symbol>

        <!-- Academy icon -->
        <symbol viewBox="0 0 24 24" id="academy" fill-rule="evenodd" clip-rule="evenodd">
            <path d="M24 21h-3l1-3h1l1 3zm-12.976-4.543l8.976-4.575v6.118c-1.007 2.041-5.607 3-8.5 3-3.175 0-7.389-.994-8.5-3v-6.614l8.024 5.071zm11.976.543h-1v-7.26l-10.923 5.568-11.077-7 12-5.308 11 6.231v7.769z"/>
        </symbol>

        <!-- GitHub icon -->
        <symbol viewBox="0 0 24 24" id="github" fill-rule="evenodd" clip-rule="evenodd">
            <path d="M12 0c-6.626 0-12 5.373-12 12 0 5.302 3.438 9.8 8.207 11.387.599.111.793-.261.793-.577v-2.234c-3.338.726-4.033-1.416-4.033-1.416-.546-1.387-1.333-1.756-1.333-1.756-1.089-.745.083-.729.083-.729 1.205.084 1.839 1.237 1.839 1.237 1.07 1.834 2.807 1.304 3.492.997.107-.775.418-1.305.762-1.604-2.665-.305-5.467-1.334-5.467-5.931 0-1.311.469-2.381 1.236-3.221-.124-.303-.535-1.524.117-3.176 0 0 1.008-.322 3.301 1.23.957-.266 1.983-.399 3.003-.404 1.02.005 2.047.138 3.006.404 2.291-1.552 3.297-1.23 3.297-1.23.653 1.653.242 2.874.118 3.176.77.84 1.235 1.911 1.235 3.221 0 4.609-2.807 5.624-5.479 5.921.43.372.823 1.102.823 2.222v3.293c0 .319.192.694.801.576 4.765-1.589 8.199-6.086 8.199-11.386 0-6.627-5.373-12-12-12z"/>
        </symbol>

        <!-- LinkedIn icon -->
        <symbol viewBox="0 0 24 24" id="linkedin" fill-rule="evenodd" clip-rule="evenodd">
            <path d="M19 0h-14c-2.761 0-5 2.239-5 5v14c0 2.761 2.239 5 5 5h14c2.762 0 5-2.239 5-5v-14c0-2.761-2.238-5-5-5zm-11 19h-3v-11h3v11zm-1.5-12.268c-.966 0-1.75-.79-1.75-1.764s.784-1.764 1.75-1.764 1.75.79 1.75 1.764-.783 1.764-1.75 1.764zm13.5 12.268h-3v-5.604c0-3.368-4-3.113-4 0v5.604h-3v-11h3v1.765c1.396-2.586 7-2.777 7 2.476v6.759z"/>
        </symbol>

        <!-- Search icon -->
        <symbol viewBox="0 0 24 24" id="search" fill-rule="evenodd" clip-rule="evenodd">
            <path d="M23.809 21.646l-6.205-6.205c1.167-1.605 1.857-3.579 1.857-5.711 0-5.365-4.365-9.73-9.731-9.73-5.365 0-9.73 4.365-9.73 9.73 0 5.366 4.365 9.73 9.73 9.73 2.034 0 3.923-.627 5.487-1.698l6.238 6.238 2.354-2.354zm-20.955-11.916c0-3.792 3.085-6.877 6.877-6.877s6.877 3.085 6.877 6.877-3.085 6.877-6.877 6.877c-3.793 0-6.877-3.085-6.877-6.877z"/>
        </symbol>

        <!-- Error icon -->
        <symbol viewBox="0 0 24 24" id="error" fill-rule="evenodd" clip-rule="evenodd">
            <path d="M12 0c-6.627 0-12 5.373-12 12s5.373 12 12 12 12-5.373 12-12-5.373-12-12-12zm5.5 16.084l-1.403 1.416-4.09-4.096-4.102 4.096-1.405-1.405 4.093-4.092-4.093-4.098 1.405-1.405 4.088 4.089 4.091-4.089 1.416 1.403-4.092 4.087 4.092 4.094z"/>
        </symbol>

        <!-- Check icon -->
        <symbol viewBox="0 0 24 24" id="check" fill-rule="evenodd" clip-rule="evenodd">
            <path d="M9 22l-10-10.598 2.798-2.859 7.149 7.473 13.144-14.016 2.909 2.806z"/>
        </symbol>

        <!-- Arrow icon -->
        <symbol viewBox="0 0 24 24" id="arrow" fill-rule="evenodd" clip-rule="evenodd">
            <path d="M0 7.33l2.829-2.83 9.175 9.339 9.167-9.339 2.829 2.83-11.996 12.17z"/>
        </symbol>
    </defs>
</svg>