<svg width="380" height="196" viewBox="0 0 380 196" fill="none" xmlns="http://www.w3.org/2000/svg">
<path d="M379.495 195.956H0.504603C0.371029 195.956 0.24306 195.903 0.148746 195.808C0.0544308 195.713 0.00146484 195.585 0.00146484 195.452C0.00146484 195.318 0.0544308 195.19 0.148746 195.095C0.24306 195.001 0.371029 194.947 0.504603 194.947H379.495C379.629 194.947 379.757 195.001 379.851 195.095C379.946 195.19 379.999 195.318 379.999 195.452C379.999 195.585 379.946 195.713 379.851 195.808C379.757 195.903 379.629 195.956 379.495 195.956Z" fill="#3F3D56"/>
<path d="M118.81 24.3572C120.324 24.3572 121.551 23.1296 121.551 21.6153C121.551 20.101 120.324 18.8734 118.81 18.8734C117.297 18.8734 116.07 20.101 116.07 21.6153C116.07 23.1296 117.297 24.3572 118.81 24.3572Z" fill="#F2F2F2"/>
<path d="M107.888 24.3572C109.401 24.3572 110.628 23.1296 110.628 21.6153C110.628 20.101 109.401 18.8734 107.888 18.8734C106.374 18.8734 105.147 20.101 105.147 21.6153C105.147 23.1296 106.374 24.3572 107.888 24.3572Z" fill="#F2F2F2"/>
<path d="M96.9655 24.3572C98.479 24.3572 99.706 23.1296 99.706 21.6153C99.706 20.101 98.479 18.8734 96.9655 18.8734C95.4519 18.8734 94.2249 20.101 94.2249 21.6153C94.2249 23.1296 95.4519 24.3572 96.9655 24.3572Z" fill="#F2F2F2"/>
<path d="M86.0431 24.3572C87.5567 24.3572 88.7837 23.1296 88.7837 21.6153C88.7837 20.101 87.5567 18.8734 86.0431 18.8734C84.5295 18.8734 83.3025 20.101 83.3025 21.6153C83.3025 23.1296 84.5295 24.3572 86.0431 24.3572Z" fill="#F2F2F2"/>
<path d="M118.81 35.805C120.324 35.805 121.551 34.5774 121.551 33.0631C121.551 31.5488 120.324 30.3212 118.81 30.3212C117.297 30.3212 116.07 31.5488 116.07 33.0631C116.07 34.5774 117.297 35.805 118.81 35.805Z" fill="#F2F2F2"/>
<path d="M107.888 35.805C109.401 35.805 110.628 34.5774 110.628 33.0631C110.628 31.5488 109.401 30.3212 107.888 30.3212C106.374 30.3212 105.147 31.5488 105.147 33.0631C105.147 34.5774 106.374 35.805 107.888 35.805Z" fill="#F2F2F2"/>
<path d="M96.9655 35.805C98.479 35.805 99.706 34.5774 99.706 33.0631C99.706 31.5488 98.479 30.3212 96.9655 30.3212C95.4519 30.3212 94.2249 31.5488 94.2249 33.0631C94.2249 34.5774 95.4519 35.805 96.9655 35.805Z" fill="#F2F2F2"/>
<path d="M86.0431 35.805C87.5567 35.805 88.7837 34.5774 88.7837 33.0631C88.7837 31.5488 87.5567 30.3212 86.0431 30.3212C84.5295 30.3212 83.3025 31.5488 83.3025 33.0631C83.3025 34.5774 84.5295 35.805 86.0431 35.805Z" fill="#F2F2F2"/>
<path d="M118.81 47.2529C120.324 47.2529 121.551 46.0253 121.551 44.511C121.551 42.9966 120.324 41.769 118.81 41.769C117.297 41.769 116.07 42.9966 116.07 44.511C116.07 46.0253 117.297 47.2529 118.81 47.2529Z" fill="#F2F2F2"/>
<path d="M107.888 47.2529C109.401 47.2529 110.628 46.0253 110.628 44.511C110.628 42.9966 109.401 41.769 107.888 41.769C106.374 41.769 105.147 42.9966 105.147 44.511C105.147 46.0253 106.374 47.2529 107.888 47.2529Z" fill="#F2F2F2"/>
<path d="M96.9655 47.2529C98.479 47.2529 99.706 46.0253 99.706 44.511C99.706 42.9966 98.479 41.769 96.9655 41.769C95.4519 41.769 94.2249 42.9966 94.2249 44.511C94.2249 46.0253 95.4519 47.2529 96.9655 47.2529Z" fill="#F2F2F2"/>
<path d="M86.0431 47.2529C87.5567 47.2529 88.7837 46.0253 88.7837 44.511C88.7837 42.9966 87.5567 41.769 86.0431 41.769C84.5295 41.769 83.3025 42.9966 83.3025 44.511C83.3025 46.0253 84.5295 47.2529 86.0431 47.2529Z" fill="#F2F2F2"/>
<path d="M118.81 58.7006C120.324 58.7006 121.551 57.473 121.551 55.9587C121.551 54.4444 120.324 53.2168 118.81 53.2168C117.297 53.2168 116.07 54.4444 116.07 55.9587C116.07 57.473 117.297 58.7006 118.81 58.7006Z" fill="#F2F2F2"/>
<path d="M107.888 58.7006C109.401 58.7006 110.628 57.473 110.628 55.9587C110.628 54.4444 109.401 53.2168 107.888 53.2168C106.374 53.2168 105.147 54.4444 105.147 55.9587C105.147 57.473 106.374 58.7006 107.888 58.7006Z" fill="#F2F2F2"/>
<path d="M96.9655 58.7006C98.479 58.7006 99.706 57.473 99.706 55.9587C99.706 54.4444 98.479 53.2168 96.9655 53.2168C95.4519 53.2168 94.2249 54.4444 94.2249 55.9587C94.2249 57.473 95.4519 58.7006 96.9655 58.7006Z" fill="#F2F2F2"/>
<path d="M86.0431 58.7006C87.5567 58.7006 88.7837 57.473 88.7837 55.9587C88.7837 54.4444 87.5567 53.2168 86.0431 53.2168C84.5295 53.2168 83.3025 54.4444 83.3025 55.9587C83.3025 57.473 84.5295 58.7006 86.0431 58.7006Z" fill="#F2F2F2"/>
<path d="M118.81 70.1484C120.324 70.1484 121.551 68.9208 121.551 67.4065C121.551 65.8921 120.324 64.6646 118.81 64.6646C117.297 64.6646 116.07 65.8921 116.07 67.4065C116.07 68.9208 117.297 70.1484 118.81 70.1484Z" fill="#F2F2F2"/>
<path d="M107.888 70.1484C109.401 70.1484 110.628 68.9208 110.628 67.4065C110.628 65.8921 109.401 64.6646 107.888 64.6646C106.374 64.6646 105.147 65.8921 105.147 67.4065C105.147 68.9208 106.374 70.1484 107.888 70.1484Z" fill="#F2F2F2"/>
<path d="M96.9655 70.1484C98.479 70.1484 99.706 68.9208 99.706 67.4065C99.706 65.8921 98.479 64.6646 96.9655 64.6646C95.4519 64.6646 94.2249 65.8921 94.2249 67.4065C94.2249 68.9208 95.4519 70.1484 96.9655 70.1484Z" fill="#F2F2F2"/>
<path d="M86.0431 70.1484C87.5567 70.1484 88.7837 68.9208 88.7837 67.4065C88.7837 65.8921 87.5567 64.6646 86.0431 64.6646C84.5295 64.6646 83.3025 65.8921 83.3025 67.4065C83.3025 68.9208 84.5295 70.1484 86.0431 70.1484Z" fill="#F2F2F2"/>
<path d="M118.81 81.5961C120.324 81.5961 121.551 80.3685 121.551 78.8542C121.551 77.3399 120.324 76.1123 118.81 76.1123C117.297 76.1123 116.07 77.3399 116.07 78.8542C116.07 80.3685 117.297 81.5961 118.81 81.5961Z" fill="#F2F2F2"/>
<path d="M107.888 81.5961C109.401 81.5961 110.628 80.3685 110.628 78.8542C110.628 77.3399 109.401 76.1123 107.888 76.1123C106.374 76.1123 105.147 77.3399 105.147 78.8542C105.147 80.3685 106.374 81.5961 107.888 81.5961Z" fill="#F2F2F2"/>
<path d="M96.9655 81.5961C98.479 81.5961 99.706 80.3685 99.706 78.8542C99.706 77.3399 98.479 76.1123 96.9655 76.1123C95.4519 76.1123 94.2249 77.3399 94.2249 78.8542C94.2249 80.3685 95.4519 81.5961 96.9655 81.5961Z" fill="#F2F2F2"/>
<path d="M86.0431 81.5961C87.5567 81.5961 88.7837 80.3685 88.7837 78.8542C88.7837 77.3399 87.5567 76.1123 86.0431 76.1123C84.5295 76.1123 83.3025 77.3399 83.3025 78.8542C83.3025 80.3685 84.5295 81.5961 86.0431 81.5961Z" fill="#F2F2F2"/>
<path d="M94.7285 153.655V154.503C94.7297 155.908 95.2882 157.256 96.2814 158.249C97.2746 159.243 98.6213 159.802 100.026 159.803H138.167C139.572 159.802 140.919 159.244 141.912 158.25C142.905 157.256 143.464 155.908 143.464 154.503V153.655C143.467 152.415 143.031 151.213 142.235 150.263C141.97 149.947 141.67 149.663 141.341 149.415C141.341 149.415 120.372 148.94 120.372 148.355H100.026C98.6215 148.357 97.2752 148.916 96.2822 149.909C95.2892 150.903 94.7305 152.25 94.7285 153.655Z" fill="#CCCCCC"/>
<path d="M122.158 159.592H116.648V195.208H122.158V159.592Z" fill="#CCCCCC"/>
<path d="M137.838 195.014C137.838 195.61 129.489 195.244 119.191 195.244C108.893 195.244 100.544 195.61 100.544 195.014C100.544 194.419 108.893 189.696 119.191 189.696C129.489 189.696 137.838 194.419 137.838 195.014Z" fill="#CCCCCC"/>
<path d="M130.263 152.936C130.661 152.402 130.937 151.787 131.071 151.135C131.206 150.483 131.196 149.809 131.042 149.161C130.888 148.514 130.595 147.907 130.181 147.385C129.768 146.864 129.245 146.439 128.65 146.141L116.973 106.334L108.082 110.691L122.355 148.45C121.921 149.483 121.881 150.64 122.243 151.701C122.605 152.762 123.343 153.654 124.318 154.207C125.292 154.76 126.436 154.936 127.532 154.702C128.628 154.467 129.6 153.839 130.263 152.936L130.263 152.936Z" fill="#A0616A"/>
<path d="M119.619 112.982L109.667 115.677C109.384 115.754 109.087 115.768 108.798 115.72C108.509 115.672 108.233 115.562 107.99 115.397C107.747 115.233 107.542 115.018 107.39 114.768C107.237 114.517 107.141 114.236 107.106 113.945L105.903 103.732C105.52 102.28 105.727 100.736 106.479 99.4365C107.232 98.1374 108.469 97.19 109.919 96.8019C111.369 96.4138 112.913 96.6167 114.214 97.3661C115.514 98.1155 116.464 99.3503 116.856 100.8L120.956 110.194C121.073 110.463 121.131 110.754 121.126 111.047C121.121 111.341 121.052 111.63 120.925 111.894C120.799 112.159 120.616 112.393 120.391 112.58C120.165 112.768 119.902 112.905 119.619 112.982H119.619Z" fill="#D62828"/>
<path d="M132.864 190.84L138.06 190.839L140.532 177.358H132.863L132.864 190.84Z" fill="#A0616A"/>
<path d="M131.539 189.143L141.771 189.142H141.771C142.627 189.142 143.475 189.311 144.266 189.639C145.058 189.966 145.776 190.447 146.382 191.053C146.987 191.659 147.468 192.378 147.795 193.169C148.123 193.961 148.292 194.809 148.292 195.666V195.878L131.539 195.878L131.539 189.143Z" fill="#2F2E41"/>
<path d="M138.895 183.61C138.834 183.61 138.774 183.607 138.713 183.601L131.522 183.078C131.232 183.051 130.951 182.957 130.702 182.805C130.453 182.652 130.242 182.444 130.086 182.197C129.93 181.95 129.833 181.67 129.802 181.38C129.771 181.089 129.808 180.796 129.908 180.521L139.531 158.891C139.6 158.699 139.628 158.494 139.613 158.289C139.599 158.085 139.543 157.886 139.448 157.705C139.353 157.521 139.22 157.36 139.059 157.231C138.897 157.103 138.711 157.01 138.511 156.959C133.986 155.775 122.376 152.624 112.326 148.938C108.021 147.358 105.309 145.075 104.266 142.153C102.892 138.3 104.925 134.786 105.012 134.639L105.081 134.523L114.537 135.383L124.789 136.256L147.256 148.309C149.138 149.328 150.568 151.018 151.261 153.044C151.953 155.07 151.858 157.283 150.993 159.241L140.635 182.479C140.485 182.816 140.241 183.102 139.932 183.303C139.623 183.503 139.263 183.61 138.895 183.61Z" fill="#2F2E41"/>
<path d="M116.181 92.5903C121.93 92.5903 126.59 87.928 126.59 82.1766C126.59 76.4253 121.93 71.7629 116.181 71.7629C110.433 71.7629 105.773 76.4253 105.773 82.1766C105.773 87.928 110.433 92.5903 116.181 92.5903Z" fill="#A0616A"/>
<path d="M129.898 190.416L135.093 190.415L137.565 176.934H129.897L129.898 190.416Z" fill="#A0616A"/>
<path d="M128.572 188.719L138.804 188.718H138.805C139.661 188.718 140.509 188.887 141.3 189.215C142.091 189.543 142.81 190.023 143.415 190.629C144.021 191.235 144.501 191.954 144.829 192.745C145.157 193.537 145.325 194.385 145.325 195.242V195.454L128.573 195.455L128.572 188.719Z" fill="#2F2E41"/>
<path d="M135.928 184.882C135.868 184.882 135.807 184.879 135.746 184.873L128.556 184.35C128.265 184.323 127.984 184.229 127.735 184.077C127.486 183.924 127.276 183.716 127.12 183.469C126.964 183.222 126.867 182.942 126.836 182.652C126.805 182.361 126.841 182.068 126.941 181.793L136.564 160.163C136.633 159.971 136.661 159.766 136.647 159.561C136.632 159.357 136.576 159.158 136.481 158.977C136.386 158.793 136.254 158.632 136.092 158.503C135.931 158.375 135.744 158.282 135.544 158.231C131.019 157.047 119.41 153.896 109.36 150.21C105.054 148.63 102.342 146.347 101.3 143.425C99.9253 139.572 101.959 136.058 102.046 135.911L102.114 135.795L111.571 136.655L121.823 137.528L144.289 149.581C146.172 150.6 147.602 152.29 148.294 154.316C148.987 156.342 148.891 158.555 148.026 160.513L137.668 183.751C137.519 184.088 137.275 184.374 136.966 184.575C136.657 184.775 136.297 184.882 135.928 184.882Z" fill="#2F2E41"/>
<path d="M119.392 98.4954L108.373 94.6794C108.373 94.6794 101.456 99.9963 104.779 113.186C106.514 119.993 106.008 127.177 103.338 133.674C103.017 134.477 102.646 135.261 102.228 136.019C102.228 136.019 114.518 150.859 125.96 139.835L121.511 118.423C121.511 118.423 128.503 104.219 119.392 98.4954Z" fill="#2F2E41"/>
<path d="M117.474 92.9444C115.992 90.7259 114.823 87.6498 116.454 85.539C118.064 83.4554 121.24 83.7624 123.706 82.8404C127.14 81.5563 129.132 77.5196 128.511 73.9045C127.889 70.2894 124.989 67.2926 121.533 66.0664C118.078 64.8402 114.181 65.2389 110.798 66.651C106.632 68.3892 103.059 71.7517 101.56 76.0112C100.062 80.2706 100.863 85.3848 103.971 88.6587C107.304 92.1687 112.534 93.1041 117.373 93.0473" fill="#2F2E41"/>
<path d="M107.792 74.0205C105.925 75.5409 103.077 74.8656 101.073 73.5313C99.0693 72.197 97.4433 70.297 95.2753 69.2508C91.453 67.4064 86.8318 68.6325 83.1118 70.6755C79.3918 72.7184 76.0943 75.5408 72.1649 77.144C68.2355 78.7472 63.2213 78.8264 60.2459 75.7992C59.5137 77.9217 59.4538 80.2184 60.0745 82.3762C60.6952 84.5339 61.9661 86.4475 63.7139 87.8558C65.4618 89.2642 67.6014 90.0988 69.8408 90.2456C72.0802 90.3925 74.3103 89.8445 76.227 88.6765C80.5324 86.0527 82.9106 80.5512 87.7396 79.103C90.4118 78.3017 93.2811 78.9471 95.9819 79.6462C98.6826 80.3453 101.499 81.1007 104.224 80.5055C106.95 79.9104 109.499 77.4599 109.152 74.6906L107.792 74.0205Z" fill="#2F2E41"/>
<path d="M141.675 172.144C140.573 164.982 140.573 157.693 141.675 150.531C141.745 150.104 141.964 149.717 142.293 149.437C142.621 149.157 143.039 149.003 143.471 149.002H160.368C160.642 149.001 160.912 149.063 161.159 149.182C161.405 149.302 161.621 149.476 161.79 149.691C161.963 149.91 162.083 150.165 162.143 150.437C162.202 150.709 162.198 150.992 162.132 151.262C160.552 157.886 160.551 164.789 162.132 171.413C162.198 171.683 162.202 171.965 162.143 172.237C162.083 172.51 161.963 172.765 161.79 172.983C161.621 173.199 161.405 173.373 161.159 173.492C160.912 173.612 160.642 173.674 160.368 173.673H143.471C143.039 173.672 142.621 173.518 142.293 173.238C141.964 172.958 141.745 172.57 141.675 172.144Z" fill="#D62828"/>
<path d="M155.168 159.465H146.301C145.964 159.464 145.641 159.33 145.402 159.092C145.164 158.853 145.03 158.53 145.03 158.193V157.696C145.03 157.359 145.164 157.035 145.402 156.797C145.641 156.558 145.964 156.424 146.301 156.424H155.168C155.505 156.424 155.828 156.558 156.067 156.797C156.305 157.035 156.439 157.359 156.44 157.696V158.193C156.439 158.53 156.305 158.853 156.067 159.092C155.828 159.33 155.505 159.464 155.168 159.465Z" fill="white"/>
<path d="M155.168 164.699H146.301C145.964 164.698 145.641 164.564 145.402 164.326C145.164 164.087 145.03 163.764 145.03 163.427V162.93C145.03 162.592 145.164 162.269 145.402 162.031C145.641 161.792 145.964 161.658 146.301 161.658H155.168C155.505 161.658 155.828 161.792 156.067 162.031C156.305 162.269 156.439 162.592 156.44 162.93V163.427C156.439 163.764 156.305 164.087 156.067 164.326C155.828 164.564 155.505 164.698 155.168 164.699Z" fill="white"/>
<path d="M146.119 151.028C146.37 150.412 146.484 149.748 146.451 149.083C146.419 148.417 146.241 147.768 145.93 147.179C145.619 146.59 145.183 146.076 144.653 145.674C144.122 145.272 143.51 144.991 142.859 144.852L121.613 109.226L114.091 115.667L137.341 148.661C137.179 149.77 137.429 150.9 138.044 151.837C138.66 152.774 139.597 153.453 140.679 153.745C141.761 154.037 142.912 153.921 143.915 153.421C144.917 152.92 145.701 152.069 146.119 151.028L146.119 151.028Z" fill="#A0616A"/>
<path d="M125.834 115.002L116.871 120.099C116.616 120.244 116.333 120.332 116.041 120.358C115.748 120.384 115.454 120.346 115.178 120.248C114.901 120.149 114.649 119.992 114.439 119.788C114.229 119.583 114.065 119.336 113.959 119.062L110.244 109.474C109.51 108.164 109.325 106.616 109.729 105.171C110.134 103.725 111.095 102.498 112.401 101.76C113.708 101.022 115.255 100.832 116.701 101.233C118.147 101.633 119.376 102.591 120.117 103.897L126.433 111.968C126.614 112.199 126.743 112.466 126.811 112.752C126.879 113.037 126.885 113.334 126.828 113.622C126.771 113.91 126.653 114.182 126.481 114.42C126.31 114.658 126.089 114.857 125.834 115.002Z" fill="#2F2E41"/>
<path d="M221.203 127.516H49.1455C48.4149 127.516 47.7143 127.806 47.1977 128.323C46.6811 128.84 46.3909 129.541 46.3909 130.272C46.3909 131.003 46.6811 131.704 47.1977 132.221C47.7143 132.737 48.4149 133.028 49.1455 133.028H54.019V193.023C54.019 193.754 54.3093 194.455 54.8259 194.972C55.3424 195.488 56.0431 195.779 56.7737 195.779C57.5042 195.779 58.2049 195.488 58.7215 194.972C59.2381 194.455 59.5283 193.754 59.5283 193.023V138.323L90.4102 194.324C90.7762 194.955 91.3778 195.415 92.0827 195.604C92.7876 195.792 93.5384 195.693 94.1703 195.328C94.8021 194.963 95.2635 194.362 95.453 193.657C95.6426 192.952 95.5448 192.201 95.1813 191.568L62.8989 133.028H210.397V133.063L178.134 191.568C177.769 192.201 177.67 192.953 177.859 193.659C178.048 194.365 178.51 194.967 179.142 195.332C179.775 195.698 180.527 195.797 181.233 195.608C181.938 195.418 182.54 194.957 182.905 194.324L210.397 144.471V193.023C210.397 193.754 210.687 194.455 211.204 194.972C211.72 195.488 212.421 195.779 213.151 195.779C213.882 195.779 214.583 195.488 215.099 194.972C215.616 194.455 215.906 193.754 215.906 193.023V134.481L216.707 133.028H221.203C221.934 133.028 222.635 132.737 223.151 132.221C223.668 131.704 223.958 131.003 223.958 130.272C223.958 129.541 223.668 128.84 223.151 128.323C222.635 127.806 221.934 127.516 221.203 127.516Z" fill="#3F3D56"/>
<path d="M150.007 125.82H116.528C115.709 125.82 115.044 126.484 115.044 127.304C115.044 128.123 115.709 128.788 116.528 128.788H150.007C150.826 128.788 151.49 128.123 151.49 127.304C151.49 126.484 150.826 125.82 150.007 125.82Z" fill="#CCCCCC"/>
<path d="M172.468 128.788H134.751C134.02 128.787 133.32 128.496 132.804 127.98C132.287 127.463 131.997 126.763 131.996 126.032V105.256C131.997 104.526 132.287 103.825 132.804 103.308C133.32 102.792 134.02 102.501 134.751 102.5H172.468C173.198 102.501 173.898 102.792 174.415 103.308C174.931 103.825 175.221 104.526 175.222 105.256V126.032C175.221 126.763 174.931 127.463 174.415 127.98C173.898 128.496 173.198 128.787 172.468 128.788Z" fill="#CCCCCC"/>
<path d="M153.609 118.188C155.013 118.188 156.152 117.049 156.152 115.644C156.152 114.239 155.013 113.1 153.609 113.1C152.205 113.1 151.066 114.239 151.066 115.644C151.066 117.049 152.205 118.188 153.609 118.188Z" fill="white"/>
<path d="M201.252 77.5998V3.18903C201.253 2.34354 201.589 1.53296 202.186 0.935106C202.784 0.337254 203.594 0.000961717 204.439 0H263.231C264.076 0.000961717 264.886 0.337254 265.483 0.935106C266.081 1.53296 266.417 2.34354 266.418 3.18903V77.5998C266.417 78.4453 266.081 79.2559 265.483 79.8537C264.886 80.4516 264.076 80.7879 263.231 80.7888H204.439C203.594 80.7879 202.784 80.4516 202.186 79.8537C201.589 79.2559 201.253 78.4453 201.252 77.5998ZM204.439 0.708676C203.782 0.709414 203.152 0.970973 202.687 1.43597C202.222 1.90097 201.961 2.53143 201.96 3.18903V77.5998C201.961 78.2574 202.222 78.8879 202.687 79.3529C203.152 79.8179 203.782 80.0794 204.439 80.0802H263.231C263.888 80.0794 264.518 79.8179 264.983 79.3529C265.448 78.8879 265.709 78.2574 265.71 77.5998V3.18903C265.709 2.53143 265.448 1.90097 264.983 1.43597C264.518 0.970973 263.888 0.709414 263.231 0.708676H204.439Z" fill="#E6E6E6"/>
<path d="M237.132 34.1728V18.894C237.132 18.4712 237.3 18.0659 237.599 17.767C237.898 17.468 238.303 17.2999 238.725 17.2994H251.667C252.089 17.2999 252.494 17.468 252.793 17.767C253.092 18.0659 253.26 18.4712 253.26 18.894V34.1728C253.26 34.5956 253.092 35.0009 252.793 35.2998C252.494 35.5987 252.089 35.7669 251.667 35.7673H238.725C238.303 35.7669 237.898 35.5987 237.599 35.2998C237.3 35.0009 237.132 34.5956 237.132 34.1728Z" fill="#D62828"/>
<path d="M211.986 41.2596V25.9808C211.986 25.558 212.154 25.1527 212.453 24.8538C212.752 24.5548 213.157 24.3867 213.58 24.3862H226.521C226.943 24.3867 227.349 24.5548 227.647 24.8538C227.946 25.1527 228.114 25.558 228.115 25.9808V41.2596C228.114 41.6824 227.946 42.0877 227.647 42.3866C227.349 42.6855 226.943 42.8537 226.521 42.8542H213.58C213.157 42.8537 212.752 42.6855 212.453 42.3866C212.154 42.0877 211.986 41.6824 211.986 41.2596Z" fill="#CCCCCC"/>
<path d="M232.173 62.8741V47.5952C232.174 47.1725 232.342 46.7672 232.641 46.4683C232.94 46.1694 233.345 46.0012 233.767 46.0007H246.708C247.131 46.0012 247.536 46.1694 247.835 46.4683C248.134 46.7672 248.302 47.1725 248.302 47.5952V62.8741C248.302 63.2969 248.134 63.7022 247.835 64.0011C247.536 64.3 247.131 64.4682 246.708 64.4686H233.767C233.345 64.4682 232.94 64.3 232.641 64.0011C232.342 63.7022 232.174 63.2969 232.173 62.8741Z" fill="#F2994A"/>
<path d="M330.869 7.75361C332.382 7.75361 333.609 6.52601 333.609 5.01169C333.609 3.49737 332.382 2.26978 330.869 2.26978C329.355 2.26978 328.128 3.49737 328.128 5.01169C328.128 6.52601 329.355 7.75361 330.869 7.75361Z" fill="#F2F2F2"/>
<path d="M330.869 18.6813C332.382 18.6813 333.609 17.4537 333.609 15.9394C333.609 14.4251 332.382 13.1975 330.869 13.1975C329.355 13.1975 328.128 14.4251 328.128 15.9394C328.128 17.4537 329.355 18.6813 330.869 18.6813Z" fill="#F2F2F2"/>
<path d="M330.869 29.6091C332.382 29.6091 333.609 28.3815 333.609 26.8672C333.609 25.3528 332.382 24.1252 330.869 24.1252C329.355 24.1252 328.128 25.3528 328.128 26.8672C328.128 28.3815 329.355 29.6091 330.869 29.6091Z" fill="#F2F2F2"/>
<path d="M330.869 40.5367C332.382 40.5367 333.609 39.3091 333.609 37.7948C333.609 36.2805 332.382 35.0529 330.869 35.0529C329.355 35.0529 328.128 36.2805 328.128 37.7948C328.128 39.3091 329.355 40.5367 330.869 40.5367Z" fill="#F2F2F2"/>
<path d="M319.426 7.75361C320.94 7.75361 322.167 6.52601 322.167 5.01169C322.167 3.49737 320.94 2.26978 319.426 2.26978C317.913 2.26978 316.686 3.49737 316.686 5.01169C316.686 6.52601 317.913 7.75361 319.426 7.75361Z" fill="#F2F2F2"/>
<path d="M319.426 18.6813C320.94 18.6813 322.167 17.4537 322.167 15.9394C322.167 14.4251 320.94 13.1975 319.426 13.1975C317.913 13.1975 316.686 14.4251 316.686 15.9394C316.686 17.4537 317.913 18.6813 319.426 18.6813Z" fill="#F2F2F2"/>
<path d="M319.426 29.6091C320.94 29.6091 322.167 28.3815 322.167 26.8672C322.167 25.3528 320.94 24.1252 319.426 24.1252C317.913 24.1252 316.686 25.3528 316.686 26.8672C316.686 28.3815 317.913 29.6091 319.426 29.6091Z" fill="#F2F2F2"/>
<path d="M319.426 40.5367C320.94 40.5367 322.167 39.3091 322.167 37.7948C322.167 36.2805 320.94 35.0529 319.426 35.0529C317.913 35.0529 316.686 36.2805 316.686 37.7948C316.686 39.3091 317.913 40.5367 319.426 40.5367Z" fill="#F2F2F2"/>
<path d="M307.984 7.75361C309.498 7.75361 310.725 6.52601 310.725 5.01169C310.725 3.49737 309.498 2.26978 307.984 2.26978C306.47 2.26978 305.243 3.49737 305.243 5.01169C305.243 6.52601 306.47 7.75361 307.984 7.75361Z" fill="#F2F2F2"/>
<path d="M307.984 18.6813C309.498 18.6813 310.725 17.4537 310.725 15.9394C310.725 14.4251 309.498 13.1975 307.984 13.1975C306.47 13.1975 305.243 14.4251 305.243 15.9394C305.243 17.4537 306.47 18.6813 307.984 18.6813Z" fill="#F2F2F2"/>
<path d="M307.984 29.6091C309.498 29.6091 310.725 28.3815 310.725 26.8672C310.725 25.3528 309.498 24.1252 307.984 24.1252C306.47 24.1252 305.243 25.3528 305.243 26.8672C305.243 28.3815 306.47 29.6091 307.984 29.6091Z" fill="#F2F2F2"/>
<path d="M307.984 40.5367C309.498 40.5367 310.725 39.3091 310.725 37.7948C310.725 36.2805 309.498 35.0529 307.984 35.0529C306.47 35.0529 305.243 36.2805 305.243 37.7948C305.243 39.3091 306.47 40.5367 307.984 40.5367Z" fill="#F2F2F2"/>
<path d="M296.542 7.75361C298.055 7.75361 299.282 6.52601 299.282 5.01169C299.282 3.49737 298.055 2.26978 296.542 2.26978C295.028 2.26978 293.801 3.49737 293.801 5.01169C293.801 6.52601 295.028 7.75361 296.542 7.75361Z" fill="#F2F2F2"/>
<path d="M296.542 18.6813C298.055 18.6813 299.282 17.4537 299.282 15.9394C299.282 14.4251 298.055 13.1975 296.542 13.1975C295.028 13.1975 293.801 14.4251 293.801 15.9394C293.801 17.4537 295.028 18.6813 296.542 18.6813Z" fill="#F2F2F2"/>
<path d="M296.542 29.6091C298.055 29.6091 299.282 28.3815 299.282 26.8672C299.282 25.3528 298.055 24.1252 296.542 24.1252C295.028 24.1252 293.801 25.3528 293.801 26.8672C293.801 28.3815 295.028 29.6091 296.542 29.6091Z" fill="#F2F2F2"/>
<path d="M296.542 40.5367C298.055 40.5367 299.282 39.3091 299.282 37.7948C299.282 36.2805 298.055 35.0529 296.542 35.0529C295.028 35.0529 293.801 36.2805 293.801 37.7948C293.801 39.3091 295.028 40.5367 296.542 40.5367Z" fill="#F2F2F2"/>
<path d="M285.099 7.75361C286.613 7.75361 287.84 6.52601 287.84 5.01169C287.84 3.49737 286.613 2.26978 285.099 2.26978C283.586 2.26978 282.359 3.49737 282.359 5.01169C282.359 6.52601 283.586 7.75361 285.099 7.75361Z" fill="#F2F2F2"/>
<path d="M285.099 18.6813C286.613 18.6813 287.84 17.4537 287.84 15.9394C287.84 14.4251 286.613 13.1975 285.099 13.1975C283.586 13.1975 282.359 14.4251 282.359 15.9394C282.359 17.4537 283.586 18.6813 285.099 18.6813Z" fill="#F2F2F2"/>
<path d="M285.099 29.6091C286.613 29.6091 287.84 28.3815 287.84 26.8672C287.84 25.3528 286.613 24.1252 285.099 24.1252C283.586 24.1252 282.359 25.3528 282.359 26.8672C282.359 28.3815 283.586 29.6091 285.099 29.6091Z" fill="#F2F2F2"/>
<path d="M285.099 40.5367C286.613 40.5367 287.84 39.3091 287.84 37.7948C287.84 36.2805 286.613 35.0529 285.099 35.0529C283.586 35.0529 282.359 36.2805 282.359 37.7948C282.359 39.3091 283.586 40.5367 285.099 40.5367Z" fill="#F2F2F2"/>
<path d="M273.657 7.75361C275.171 7.75361 276.398 6.52601 276.398 5.01169C276.398 3.49737 275.171 2.26978 273.657 2.26978C272.144 2.26978 270.917 3.49737 270.917 5.01169C270.917 6.52601 272.144 7.75361 273.657 7.75361Z" fill="#F2F2F2"/>
<path d="M273.657 18.6813C275.171 18.6813 276.398 17.4537 276.398 15.9394C276.398 14.4251 275.171 13.1975 273.657 13.1975C272.144 13.1975 270.917 14.4251 270.917 15.9394C270.917 17.4537 272.144 18.6813 273.657 18.6813Z" fill="#F2F2F2"/>
<path d="M273.657 29.6091C275.171 29.6091 276.398 28.3815 276.398 26.8672C276.398 25.3528 275.171 24.1252 273.657 24.1252C272.144 24.1252 270.917 25.3528 270.917 26.8672C270.917 28.3815 272.144 29.6091 273.657 29.6091Z" fill="#F2F2F2"/>
<path d="M273.657 40.5367C275.171 40.5367 276.398 39.3091 276.398 37.7948C276.398 36.2805 275.171 35.0529 273.657 35.0529C272.144 35.0529 270.917 36.2805 270.917 37.7948C270.917 39.3091 272.144 40.5367 273.657 40.5367Z" fill="#F2F2F2"/>
<path d="M284.698 102.289C284.474 101.672 284.382 101.014 284.429 100.358C284.476 99.7028 284.661 99.0646 284.972 98.4856C285.283 97.9067 285.712 97.3999 286.232 96.9986C286.752 96.5972 287.352 96.3104 287.99 96.1568C288.193 96.1092 288.398 96.0757 288.605 96.0566L298.904 77.9951L296.304 73.5252L302.777 68.5286L307.73 75.4108C308.321 76.2381 308.629 77.234 308.609 78.2504C308.589 79.2669 308.242 80.2499 307.62 81.0535L293.48 99.1639C293.532 99.3078 293.576 99.4542 293.612 99.6026C293.765 100.242 293.782 100.906 293.661 101.552C293.539 102.198 293.283 102.811 292.909 103.351C292.534 103.891 292.05 104.346 291.488 104.686C290.925 105.025 290.297 105.242 289.645 105.322C289.456 105.346 289.265 105.358 289.075 105.358C288.119 105.355 287.188 105.059 286.405 104.511C285.623 103.962 285.027 103.187 284.698 102.289Z" fill="#FFB8B8"/>
<path d="M264.605 191.173L259.409 191.173L256.937 171.123L264.605 171.123L264.605 191.173Z" fill="#FFB8B8"/>
<path d="M255.698 189.688H265.718V196H249.389C249.389 195.171 249.552 194.35 249.869 193.584C250.186 192.818 250.651 192.123 251.237 191.536C251.823 190.95 252.518 190.485 253.284 190.168C254.049 189.851 254.869 189.688 255.698 189.688Z" fill="#2F2E41"/>
<path d="M307.407 191.173L302.212 191.173L299.74 171.123L307.408 171.123L307.407 191.173Z" fill="#FFB8B8"/>
<path d="M298.501 189.688H308.52V196H292.192C292.192 195.171 292.355 194.35 292.672 193.584C292.989 192.818 293.454 192.123 294.039 191.536C294.625 190.95 295.321 190.485 296.086 190.168C296.852 189.851 297.672 189.688 298.501 189.688Z" fill="#2F2E41"/>
<path d="M304.218 69.5048L292.554 73.9395L289.706 66.025C289.328 64.974 289.333 63.8232 289.721 62.7758C290.109 61.7284 290.854 60.852 291.826 60.3013C292.808 59.7442 293.957 59.557 295.066 59.7735C296.174 59.99 297.169 60.596 297.87 61.4819L304.218 69.5048Z" fill="#D62828"/>
<path d="M265.053 174.935L255.27 172.702C254.75 172.583 254.294 172.271 253.995 171.829C253.695 171.387 253.573 170.848 253.655 170.32C257.58 145.427 261.357 130.85 271.089 112.338C271.225 111.993 272.745 104.986 273.737 100.345C273.726 99.8335 273.9 99.3355 274.229 98.9436C274.558 98.5517 275.017 98.2927 275.523 98.2148L293.764 95.4061C294.04 95.3106 294.33 95.2668 294.621 95.2771L294.803 95.3117L294.801 95.4912C294.799 95.6767 294.614 95.705 294.545 95.7158L294.302 95.7531C294.579 95.8819 294.833 96.0547 295.055 96.2646C303.047 105.882 307.203 137.409 312.482 172.238C312.511 172.52 312.477 172.806 312.381 173.074C312.286 173.341 312.131 173.584 311.929 173.784C311.738 173.993 311.507 174.161 311.249 174.277C310.992 174.394 310.713 174.457 310.43 174.463L298.776 174.747C298.264 174.758 297.765 174.583 297.372 174.254C296.98 173.925 296.72 173.465 296.642 172.959L288.791 127.571C288.737 127.216 288.572 126.888 288.318 126.634C288.065 126.38 287.737 126.214 287.383 126.159C287.029 126.105 286.666 126.165 286.348 126.33C286.031 126.496 285.774 126.759 285.615 127.081C279.282 139.985 273.376 151.144 267.559 173.409C267.444 173.86 267.182 174.26 266.814 174.546C266.446 174.832 265.994 174.988 265.528 174.988C265.368 174.988 265.209 174.97 265.053 174.935Z" fill="#2F2E41"/>
<path d="M274.549 100.863C274.304 100.69 274.098 100.465 273.946 100.206C273.793 99.9466 273.698 99.6577 273.666 99.3586C272.172 85.4051 273.213 74.4854 276.847 65.9756C277.487 64.5078 278.451 63.2043 279.667 62.163C280.883 61.1217 282.32 60.3697 283.868 59.9635L293.297 59.4873L293.346 59.5109C295.473 60.5536 297.209 62.2545 298.294 64.3615C299.38 66.4685 299.757 68.8694 299.372 71.2082C296.339 79.2061 293.8 87.5332 295.736 94.2506C295.817 94.5314 295.841 94.8258 295.806 95.116C295.771 95.4062 295.677 95.6863 295.531 95.9395C295.389 96.1843 295.199 96.3974 294.972 96.5658C294.745 96.7342 294.486 96.8542 294.211 96.9186L276.251 101.193C275.96 101.262 275.658 101.268 275.365 101.212C275.071 101.155 274.793 101.036 274.549 100.863Z" fill="#D62828"/>
<path d="M270.49 80.8392L252.405 66.565C252.261 66.6157 252.115 66.659 251.966 66.6946C251.328 66.844 250.665 66.8574 250.021 66.7338C249.378 66.6103 248.767 66.3526 248.229 65.9775C247.688 65.6021 247.233 65.1154 246.895 64.55C246.557 63.9845 246.343 63.3533 246.269 62.6986C246.147 61.6519 246.383 60.595 246.938 59.6993C247.492 58.8036 248.333 58.1216 249.324 57.7641C249.942 57.5422 250.6 57.4535 251.255 57.5038C251.91 57.5541 252.547 57.7423 253.124 58.056C253.701 58.3698 254.206 58.8019 254.605 59.3243C255.003 59.8466 255.287 60.4473 255.437 61.0871C255.484 61.2898 255.516 61.4955 255.534 61.7028L273.538 72.0937L278.018 69.5131L282.981 76.0138L276.025 80.9742C275.21 81.5501 274.232 81.848 273.235 81.8237C272.238 81.7993 271.276 81.4541 270.49 80.8392H270.49Z" fill="#FFB8B8"/>
<path d="M285.187 78.0382L274.869 71.018L279.718 64.1464C280.362 63.2339 281.308 62.5786 282.388 62.2962C283.468 62.0138 284.613 62.1225 285.621 62.6031C286.64 63.0892 287.453 63.9241 287.911 64.9569C288.369 65.9897 288.443 67.1523 288.119 68.2348L285.187 78.0382Z" fill="#D62828"/>
<path d="M290.15 55.9639C295.899 55.9639 300.559 51.3015 300.559 45.5502C300.559 39.7988 295.899 35.1365 290.15 35.1365C284.402 35.1365 279.741 39.7988 279.741 45.5502C279.741 51.3015 284.402 55.9639 290.15 55.9639Z" fill="#FFB8B8"/>
<path d="M286.334 43.9991C283.659 45.831 280.146 47.714 277.414 45.7632C275.62 44.4823 275.054 42.1103 275.782 40.0288C277.09 36.2855 280.685 34.6376 284.122 33.3744C288.591 31.7322 293.457 30.4258 298.07 31.6019C302.683 32.7779 306.76 37.2464 305.927 41.9358C305.257 45.7069 301.702 48.8447 302.206 52.6415C302.714 56.4625 307.01 58.4739 310.802 59.1568C314.593 59.8397 318.837 60.0591 321.562 62.7841C325.038 66.2604 324.17 72.4737 320.899 76.144C317.628 79.8142 312.691 81.4778 307.908 82.6088C301.571 84.1073 294.716 84.8948 288.697 82.4079C282.678 79.9211 277.994 73.2266 279.738 66.9493C280.474 64.2977 282.209 62.0568 283.886 59.8751C285.563 57.6935 287.261 55.4122 287.9 52.7356C288.433 50.5051 288.039 47.9153 286.56 46.2422C286.291 45.9493 286.122 45.5787 286.077 45.1837C286.032 44.7886 286.113 44.3893 286.308 44.0432L286.334 43.9991Z" fill="#2F2E41"/>
</svg>
