<svg width="824" height="736" viewBox="0 0 824 736" fill="none" xmlns="http://www.w3.org/2000/svg">
<g clip-path="url(#clip0_1001_48)">
<path d="M770.313 400.743L181.129 652.806C177.105 654.522 172.564 654.572 168.504 652.945C164.443 651.318 161.194 648.146 159.469 644.126L4.04147 280.823C2.78416 277.875 2.74753 274.549 3.93963 271.574C5.13172 268.599 7.45518 266.219 10.4003 264.955L607.505 9.503C610.504 8.22402 613.888 8.18687 616.914 9.39967C619.941 10.6125 622.362 12.9762 623.648 15.9723L778.993 379.083C780.709 383.107 780.759 387.647 779.132 391.708C777.504 395.768 774.333 399.018 770.313 400.743Z" fill="#F2F2F2"/>
<path d="M743.069 389.74L193.965 624.656C185.915 628.099 176.743 624.769 173.519 617.231L38.1709 300.862C35.7794 295.272 38.6862 288.648 44.6509 286.097L601.137 48.0224C607.201 45.4283 614.112 47.9409 616.542 53.6229L751.819 369.825C755.043 377.362 751.118 386.296 743.069 389.74Z" fill="white"/>
<path d="M624.164 17.7609L4.63749 282.805L1.33334 275.081C-0.38721 271.044 -0.435849 266.488 1.19809 262.414C2.83202 258.341 6.0151 255.082 10.049 253.352L599.125 1.33544C603.161 -0.387632 607.717 -0.439107 611.791 1.19231C615.866 2.82372 619.127 6.00479 620.859 10.0376L624.164 17.7609Z" fill="#F2994A"/>
<path d="M27.4099 263.804C29.7756 263.804 31.6933 261.886 31.6933 259.52C31.6933 257.155 29.7756 255.237 27.4099 255.237C25.0442 255.237 23.1265 257.155 23.1265 259.52C23.1265 261.886 25.0442 263.804 27.4099 263.804Z" fill="white"/>
<path d="M42.3581 257.409C44.7238 257.409 46.6415 255.491 46.6415 253.125C46.6415 250.76 44.7238 248.842 42.3581 248.842C39.9925 248.842 38.0747 250.76 38.0747 253.125C38.0747 255.491 39.9925 257.409 42.3581 257.409Z" fill="white"/>
<path d="M57.3064 251.014C59.672 251.014 61.5898 249.096 61.5898 246.73C61.5898 244.365 59.672 242.447 57.3064 242.447C54.9407 242.447 53.0229 244.365 53.0229 246.73C53.0229 249.096 54.9407 251.014 57.3064 251.014Z" fill="white"/>
<path d="M303.888 363.777L230.659 395.106C226.635 396.822 222.095 396.872 218.034 395.244C213.974 393.617 210.724 390.446 208.999 386.426L168.576 291.938C166.859 287.914 166.81 283.374 168.437 279.313C170.064 275.253 173.236 272.003 177.255 270.278L250.484 238.95C254.508 237.234 259.049 237.184 263.109 238.811C267.17 240.438 270.419 243.61 272.144 247.63L312.568 342.117C314.284 346.141 314.334 350.681 312.706 354.742C311.079 358.803 307.908 362.052 303.888 363.777Z" fill="#F2F2F2"/>
<path d="M427.797 310.767L354.568 342.096C350.544 343.812 346.003 343.861 341.943 342.234C337.882 340.607 334.633 337.436 332.908 333.416L292.484 238.928C290.768 234.904 290.718 230.364 292.346 226.303C293.973 222.243 297.144 218.993 301.164 217.268L374.393 185.939C378.417 184.223 382.957 184.174 387.018 185.801C391.078 187.428 394.328 190.599 396.053 194.619L436.477 289.107C438.193 293.131 438.242 297.671 436.615 301.732C434.988 305.792 431.816 309.042 427.797 310.767V310.767Z" fill="#F2F2F2"/>
<path d="M551.705 257.757L478.476 289.086C474.452 290.802 469.912 290.851 465.851 289.224C461.79 287.597 458.541 284.426 456.816 280.406L416.392 185.918C414.676 181.894 414.627 177.354 416.254 173.293C417.881 169.233 421.053 165.983 425.072 164.258L498.302 132.929C502.325 131.213 506.866 131.163 510.926 132.791C514.987 134.418 518.236 137.589 519.962 141.609L560.385 236.097C562.101 240.121 562.151 244.661 560.524 248.722C558.896 252.782 555.725 256.032 551.705 257.757Z" fill="#F2F2F2"/>
<path d="M366.428 509.961L293.199 541.29C289.175 543.006 284.635 543.056 280.574 541.428C276.514 539.801 273.264 536.63 271.539 532.61L231.116 438.122C229.4 434.098 229.35 429.558 230.977 425.497C232.604 421.437 235.776 418.187 239.796 416.462L313.024 385.134C317.048 383.418 321.589 383.368 325.649 384.995C329.71 386.622 332.959 389.794 334.684 393.814L375.108 488.301C376.824 492.325 376.874 496.865 375.247 500.926C373.619 504.987 370.448 508.236 366.428 509.961Z" fill="#F2F2F2"/>
<path d="M490.337 456.951L417.108 488.28C413.084 489.996 408.544 490.045 404.483 488.418C400.422 486.791 397.173 483.62 395.448 479.6L355.024 385.112C353.308 381.088 353.258 376.548 354.886 372.487C356.513 368.427 359.684 365.177 363.704 363.452L436.933 332.123C440.957 330.407 445.497 330.357 449.558 331.985C453.619 333.612 456.868 336.783 458.593 340.803L499.017 435.291C500.733 439.315 500.783 443.855 499.155 447.916C497.528 451.976 494.357 455.226 490.337 456.951V456.951Z" fill="#F2F2F2"/>
<path d="M614.245 403.941L541.016 435.269C536.992 436.985 532.452 437.035 528.391 435.408C524.33 433.781 521.081 430.609 519.356 426.589L478.932 332.102C477.216 328.078 477.167 323.538 478.794 319.477C480.421 315.416 483.592 312.167 487.612 310.442L560.842 279.113C564.865 277.397 569.406 277.347 573.466 278.974C577.527 280.602 580.776 283.773 582.502 287.793L622.925 382.281C624.641 386.305 624.691 390.845 623.064 394.906C621.436 398.966 618.265 402.216 614.245 403.941Z" fill="#F2F2F2"/>
<path d="M806.739 735.54H165.901C161.526 735.536 157.332 733.796 154.239 730.702C151.146 727.609 149.406 723.415 149.401 719.04V323.887C149.404 320.682 150.679 317.609 152.945 315.343C155.211 313.077 158.284 311.802 161.489 311.798H810.942C814.203 311.802 817.328 313.099 819.634 315.404C821.939 317.71 823.236 320.835 823.239 324.096V719.04C823.234 723.415 821.494 727.609 818.401 730.702C815.308 733.796 811.114 735.536 806.739 735.54V735.54Z" fill="#E6E6E6"/>
<path d="M786.02 714.708H188.775C180.02 714.708 172.897 708.038 172.897 699.84V355.735C172.897 349.655 178.175 344.708 184.663 344.708H789.937C796.532 344.708 801.898 349.736 801.898 355.917V699.84C801.897 708.038 794.775 714.708 786.02 714.708Z" fill="white"/>
<path d="M823.01 325.943H149.169V317.542C149.176 313.153 150.923 308.946 154.027 305.843C157.132 302.741 161.34 300.996 165.729 300.993H806.45C810.839 300.996 815.047 302.741 818.152 305.843C821.256 308.946 823.003 313.153 823.01 317.542V325.943Z" fill="#D62828"/>
<path d="M179.265 317.776C181.631 317.776 183.548 315.858 183.548 313.493C183.548 311.127 181.631 309.209 179.265 309.209C176.899 309.209 174.981 311.127 174.981 313.493C174.981 315.858 176.899 317.776 179.265 317.776Z" fill="white"/>
<path d="M195.524 317.776C197.889 317.776 199.807 315.858 199.807 313.493C199.807 311.127 197.889 309.209 195.524 309.209C193.158 309.209 191.24 311.127 191.24 313.493C191.24 315.858 193.158 317.776 195.524 317.776Z" fill="white"/>
<path d="M211.782 317.776C214.148 317.776 216.066 315.858 216.066 313.493C216.066 311.127 214.148 309.209 211.782 309.209C209.417 309.209 207.499 311.127 207.499 313.493C207.499 315.858 209.417 317.776 211.782 317.776Z" fill="white"/>
<path d="M753.689 441.306H470.716C459.387 441.306 450.203 450.49 450.203 461.819V461.819C450.203 473.149 459.387 482.333 470.716 482.333H753.689C765.018 482.333 774.203 473.149 774.203 461.819C774.203 450.49 765.018 441.306 753.689 441.306Z" fill="#E6E6E6"/>
<path d="M753.689 509.194H470.716C459.387 509.194 450.203 518.379 450.203 529.708V529.708C450.203 541.038 459.387 550.222 470.716 550.222H753.689C765.018 550.222 774.203 541.038 774.203 529.708C774.203 518.379 765.018 509.194 753.689 509.194Z" fill="#E6E6E6"/>
<path d="M753.689 577.083H470.716C459.387 577.083 450.203 586.268 450.203 597.597V597.597C450.203 608.926 459.387 618.111 470.716 618.111H753.689C765.018 618.111 774.203 608.926 774.203 597.597C774.203 586.268 765.018 577.083 753.689 577.083Z" fill="#E6E6E6"/>
<path d="M423.592 529.708C423.592 551.464 417.141 572.731 405.054 590.821C392.967 608.91 375.787 623.009 355.688 631.335C335.588 639.661 313.47 641.839 292.132 637.595C270.794 633.35 251.194 622.874 235.811 607.49C220.427 592.106 209.95 572.506 205.706 551.168C201.462 529.83 203.64 507.713 211.966 487.613C220.291 467.513 234.39 450.333 252.48 438.246C270.569 426.16 291.836 419.708 313.592 419.708C342.763 419.717 370.737 431.31 391.364 451.937C411.991 472.564 423.583 500.537 423.592 529.708Z" fill="white"/>
<path d="M364.432 548.53C363.231 618.881 258.585 618.87 257.394 548.528C258.595 478.179 363.241 478.19 364.432 548.53Z" fill="#F2994A"/>
<path d="M308.789 570.366L308.733 568.366C322.517 570.207 325.486 553.123 311.584 559.51L314.758 536.319L316.739 536.591L314.04 556.317C328.677 554.139 323.263 572.365 308.789 570.366Z" fill="#2F2E41"/>
<path d="M337.31 538.292H326.539V540.292H337.31V538.292Z" fill="#2F2E41"/>
<path d="M303.31 538.292H292.539V540.292H303.31V538.292Z" fill="#2F2E41"/>
<path d="M328.262 623.358C330.362 609.188 313.772 611.988 304.992 611.848C303.577 611.853 302.18 612.173 300.903 612.785C299.627 613.398 298.504 614.287 297.615 615.389C296.726 616.491 296.093 617.777 295.764 619.154C295.435 620.531 295.418 621.964 295.712 623.348C288.917 625.449 282.624 628.92 277.222 633.548C299.985 641.485 324.719 641.759 347.652 634.328C342.062 629.308 335.445 625.564 328.262 623.358V623.358Z" fill="#2F2E41"/>
<path d="M285.751 523.217C295.67 517.485 307.698 521.882 317.943 524.287C337.381 530.262 364.64 522.78 367.004 499.624C369.464 478.089 340.005 466.087 330.589 487.521L333.33 487.162C302.794 441.78 249.676 443.501 250.025 505.894C249.912 507.821 252.912 507.815 253.024 505.893C251.9 469.126 276.233 443.993 310.63 467.621C318.501 473.364 324.871 480.971 330.74 488.676C334.322 492.691 335.101 475.402 352.246 479.93C371.115 487.24 364.958 514.259 348.093 520.19C327.254 530.836 304.685 510.195 284.237 520.625C283.908 520.833 283.672 521.161 283.58 521.539C283.488 521.917 283.546 522.316 283.742 522.653C283.939 522.989 284.258 523.235 284.633 523.341C285.008 523.446 285.409 523.402 285.751 523.217V523.217Z" fill="#2F2E41"/>
<path d="M313.592 642.708C285.186 642.684 257.832 631.953 236.987 612.656C216.141 593.358 203.336 566.912 201.125 538.591C198.914 510.271 207.459 482.158 225.057 459.859C242.655 437.56 268.012 422.714 296.071 418.281C324.129 413.849 352.828 420.156 376.442 435.945C400.056 451.734 416.852 475.844 423.478 503.467C430.104 531.09 426.074 560.196 412.192 584.979C398.31 609.763 375.596 628.402 348.58 637.181C337.281 640.856 325.473 642.721 313.592 642.708V642.708ZM313.592 422.708C292.425 422.705 271.733 428.979 254.132 440.737C236.531 452.495 222.812 469.208 214.711 488.763C206.609 508.319 204.489 529.837 208.617 550.597C212.746 571.358 222.939 590.427 237.906 605.395C252.873 620.362 271.943 630.554 292.703 634.683C313.463 638.812 334.982 636.691 354.537 628.59C374.092 620.488 390.805 606.769 402.563 589.168C414.321 571.567 420.595 550.875 420.592 529.708C420.56 501.34 409.277 474.143 389.217 454.083C369.158 434.024 341.96 422.74 313.592 422.708Z" fill="#3F3D56"/>
</g>
<defs>
<clipPath id="clip0_1001_48">
<rect width="823.24" height="735.54" fill="white"/>
</clipPath>
</defs>
</svg>
