<svg width="806" height="713" viewBox="0 0 806 713" fill="none" xmlns="http://www.w3.org/2000/svg">
<g clip-path="url(#clip0_1001_78)">
<path d="M770.296 711.765L769.223 711.363C768.987 711.274 745.514 702.281 734.518 681.889C723.522 661.497 728.907 636.944 728.962 636.699L729.216 635.581L730.288 635.983C730.524 636.072 753.996 645.065 764.993 665.457C775.989 685.849 770.604 710.402 770.549 710.647L770.296 711.765ZM736.279 680.94C745.576 698.181 764.124 707.019 768.824 709.037C769.718 704 772.52 683.63 763.232 666.406C753.945 649.183 735.389 640.332 730.687 638.309C729.793 643.349 726.992 663.716 736.279 680.94Z" fill="#3F3D56"/>
<path d="M742.922 674.736C762.682 686.625 770.293 710.239 770.293 710.239C770.293 710.239 745.865 714.578 726.104 702.689C706.344 690.8 698.733 667.186 698.733 667.186C698.733 667.186 723.161 662.847 742.922 674.736Z" fill="#D62828"/>
<path d="M424.792 381.964C425.749 380.483 427.009 379.221 428.489 378.261C429.969 377.3 431.634 376.664 433.377 376.392C435.12 376.12 436.901 376.22 438.602 376.685C440.304 377.149 441.888 377.968 443.251 379.087C443.681 379.443 444.086 379.829 444.462 380.242L493.673 373.078L496.411 336.073C496.621 333.234 497.95 330.595 500.106 328.735C502.261 326.876 505.067 325.949 507.906 326.159C510.745 326.369 513.385 327.698 515.244 329.853C517.103 332.009 518.03 334.815 517.82 337.654C517.815 337.72 517.81 337.786 517.803 337.852L513.006 389.777L512.983 389.892C512.359 391.888 511.108 393.63 509.415 394.858C507.723 396.087 505.68 396.737 503.588 396.713L445.706 395.713C445.481 396.056 445.239 396.387 444.98 396.705C443.86 398.068 442.465 399.179 440.886 399.965C439.307 400.752 437.579 401.195 435.817 401.267C434.054 401.34 432.297 401.039 430.659 400.384C429.021 399.729 427.539 398.736 426.312 397.469C426.063 397.214 425.827 396.95 425.604 396.678C423.936 394.624 422.959 392.095 422.813 389.453C422.667 386.811 423.36 384.19 424.792 381.964V381.964Z" fill="#FFB7B7"/>
<path d="M524.006 697.479L509.97 697.478L503.293 643.341L524.008 643.342L524.006 697.479Z" fill="#FFB7B7"/>
<path d="M527.585 711.084L482.329 711.082V710.51C482.329 705.838 484.185 701.358 487.488 698.055C490.792 694.751 495.272 692.895 499.944 692.895H499.945L527.586 692.896L527.585 711.084Z" fill="#2F2E41"/>
<path d="M622.082 684.754L608.798 689.284L585 640.202L604.607 633.515L622.082 684.754Z" fill="#FFB7B7"/>
<path d="M629.862 696.475L587.029 711.084L586.844 710.542C585.336 706.121 585.646 701.281 587.706 697.088C589.766 692.895 593.407 689.692 597.829 688.184L597.83 688.183L623.991 679.261L629.862 696.475Z" fill="#2F2E41"/>
<path d="M539.461 224.126C539.461 224.126 525.491 219.512 516.511 237.967C507.53 256.421 493.56 276.721 493.56 276.721L501.543 278.567C501.543 278.567 503.539 265.648 508.528 263.803L506.532 280.412C506.532 280.412 566.403 299.789 593.345 278.567L592.347 272.108C592.347 272.108 596.339 273.03 596.339 278.567L599.332 275.798C599.332 275.798 596.339 270.262 587.358 262.88C581.463 258.035 579.438 248.818 578.742 243.055C578.19 238.175 576.097 233.599 572.768 229.989C566.8 223.593 555.926 216.795 539.461 224.126Z" fill="#2F2E41"/>
<path d="M544.611 288.603C558.703 288.603 570.126 277.179 570.126 263.088C570.126 248.996 558.703 237.572 544.611 237.572C530.519 237.572 519.096 248.996 519.096 263.088C519.096 277.179 530.519 288.603 544.611 288.603Z" fill="#FFB7B7"/>
<path d="M510.59 309.613L505.951 308.067C505.951 308.067 496.673 311.933 496.673 318.891C496.673 325.85 495.126 353.685 495.126 353.685L516.003 356.004L510.59 309.613Z" fill="#CBCBCB"/>
<path d="M593.622 461.697C591.698 459.541 590.612 456.766 590.561 453.877C590.511 450.987 591.499 448.176 593.346 445.953L580.323 336.887C580.195 334.315 581.094 331.797 582.82 329.886C584.547 327.976 586.961 326.829 589.533 326.696C592.104 326.563 594.624 327.457 596.538 329.18C598.451 330.903 599.604 333.314 599.741 335.886C599.743 335.922 599.744 335.957 599.746 335.993L611.397 445.175C611.819 445.599 612.208 446.055 612.561 446.539C613.496 447.831 614.166 449.295 614.535 450.846C614.904 452.398 614.964 454.007 614.711 455.581C614.458 457.156 613.897 458.665 613.061 460.023C612.225 461.381 611.129 462.561 609.837 463.495C609.703 463.592 609.567 463.686 609.429 463.777C607.933 464.768 606.236 465.414 604.461 465.671C602.685 465.928 600.875 465.788 599.159 465.262C597.017 464.613 595.099 463.379 593.622 461.697Z" fill="#FFB7B7"/>
<path d="M581.695 353.685L602.571 351.365C602.571 351.365 601.025 323.53 601.025 316.572C601.025 309.613 591.746 305.747 591.746 305.747L587.107 307.293L581.695 353.685Z" fill="#CBCBCB"/>
<path d="M513.683 392.304C513.683 392.304 495.9 424.818 495.9 464.25C495.9 503.683 494.354 684.609 494.354 684.609C494.354 684.609 517.549 695.434 531.466 682.289L543.838 482.034L592.548 678.423C592.548 678.423 615.744 683.063 626.569 675.331L605.693 538.477C605.693 538.477 597.188 410.127 573.992 400.849C550.796 391.571 513.683 392.304 513.683 392.304Z" fill="#2F2E41"/>
<path d="M517.039 263.249C526.072 256.712 533.383 249.183 538.22 240.227C538.22 240.227 554.796 258.645 564.926 259.566C575.056 260.487 565.847 237.464 565.847 237.464L547.429 232.859L529.932 234.701L516.118 243.91L517.039 263.249Z" fill="#2F2E41"/>
<path d="M570.126 301.108C570.126 301.108 570.862 300.713 526.83 302.317L508.401 307.392L505.951 308.067C505.951 308.067 508.271 354.458 514.456 362.963C520.642 371.468 519.095 376.107 517.549 376.88C516.003 377.653 512.137 376.107 514.456 379.973C516.776 383.839 519.868 381.519 516.776 383.839C513.683 386.159 512.137 394.664 512.137 394.664L580.177 403.942C580.177 403.942 582.497 373.788 588.682 358.324C594.868 342.86 596.414 336.675 596.414 336.675L591.775 305.747L570.126 301.108Z" fill="#CBCBCB"/>
<path d="M440.767 169.224H436.854V62.0368C436.854 45.5837 430.318 29.8044 418.684 18.1702C407.05 6.53604 391.271 2.65219e-05 374.818 2.33258e-10L147.728 2.33265e-10C131.275 -4.50866e-05 115.495 6.53591 103.861 18.17C92.227 29.8041 85.691 45.5834 85.6909 62.0366V650.072C85.6909 666.525 92.2269 682.304 103.861 693.938C115.495 705.572 131.274 712.108 147.728 712.108H374.817C382.964 712.108 391.031 710.504 398.558 707.386C406.084 704.269 412.923 699.699 418.684 693.938C424.445 688.178 429.014 681.339 432.132 673.812C435.25 666.286 436.854 658.219 436.854 650.072V650.072V245.521H440.767L440.767 169.224Z" fill="#3F3D56"/>
<path d="M423.651 62.4726V649.643C423.656 655.721 422.465 661.742 420.143 667.36C417.822 672.978 414.417 678.084 410.123 682.386C405.828 686.688 400.728 690.102 395.115 692.433C389.501 694.765 383.482 695.967 377.404 695.973H149.141C136.862 695.981 125.083 691.112 116.394 682.436C107.706 673.759 102.82 661.987 102.811 649.708V62.4726C102.807 56.3927 104 50.3716 106.323 44.7529C108.645 39.1342 112.052 34.028 116.348 29.7259C120.644 25.4237 125.746 22.0099 131.361 19.6793C136.976 17.3486 142.996 16.1469 149.076 16.1426H176.821C175.458 19.4846 174.938 23.1106 175.306 26.7011C175.674 30.2916 176.92 33.7363 178.934 36.7319C180.947 39.7274 183.667 42.1817 186.852 43.8786C190.038 45.5755 193.592 46.4629 197.201 46.4626H327.301C330.91 46.4629 334.464 45.5755 337.65 43.8786C340.836 42.1817 343.555 39.7274 345.568 36.7319C347.582 33.7363 348.828 30.2916 349.196 26.7011C349.565 23.1106 349.044 19.4846 347.681 16.1426H377.321C389.598 16.1316 401.376 20.9978 410.064 29.6708C418.753 38.3438 423.64 50.113 423.651 62.3895V62.4726L423.651 62.4726Z" fill="white"/>
<path d="M423.651 149.343V129.343H393.381V19.0027C388.24 17.104 382.801 16.1355 377.321 16.1426H373.381V129.343H268.381V46.4627H248.381V129.343H160.381V16.1427H149.141C146.201 16.1381 143.268 16.4161 140.381 16.9727V129.343H102.811V149.343H140.381V195.603L102.812 217.293V240.393L140.381 218.703V356.343H102.811V376.343H140.381V575.343H102.811V595.343H140.381V695.143C143.268 695.699 146.201 695.977 149.141 695.973H160.381V595.343H248.381V695.973H268.381V595.343H373.381V695.973H377.321C382.801 695.98 388.24 695.011 393.381 693.113V595.343H423.651V575.343H393.381V488.343H423.381V468.343H393.381V376.343H423.651V356.343H393.381V234.343H423.651V214.343H393.381V149.343L423.651 149.343ZM220.512 149.343L220.511 149.343L160.381 184.063L160.381 184.063V149.343H220.512ZM160.381 207.153L160.381 207.153L248.381 156.343V356.343H160.381V207.153ZM160.381 575.343V376.343H248.381V575.343H160.381ZM373.381 575.343H268.381V488.343H373.381V575.343ZM373.381 468.343H268.381V376.343H373.381V468.343ZM373.381 356.343H268.381V234.343H373.381V356.343ZM373.381 214.343H268.381V149.343H373.381V214.343Z" fill="#E5E5E5"/>
<path d="M440.381 214.713C440.381 278.225 325.381 419.713 325.381 419.713C325.381 419.713 210.381 278.225 210.381 214.713C210.381 184.213 222.497 154.962 244.064 133.395C265.63 111.829 294.881 99.7126 325.381 99.7126C355.881 99.7126 385.131 111.829 406.698 133.395C428.265 154.962 440.381 184.213 440.381 214.713V214.713Z" fill="#D62828"/>
<path d="M393.382 209.713C393.382 223.162 389.394 236.309 381.922 247.491C374.45 258.674 363.83 267.39 351.405 272.536C338.979 277.683 325.307 279.03 312.116 276.406C298.925 273.782 286.809 267.306 277.299 257.796C267.789 248.286 261.313 236.169 258.689 222.979C256.065 209.788 257.412 196.116 262.559 183.69C267.705 171.265 276.421 160.645 287.604 153.173C298.786 145.701 311.933 141.713 325.382 141.713C334.308 141.709 343.147 143.463 351.395 146.875C359.643 150.286 367.138 155.29 373.453 161.598C379.767 167.907 384.777 175.397 388.197 183.642C391.616 191.887 393.378 200.724 393.382 209.65V209.713Z" fill="white"/>
<path d="M325.145 236.556C339.137 236.556 350.479 225.214 350.479 211.222C350.479 197.231 339.137 185.889 325.145 185.889C311.154 185.889 299.812 197.231 299.812 211.222C299.812 225.214 311.154 236.556 325.145 236.556Z" fill="#F2994A"/>
<path d="M361.912 269.083C350.991 276.027 338.317 279.714 325.376 279.713C312.434 279.711 299.761 276.02 288.842 269.073C291.113 261.135 295.907 254.152 302.5 249.182C309.093 244.212 317.125 241.524 325.381 241.525C333.637 241.526 341.669 244.216 348.26 249.188C354.851 254.16 359.643 261.144 361.912 269.083V269.083Z" fill="#F2994A"/>
<path d="M325.381 502.713C342.502 502.713 356.381 488.833 356.381 471.713C356.381 454.592 342.502 440.713 325.381 440.713C308.26 440.713 294.381 454.592 294.381 471.713C294.381 488.833 308.26 502.713 325.381 502.713Z" fill="#D62828"/>
<path d="M805 712.713H1C0.734784 712.713 0.48043 712.607 0.292893 712.42C0.105357 712.232 0 711.978 0 711.713C0 711.447 0.105357 711.193 0.292893 711.006C0.48043 710.818 0.734784 710.713 1 710.713H805C805.265 710.713 805.52 710.818 805.707 711.006C805.895 711.193 806 711.447 806 711.713C806 711.978 805.895 712.232 805.707 712.42C805.52 712.607 805.265 712.713 805 712.713Z" fill="#CBCBCB"/>
</g>
<defs>
<clipPath id="clip0_1001_78">
<rect width="806" height="712.713" fill="white"/>
</clipPath>
</defs>
</svg>
