<svg width="871" height="599" viewBox="0 0 871 599" fill="none" xmlns="http://www.w3.org/2000/svg">
<g clip-path="url(#clip0_1001_6)">
<path d="M362.587 598.683H74.3199C72.9048 598.681 71.5481 598.118 70.5474 597.117C69.5468 596.117 68.9838 594.76 68.9819 593.345V346.837C68.9838 345.422 69.5468 344.065 70.5474 343.064C71.5481 342.064 72.9048 341.501 74.3199 341.499H362.587C364.002 341.501 365.359 342.064 366.359 343.064C367.36 344.065 367.923 345.422 367.925 346.837V593.344C367.923 594.759 367.36 596.116 366.36 597.117C365.359 598.117 364.002 598.68 362.587 598.682V598.683ZM74.3199 343.63C73.4718 343.632 72.6589 343.97 72.0592 344.569C71.4595 345.169 71.1218 345.982 71.1199 346.83V593.344C71.1218 594.192 71.4595 595.005 72.0592 595.605C72.6589 596.204 73.4718 596.542 74.3199 596.544H362.587C363.435 596.542 364.248 596.205 364.848 595.605C365.448 595.005 365.785 594.192 365.787 593.344V346.837C365.785 345.989 365.447 345.176 364.848 344.576C364.248 343.977 363.435 343.639 362.587 343.637L74.3199 343.63Z" fill="#E6E6E6"/>
<path d="M119.11 576.592C131.119 576.592 140.855 566.856 140.855 554.847C140.855 542.837 131.119 533.102 119.11 533.102C107.1 533.102 97.3647 542.837 97.3647 554.847C97.3647 566.856 107.1 576.592 119.11 576.592Z" fill="#E6E6E6"/>
<path d="M169.332 540.35C168.371 540.35 167.449 540.732 166.769 541.411C166.09 542.091 165.708 543.013 165.708 543.974C165.708 544.935 166.09 545.857 166.769 546.537C167.449 547.216 168.371 547.598 169.332 547.598H340.188C341.149 547.598 342.071 547.216 342.751 546.537C343.43 545.857 343.812 544.935 343.812 543.974C343.812 543.013 343.43 542.091 342.751 541.411C342.071 540.732 341.149 540.35 340.188 540.35H169.332Z" fill="#E6E6E6"/>
<path d="M169.332 562.096C168.371 562.096 167.449 562.478 166.769 563.157C166.09 563.837 165.708 564.759 165.708 565.72C165.708 566.681 166.09 567.603 166.769 568.283C167.449 568.962 168.371 569.344 169.332 569.344H242.852C243.813 569.344 244.735 568.962 245.415 568.283C246.094 567.603 246.476 566.681 246.476 565.72C246.476 564.759 246.094 563.837 245.415 563.157C244.735 562.478 243.813 562.096 242.852 562.096H169.332Z" fill="#E6E6E6"/>
<path d="M431.076 512.704H142.808C141.393 512.702 140.036 512.14 139.035 511.139C138.034 510.138 137.471 508.781 137.47 507.366V380.859C137.471 379.444 138.034 378.087 139.035 377.086C140.036 376.085 141.393 375.523 142.808 375.521H431.076C432.491 375.523 433.848 376.085 434.849 377.086C435.849 378.087 436.412 379.444 436.414 380.859V507.366C436.412 508.781 435.849 510.138 434.849 511.139C433.848 512.14 432.491 512.702 431.076 512.704V512.704Z" fill="#F2994A"/>
<path d="M201.514 419.615C200.553 419.615 199.631 419.997 198.951 420.676C198.271 421.356 197.89 422.278 197.89 423.239C197.89 424.2 198.271 425.122 198.951 425.802C199.631 426.481 200.553 426.863 201.514 426.863H372.371C373.332 426.863 374.254 426.481 374.933 425.802C375.613 425.122 375.995 424.2 375.995 423.239C375.995 422.278 375.613 421.356 374.933 420.676C374.254 419.997 373.332 419.615 372.371 419.615H201.514Z" fill="white"/>
<path d="M201.514 440.615C200.553 440.615 199.631 440.997 198.951 441.676C198.271 442.356 197.89 443.278 197.89 444.239C197.89 445.2 198.271 446.122 198.951 446.802C199.631 447.481 200.553 447.863 201.514 447.863H372.371C373.332 447.863 374.254 447.481 374.933 446.802C375.613 446.122 375.995 445.2 375.995 444.239C375.995 443.278 375.613 442.356 374.933 441.676C374.254 440.997 373.332 440.615 372.371 440.615H201.514Z" fill="white"/>
<path d="M201.514 461.361C200.553 461.361 199.631 461.743 198.951 462.422C198.271 463.102 197.89 464.024 197.89 464.985C197.89 465.946 198.271 466.868 198.951 467.548C199.631 468.227 200.553 468.609 201.514 468.609H275.034C275.995 468.609 276.917 468.227 277.596 467.548C278.276 466.868 278.658 465.946 278.658 464.985C278.658 464.024 278.276 463.102 277.596 462.422C276.917 461.743 275.995 461.361 275.034 461.361H201.514Z" fill="white"/>
<path d="M870.4 596.259H0V598.259H870.4V596.259Z" fill="#3F3D56"/>
<path d="M755.586 596.26H467.319C465.904 596.258 464.547 595.695 463.546 594.694C462.546 593.694 461.983 592.337 461.981 590.922V519.414C461.983 517.999 462.546 516.642 463.546 515.641C464.547 514.641 465.904 514.078 467.319 514.076H755.586C757.001 514.078 758.358 514.641 759.358 515.641C760.359 516.642 760.922 517.999 760.924 519.414V590.921C760.922 592.336 760.359 593.693 759.359 594.694C758.358 595.695 757.001 596.258 755.586 596.26V596.26ZM467.319 516.207C466.471 516.209 465.658 516.547 465.058 517.146C464.459 517.746 464.121 518.559 464.119 519.407V590.914C464.121 591.762 464.459 592.575 465.058 593.175C465.658 593.774 466.471 594.112 467.319 594.114H755.586C756.434 594.112 757.247 593.775 757.847 593.175C758.447 592.575 758.784 591.762 758.786 590.914V519.414C758.784 518.566 758.447 517.753 757.847 517.153C757.247 516.553 756.434 516.216 755.586 516.214L467.319 516.207Z" fill="#E6E6E6"/>
<path d="M512.11 574.169C524.119 574.169 533.855 564.433 533.855 552.424C533.855 540.415 524.119 530.679 512.11 530.679C500.1 530.679 490.365 540.415 490.365 552.424C490.365 564.433 500.1 574.169 512.11 574.169Z" fill="#E6E6E6"/>
<path d="M562.331 537.927C561.37 537.927 560.448 538.309 559.768 538.988C559.089 539.668 558.707 540.59 558.707 541.551C558.707 542.512 559.089 543.434 559.768 544.114C560.448 544.793 561.37 545.175 562.331 545.175H733.187C734.148 545.175 735.07 544.793 735.75 544.114C736.429 543.434 736.811 542.512 736.811 541.551C736.811 540.59 736.429 539.668 735.75 538.988C735.07 538.309 734.148 537.927 733.187 537.927H562.331Z" fill="#E6E6E6"/>
<path d="M562.331 559.673C561.37 559.673 560.448 560.055 559.768 560.734C559.089 561.414 558.707 562.336 558.707 563.297C558.707 564.258 559.089 565.18 559.768 565.859C560.448 566.539 561.37 566.921 562.331 566.921H635.851C636.812 566.921 637.734 566.539 638.414 565.859C639.093 565.18 639.475 564.258 639.475 563.297C639.475 562.336 639.093 561.414 638.414 560.734C637.734 560.055 636.812 559.673 635.851 559.673H562.331Z" fill="#E6E6E6"/>
<path d="M704.911 512.396L441.435 395.071C440.143 394.494 439.132 393.427 438.625 392.105C438.117 390.783 438.155 389.314 438.729 388.02L467.833 322.662C468.41 321.369 469.477 320.358 470.799 319.85C472.121 319.343 473.59 319.381 474.884 319.955L738.36 437.28C739.653 437.858 740.664 438.924 741.171 440.246C741.679 441.568 741.641 443.037 741.067 444.331L711.963 509.689C711.386 510.982 710.319 511.992 708.997 512.5C707.675 513.007 706.206 512.97 704.912 512.395L704.911 512.396ZM474.017 321.903C473.241 321.56 472.361 321.537 471.568 321.841C470.776 322.146 470.137 322.751 469.79 323.525L440.686 388.883C440.343 389.659 440.321 390.539 440.625 391.331C440.929 392.124 441.534 392.763 442.309 393.11L705.785 510.435C706.561 510.778 707.441 510.801 708.234 510.497C709.026 510.193 709.665 509.587 710.012 508.812L739.113 443.461C739.456 442.685 739.478 441.805 739.174 441.013C738.87 440.22 738.265 439.581 737.49 439.234L474.017 321.903Z" fill="#E6E6E6"/>
<path d="M491.365 393.11C502.342 397.998 515.203 393.062 520.091 382.086C524.978 371.109 520.042 358.248 509.066 353.36C498.089 348.473 485.229 353.409 480.341 364.385C475.453 375.362 480.389 388.222 491.365 393.11Z" fill="#E6E6E6"/>
<path d="M552.018 380.425C551.139 380.034 550.141 380.008 549.244 380.352C548.346 380.697 547.622 381.384 547.231 382.262C546.839 383.141 546.813 384.139 547.158 385.037C547.502 385.934 548.189 386.658 549.068 387.05L705.23 456.588C706.109 456.979 707.107 457.005 708.005 456.661C708.902 456.316 709.626 455.629 710.018 454.751C710.409 453.872 710.435 452.874 710.09 451.976C709.746 451.079 709.059 450.355 708.18 449.963L552.018 380.425Z" fill="#E6E6E6"/>
<path d="M543.167 400.301C542.289 399.91 541.291 399.884 540.393 400.228C539.495 400.573 538.771 401.26 538.38 402.138C537.989 403.017 537.963 404.015 538.307 404.912C538.652 405.81 539.339 406.534 540.217 406.926L607.415 436.848C608.293 437.239 609.291 437.266 610.189 436.921C611.087 436.576 611.811 435.889 612.202 435.011C612.593 434.132 612.619 433.134 612.275 432.237C611.93 431.339 611.243 430.615 610.365 430.224L543.167 400.301Z" fill="#E6E6E6"/>
<path d="M488.36 313.698L201.246 338.778C199.837 338.899 198.437 338.456 197.353 337.547C196.269 336.637 195.59 335.335 195.465 333.925L189.244 262.703C189.123 261.294 189.566 259.893 190.475 258.81C191.385 257.726 192.687 257.047 194.096 256.922L481.21 231.843C482.62 231.722 484.02 232.164 485.104 233.074C486.188 233.984 486.866 235.286 486.991 236.695L493.213 307.916C493.334 309.326 492.891 310.727 491.982 311.81C491.072 312.894 489.77 313.573 488.36 313.698V313.698ZM194.282 259.045C193.437 259.12 192.657 259.528 192.112 260.177C191.567 260.827 191.301 261.665 191.373 262.51L197.594 333.731C197.67 334.576 198.077 335.356 198.726 335.901C199.376 336.446 200.215 336.712 201.06 336.64L488.174 311.561C489.018 311.486 489.799 311.079 490.344 310.429C490.889 309.779 491.155 308.94 491.082 308.095L484.862 236.881C484.787 236.037 484.38 235.256 483.73 234.711C483.08 234.166 482.241 233.9 481.396 233.973L194.282 259.045Z" fill="#E6E6E6"/>
<path d="M243.936 312.878C255.898 311.833 264.747 301.29 263.702 289.328C262.658 277.367 252.114 268.517 240.153 269.562C228.191 270.607 219.342 281.151 220.386 293.112C221.431 305.073 231.975 313.923 243.936 312.878Z" fill="#E6E6E6"/>
<path d="M290.803 272.412C289.846 272.495 288.961 272.956 288.343 273.692C287.726 274.428 287.426 275.379 287.509 276.337C287.593 277.294 288.053 278.179 288.789 278.797C289.525 279.414 290.477 279.715 291.434 279.631L461.606 264.766C462.564 264.683 463.449 264.222 464.066 263.486C464.684 262.75 464.984 261.799 464.901 260.842C464.817 259.884 464.357 258.999 463.621 258.382C462.885 257.764 461.933 257.464 460.976 257.547L290.803 272.412Z" fill="#E6E6E6"/>
<path d="M292.695 294.071C291.738 294.155 290.853 294.615 290.235 295.351C289.618 296.087 289.318 297.038 289.401 297.996C289.485 298.953 289.945 299.838 290.681 300.456C291.417 301.073 292.369 301.373 293.326 301.29L366.552 294.894C367.509 294.81 368.394 294.35 369.012 293.613C369.63 292.877 369.93 291.926 369.846 290.969C369.763 290.012 369.302 289.127 368.566 288.509C367.83 287.891 366.879 287.591 365.921 287.675L292.695 294.071Z" fill="#E6E6E6"/>
<path d="M433.972 83.212C452.198 83.212 466.972 68.4374 466.972 50.212C466.972 31.9866 452.198 17.212 433.972 17.212C415.747 17.212 400.972 31.9866 400.972 50.212C400.972 68.4374 415.747 83.212 433.972 83.212Z" fill="#2F2E41"/>
<path d="M434.642 86.1269C448.207 86.1269 459.203 75.1306 459.203 61.5659C459.203 48.0013 448.207 37.0049 434.642 37.0049C421.077 37.0049 410.081 48.0013 410.081 61.5659C410.081 75.1306 421.077 86.1269 434.642 86.1269Z" fill="#FEB8B8"/>
<path d="M471.972 97.2119C471.972 97.2119 426.972 89.2119 397.972 99.2119L406.472 166.712L404.472 177.712L464.472 175.712L460.472 164.712L471.972 97.2119Z" fill="#FEB8B8"/>
<path d="M440.701 170.054C430.341 169.931 419.994 169.275 409.701 168.09C407.587 167.857 405.638 166.84 404.238 165.239C402.838 163.639 402.089 161.571 402.14 159.445L402.87 127.878L402.955 127.755C411.649 115.162 407.414 105.964 404.155 101.012C403.468 99.9661 403.102 98.7416 403.103 97.49V97.49C402.603 96.79 402.491 97.8949 402.803 97.1109C402.957 96.7219 403.205 96.3775 403.526 96.1089C403.847 95.8403 404.229 95.6561 404.639 95.573L409.603 94.581C410.199 94.462 410.817 94.564 411.343 94.8678C411.869 95.1716 412.267 95.6566 412.461 96.232C414.129 101.209 420.63 117.223 435.527 117.219C447.972 117.219 452.616 99.608 452.894 95.538C452.939 94.9074 453.221 94.3174 453.684 93.8866C454.146 93.4558 454.755 93.2162 455.387 93.216H461.587C461.98 93.2068 462.369 93.2859 462.727 93.4476C463.084 93.6093 463.401 93.8493 463.653 94.15C463.962 94.5326 464.15 94.9985 464.194 95.4883C464.237 95.9782 464.134 96.4699 463.897 96.901C456.821 109.911 467.162 130.501 467.267 130.701L467.333 130.831L464.415 161.124C464.239 162.901 463.509 164.578 462.33 165.919C461.151 167.261 459.581 168.198 457.841 168.601C453.33 169.66 447.233 170.054 440.701 170.054Z" fill="#CCCCCC"/>
<path d="M383.594 240.342C376.874 240.342 370.722 239.602 365.834 237.853C360.024 235.774 356.376 232.412 354.99 227.853C354.335 225.916 354.139 223.853 354.418 221.827C354.697 219.802 355.442 217.868 356.596 216.18C365.191 203.31 395.017 199.68 399.019 199.251L401.139 181.584C401.39 179.545 402.369 177.665 403.895 176.29C405.421 174.915 407.392 174.136 409.446 174.098L459.678 173.314C461.696 173.265 463.664 173.943 465.224 175.223C466.784 176.504 467.832 178.302 468.178 180.291L471.032 195.991L438.094 211.966L443.074 225.911L442.749 226.128C433.109 232.554 405.386 240.341 383.594 240.342Z" fill="#2F2E41"/>
<path d="M466.472 193.712C466.472 193.712 512.472 187.712 509.472 211.712C506.472 235.712 471.472 252.712 418.472 211.712L424.472 199.712C424.472 199.712 454.472 207.712 466.472 201.712V193.712Z" fill="#2F2E41"/>
<path d="M425.472 202.712C425.472 202.712 425.472 190.712 415.472 191.712C405.472 192.712 387.473 193.712 387.473 193.712C387.473 193.712 381.472 197.712 389.472 199.712C397.472 201.712 421.472 211.712 421.472 211.712L425.472 202.712Z" fill="#FEB8B8"/>
<path d="M442.472 200.712C442.472 200.712 442.472 188.712 452.472 189.712C462.472 190.712 480.472 191.712 480.472 191.712C480.472 191.712 486.472 195.712 478.472 197.712C470.472 199.712 446.472 209.712 446.472 209.712L442.472 200.712Z" fill="#FEB8B8"/>
<path d="M502.394 198.439L487.473 146.712C487.473 146.712 484.473 128.712 481.473 111.712C478.473 94.7119 467.473 96.7119 467.473 96.7119L465.473 97.7119V124.712L467.473 149.712L487.438 204.612C486.85 206.516 486.816 208.547 487.34 210.47C487.864 212.392 488.924 214.126 490.396 215.468C491.869 216.811 493.693 217.706 495.655 218.051C497.618 218.396 499.638 218.175 501.479 217.414C503.321 216.653 504.908 215.385 506.055 213.756C507.203 212.127 507.863 210.205 507.959 208.215C508.055 206.225 507.582 204.248 506.597 202.517C505.612 200.785 504.154 199.369 502.394 198.435V198.439Z" fill="#FEB8B8"/>
<path d="M401.472 98.7119C401.472 98.7119 390.472 96.7119 387.472 113.712C384.472 130.712 381.472 148.712 381.472 148.712L366.551 200.439C364.792 201.373 363.334 202.789 362.348 204.521C361.363 206.252 360.891 208.229 360.987 210.219C361.083 212.209 361.743 214.131 362.89 215.76C364.038 217.389 365.625 218.657 367.466 219.418C369.308 220.179 371.328 220.4 373.29 220.055C375.253 219.71 377.077 218.815 378.549 217.472C380.021 216.13 381.081 214.396 381.605 212.474C382.129 210.551 382.095 208.52 381.507 206.616L401.472 151.716L403.472 126.716V101.948C403.472 101.276 403.285 100.617 402.932 100.046C402.579 99.4743 402.073 99.0124 401.472 98.7119Z" fill="#FEB8B8"/>
<path d="M410.329 46.478C419.921 52.3334 430.735 55.8964 441.929 56.89L438.598 52.899C441.023 53.7952 443.575 54.3014 446.159 54.399C447.453 54.4366 448.737 54.1703 449.91 53.6217C451.082 53.0731 452.109 52.2574 452.909 51.24C453.563 50.1836 453.951 48.9848 454.041 47.7459C454.131 46.5069 453.919 45.2646 453.425 44.125C452.41 41.8518 450.83 39.8761 448.836 38.386C445.301 35.5895 441.129 33.7111 436.692 32.918C432.254 32.125 427.69 32.4421 423.405 33.841C420.464 34.7186 417.83 36.4071 415.805 38.713C414.81 39.8742 414.119 41.2643 413.794 42.7586C413.469 44.2528 413.52 45.8043 413.942 47.274" fill="#2F2E41"/>
<path d="M437.078 20.875C429.332 13.0195 419.957 6.95753 409.615 3.11593C402.976 0.656931 395.75 -0.863039 388.81 0.533961C381.87 1.93096 375.31 6.73396 373.37 13.542C371.787 19.11 373.422 25.1059 375.879 30.3479C378.336 35.5899 381.617 40.448 383.604 45.888C385.632 51.4363 386.243 57.4033 385.38 63.2473C384.517 69.0914 382.208 74.6273 378.662 79.3525C375.117 84.0777 370.447 87.8425 365.078 90.3051C359.708 92.7677 353.808 93.85 347.914 93.4539C354.733 94.3679 361.019 97.573 367.685 99.279C374.351 100.985 382.218 100.869 387.171 96.094C392.412 91.042 392.517 82.827 392.263 75.552L391.133 43.107C390.941 37.592 390.777 31.8989 392.766 26.7509C394.755 21.6029 399.482 17.0949 405.001 17.1419C409.184 17.1779 412.885 19.7109 416.24 22.2099C419.595 24.7089 423.14 27.3749 427.311 27.7459C431.482 28.1169 436.234 25.0349 435.922 20.8629" fill="#2F2E41"/>
<path d="M833.287 551.492C832.888 566.362 830.397 581.102 825.887 595.277C825.787 595.606 825.676 595.93 825.568 596.259H797.955C797.984 595.964 798.014 595.635 798.043 595.277C799.884 574.111 789.366 446.824 776.674 424.794C777.786 426.581 835.428 484.238 833.287 551.492Z" fill="#E6E6E6"/>
<path d="M831.215 595.277C830.984 595.606 830.744 595.935 830.498 596.259H809.782C809.939 595.979 810.121 595.65 810.332 595.277C813.754 589.101 823.883 570.635 833.285 551.492C843.385 530.92 852.659 509.568 851.878 501.84C852.12 503.582 859.112 556.716 831.215 595.277Z" fill="#E6E6E6"/>
</g>
<defs>
<clipPath id="clip0_1001_6">
<rect width="870.4" height="598.682" fill="white"/>
</clipPath>
</defs>
</svg>
