<svg width="691" height="499" viewBox="0 0 691 499" fill="none" xmlns="http://www.w3.org/2000/svg">
<g clip-path="url(#clip0)">
<rect x="627" y="249" width="53" height="53" fill="#C4C4C4"/>
<path d="M647.345 280.783L689.578 265.764C690.682 265.371 691.897 265.434 692.955 265.938C694.013 266.442 694.828 267.347 695.22 268.453C695.612 269.559 695.55 270.775 695.046 271.835C694.542 272.895 693.639 273.711 692.535 274.103L650.302 289.122L647.345 280.783Z" fill="#D0D2D5"/>
<path d="M640.376 260.84L682.608 245.821C683.712 245.428 684.927 245.491 685.985 245.995C687.044 246.499 687.858 247.404 688.25 248.51C688.643 249.616 688.58 250.832 688.076 251.892C687.573 252.952 686.669 253.768 685.565 254.161L643.333 269.18L640.376 260.84Z" fill="#D0D2D5"/>
<path fill-rule="evenodd" clip-rule="evenodd" d="M615.33 232.435H682.087C687.01 232.435 691 236.431 691 241.361V308.217C691 313.147 687.01 317.143 682.087 317.143H615.33C610.408 317.143 606.418 313.147 606.418 308.217V241.361C606.418 236.431 610.408 232.435 615.33 232.435ZM664.332 252.276H633.014C606.64 277.222 633.014 298.145 633.014 298.145H664.332C690.705 274.808 664.332 252.276 664.332 252.276Z" fill="#F1F1F1"/>
<path d="M630.419 252.816L643.86 249.326C653.01 246.072 655.006 245.898 663.774 250.076C672.541 254.255 672.81 261.75 676.059 270.914L679.713 281.219C680.983 284.803 680.781 288.745 679.149 292.178C677.517 295.612 674.591 298.255 671.013 299.528L650.83 305.664C647.252 306.936 638.825 309.791 635.397 308.157C631.969 306.523 621.733 299.774 620.462 296.191L613.991 279.738C612.72 276.155 616.342 264.725 617.973 261.291C619.605 257.858 626.841 254.088 630.419 252.816Z" fill="#D0D2D5"/>
<path opacity="0.1" d="M268.265 443.56C416.424 443.56 536.53 434.22 536.53 422.699C536.53 411.178 416.424 401.838 268.265 401.838C120.106 401.838 0 411.178 0 422.699C0 434.22 120.106 443.56 268.265 443.56Z" fill="#F2994A"/>
<path opacity="0.1" d="M505.424 498.57C601.291 498.57 679.007 488.446 679.007 475.958C679.007 463.469 601.291 453.346 505.424 453.346C409.556 453.346 331.841 463.469 331.841 475.958C331.841 488.446 409.556 498.57 505.424 498.57Z" fill="#D62828"/>
<path d="M512.178 47.1583C513.24 46.7022 514.375 46.4389 515.53 46.3807C516.27 46.4371 516.998 46.6054 517.688 46.8801C518.935 47.2446 520.101 47.8455 521.122 48.6501C521.627 49.0585 522.028 49.5807 522.292 50.174C522.556 50.7673 522.677 51.4149 522.643 52.0638C522.498 53.328 521.564 54.4217 520.541 55.2245C519.154 56.3661 517.437 57.031 515.643 57.1209C513.636 57.1525 511.742 56.2486 509.804 55.7113C508.395 55.312 506.939 55.0995 505.474 55.0791C504.737 55.1189 503.998 55.0722 503.271 54.94C502.907 54.8712 502.564 54.7175 502.27 54.4912C501.976 54.265 501.74 53.9726 501.58 53.6378C501.397 53.019 501.397 52.3602 501.58 51.7414C501.725 50.9575 501.7 49.099 502.394 48.6312C502.95 48.2519 504.919 48.5553 505.601 48.4984C507.834 48.2865 510.039 47.8372 512.178 47.1583Z" fill="#FBBEBE"/>
<path d="M467.116 34.4332C469.028 36.306 470.674 38.433 472.007 40.7547C474.229 44.6361 475.643 49.1497 478.989 52.1334C479.878 52.8828 480.821 53.5653 481.81 54.1752C482.583 54.7446 483.451 55.1726 484.373 55.4395C487.377 56.1159 490.748 55.174 493.677 54.1752C496.576 53.1332 499.39 51.865 502.091 50.3823C502.11 51.6036 502.449 52.7985 503.076 53.8465C503.776 54.839 505.209 55.4206 506.232 54.7947C503.642 56.0136 501.2 57.5259 498.954 59.302C498.089 60.0353 497.287 60.8444 496.366 61.5082C493.039 63.904 488.438 64.1442 485.364 66.8625C484.908 67.2786 484.334 67.5419 483.722 67.6155C483.11 67.6892 482.49 67.5696 481.949 67.2734C480.882 66.6412 480.156 65.5539 479.279 64.6752C477.55 62.9432 475.201 61.9317 473.503 60.168C472.714 59.3525 472.083 58.3854 471.275 57.5888C470.12 56.451 468.618 55.6924 467.557 54.4281C466.768 53.4988 466.295 52.3673 465.557 51.3748C464.925 50.5151 464.18 49.7628 463.619 48.8462C462.243 46.6527 462.255 43.789 463.044 41.33C463.833 38.8709 465.645 36.5762 467.116 34.4332Z" fill="#F2994A"/>
<path d="M465.19 48.2267C463.223 47.3204 461.494 45.9676 460.141 44.2757C459.444 43.3837 458.811 42.4437 458.247 41.4627C455.85 37.4107 453.791 33.1672 452.093 28.7754C454.781 29.3254 457.603 29.8248 460.248 29.0662C461.627 28.6452 462.913 27.9627 464.035 27.056C465.473 25.8718 466.808 24.567 468.024 23.1556C468.944 24.9207 469.999 26.6116 471.18 28.2128C471.856 29.1231 474.141 30.9753 473.97 32.2143C473.8 33.4533 471.275 34.0729 470.253 34.6608L470.145 34.7303C468.637 35.6849 467.321 36.9134 466.263 38.3525C464.281 41.1719 463.593 45.1039 465.19 48.2267Z" fill="#FBBEBE"/>
<path opacity="0.1" d="M470.303 34.6354C468.786 33.8893 467.446 32.8262 466.373 31.5177C465.301 30.2091 464.521 28.6856 464.086 27.0497C465.524 25.8655 466.858 24.5606 468.075 23.1493C468.995 24.9144 470.05 26.6052 471.231 28.2065C471.906 29.1168 474.191 30.969 474.021 32.208C473.851 33.447 471.326 34.0475 470.303 34.6354Z" fill="black"/>
<path d="M475.984 35.5647C482.513 35.5647 487.807 30.2637 487.807 23.7246C487.807 17.1854 482.513 11.8844 475.984 11.8844C469.455 11.8844 464.161 17.1854 464.161 23.7246C464.161 30.2637 469.455 35.5647 475.984 35.5647Z" fill="#FBBEBE"/>
<path opacity="0.1" d="M437.455 69.3594C436.898 69.3866 436.357 69.5493 435.877 69.8335C437.032 69.4289 438.44 70.5099 439.506 69.9978C440.005 69.7576 439.929 69.6881 439.506 69.5427C438.869 69.3278 438.099 69.5237 437.455 69.3594Z" fill="black"/>
<path opacity="0.1" d="M471.597 55.5911C470.647 55.2694 469.739 54.832 468.896 54.2889C466.68 52.8792 464.818 50.9638 462.628 49.5225C461.521 48.8266 460.377 48.1934 459.2 47.6261L451.809 43.8332C451.245 43.5121 450.643 43.2656 450.016 43.0999C448.81 42.8344 447.453 43.6435 446.229 43.4728C445.594 43.356 444.991 43.1057 444.46 42.7385C443.929 42.3713 443.482 41.8955 443.148 41.3425C442.481 40.2377 442.011 39.0247 441.76 37.7582C441.571 37.0113 441.43 36.2534 441.337 35.4888C441.227 34.6948 441.213 33.8905 441.293 33.0929C441.419 31.509 442.168 30.0401 443.376 29.0093C444.252 28.386 445.25 27.9551 446.304 27.745C446.969 27.5766 447.647 27.4645 448.331 27.4099C448.719 27.3783 449.11 27.3783 449.498 27.4099C452.288 27.6312 454.649 29.5276 456.511 31.6137C457.49 32.7137 458.405 33.8958 459.339 35.0147C459.558 35.696 459.824 36.3613 460.134 37.0059C461.138 39.0035 462.773 40.5966 464.382 42.1453L466.131 43.8332C467.008 44.6802 468.529 44.4653 469.356 45.3566C469.693 45.7755 469.944 46.2567 470.095 46.7726C471.026 49.0595 471.566 51.4872 471.692 53.9539C471.698 54.5012 471.666 55.0482 471.597 55.5911Z" fill="black"/>
<path d="M450.123 97.4774C449.305 97.9688 448.374 98.2393 447.42 98.2625C446.467 98.2858 445.523 98.061 444.682 97.6102C443.807 97.0697 443.016 96.403 442.334 95.6315C438.452 91.6427 434.76 87.4136 432.165 82.4639C431.562 81.4195 431.172 80.2657 431.017 79.0692C430.944 78.4713 431.016 77.8646 431.228 77.3009C431.441 76.7373 431.786 76.2335 432.235 75.8326C432.476 75.6728 432.689 75.4742 432.866 75.2447C433.018 74.9077 433.09 74.5396 433.074 74.1701C433.144 73.5395 433.392 72.9418 433.787 72.4461C434.183 71.9505 434.71 71.5772 435.309 71.3696C434.678 70.9398 434.93 69.9852 435.34 69.3721C435.751 68.7589 436.325 68.1078 436.224 67.3998C436.062 66.9275 435.868 66.4671 435.643 66.0217C435.416 65.2504 435.826 64.4539 436.047 63.6827C436.508 62.1023 436.23 60.4208 436.117 58.7772C435.782 53.9097 436.963 49.0801 438.13 44.3453C438.647 41.941 439.391 39.5914 440.352 37.3284C440.649 36.6963 440.983 36.0641 441.324 35.5015C442.517 33.5669 443.843 31.7186 445.295 29.9702C445.974 28.9416 446.907 28.1056 448.002 27.5428C448.105 27.4983 448.211 27.4603 448.318 27.429C449.105 27.2255 449.921 27.1634 450.729 27.2456C452.863 27.3784 455.104 27.8778 456.625 29.3823C458.146 30.8868 458.638 32.9982 459.326 35.0337C459.545 35.715 459.811 36.3803 460.122 37.025C461.125 39.0226 462.76 40.6156 464.37 42.1644L466.118 43.8522C466.996 44.6993 468.517 44.4843 469.344 45.3757C469.68 45.7946 469.931 46.2757 470.082 46.7917C471.016 49.0718 471.56 51.493 471.692 53.9539C471.698 54.5012 471.666 55.0483 471.597 55.5912C471.383 57.4964 470.541 59.2759 469.205 60.6484C467.69 62.1087 465.582 62.8293 464.073 64.2959C462.811 65.5096 462.078 67.1342 461.359 68.7209C459.97 71.7805 458.579 74.8444 457.187 77.9124C456.178 80.0117 455.311 82.1764 454.592 84.3919C453.279 88.8106 454.024 95.0436 450.123 97.4774Z" fill="#F2994A"/>
<path d="M510.246 43.8396C511.307 43.3776 512.443 43.114 513.598 43.062C514.338 43.1196 515.065 43.2857 515.757 43.5551C517.004 43.9218 518.17 44.5248 519.191 45.3314C519.696 45.7391 520.098 46.2612 520.362 46.8546C520.626 47.4481 520.746 48.096 520.712 48.745C520.567 50.0093 519.632 51.0966 518.61 51.9058C517.224 53.0494 515.506 53.7145 513.712 53.8022C511.705 53.8022 509.811 52.9299 507.873 52.3862C506.463 51.9869 505.008 51.7743 503.543 51.7541C502.806 51.7918 502.066 51.743 501.34 51.6087C500.976 51.541 500.633 51.3884 500.34 51.1632C500.046 50.9381 499.809 50.6467 499.648 50.3128C499.475 49.7033 499.475 49.0574 499.648 48.4479C499.8 47.6641 499.775 45.7992 500.469 45.3314C501.024 44.9585 502.994 45.2619 503.676 45.205C505.907 44.9783 508.109 44.5207 510.246 43.8396Z" fill="#FBBEBE"/>
<path d="M501.491 44.4717C498.878 45.6728 495.81 44.674 492.97 44.6677C491.575 44.6677 490.186 44.9016 488.798 44.9837C487.259 45.0386 485.718 44.9985 484.184 44.8636L479.563 44.5476C476.841 44.4571 474.135 44.0842 471.49 43.435C469.23 40.7673 465.563 39.5915 462.836 37.4169C460.652 35.6722 459.087 33.2953 457.224 31.2029C455.362 29.1105 453.002 27.2204 450.218 26.9991C449.14 26.9452 448.06 27.0604 447.018 27.3405C445.964 27.5464 444.967 27.9777 444.095 28.6048C443.496 29.1143 443.004 29.7374 442.646 30.4382C442.289 31.1391 442.073 31.9038 442.012 32.6884C441.897 34.2585 442.053 35.8367 442.473 37.3537C442.724 38.6222 443.194 39.8373 443.862 40.9443C444.2 41.4952 444.649 41.9692 445.18 42.3361C445.712 42.7029 446.314 42.9545 446.948 43.0747C448.167 43.239 449.517 42.4425 450.736 42.6954C451.362 42.8611 451.965 43.1076 452.528 43.4287L459.926 47.2216C461.1 47.7903 462.243 48.4234 463.347 49.118C465.544 50.5593 467.4 52.4747 469.615 53.8844C471.831 55.2941 474.627 56.1791 477.089 55.2562C484.663 52.4305 493.197 53.7453 501.233 54.447C501.182 54.2953 501.51 54.1562 501.605 54.0298C502.599 52.6637 503.049 50.9756 502.867 49.295C502.672 47.6325 502.04 46.0647 501.491 44.4717Z" fill="#F2994A"/>
<path d="M488.785 23.1746C489.571 22.8124 490.231 22.2223 490.679 21.4805C491.398 20.1466 490.956 18.5094 490.464 17.0554C489.972 15.6015 489.473 14.3309 488.924 12.9907C488.531 11.8662 487.936 10.8229 487.169 9.91215C486.052 8.71739 484.455 8.11684 483.123 7.17494C481.545 6.05604 480.365 4.46934 479.033 3.07229C477.701 1.67524 476.072 0.379339 474.154 0.145443C472.676 0.0710766 471.201 0.3461 469.849 0.948273C458.323 5.18999 448.899 13.5913 438.578 20.2541C434.564 22.8522 430.057 25.2734 425.323 24.9257L429.558 31.6644C430.638 33.3902 431.85 35.2171 433.743 35.9567C435.416 36.5888 437.284 36.2728 439.039 35.9567C440.436 35.7541 441.796 35.3451 443.073 34.743C445.598 33.3712 447.22 30.5202 449.934 29.5277C451.96 28.7881 454.22 29.2433 456.246 29.9513C458.272 30.6593 460.261 31.6201 462.394 31.9109C466.181 32.423 469.969 30.7099 473.125 28.4973C475.018 27.1825 476.742 25.6716 478.806 24.7044C480.358 23.8975 482.121 23.5864 483.855 23.8131C485.768 24.0786 486.891 24.1671 488.785 23.1746Z" fill="black"/>
<path opacity="0.1" d="M490.679 21.4805C491.386 20.172 490.969 18.5663 490.489 17.1566C490.645 17.9643 490.534 18.8007 490.174 19.5398C489.722 20.2779 489.063 20.867 488.28 21.234C486.386 22.2328 485.238 22.1443 483.293 21.8219C481.559 21.5993 479.798 21.9101 478.244 22.7132C476.192 23.7057 474.456 25.2418 472.563 26.5061C469.407 28.7186 465.619 30.4254 461.832 29.9134C459.692 29.6289 457.717 28.6491 455.684 27.9537C453.652 27.2584 451.386 26.7906 449.372 27.5302C446.664 28.5227 445.061 31.38 442.517 32.7454C441.24 33.3467 439.881 33.7556 438.484 33.9591C436.723 34.3005 434.854 34.6355 433.188 33.9591C431.294 33.2258 430.082 31.3926 428.997 29.6668L425.998 24.8941C425.759 24.8941 425.512 24.8941 425.272 24.8941L429.508 31.6328C430.587 33.3586 431.799 35.1855 433.693 35.9251C435.366 36.5573 437.234 36.2412 438.989 35.9251C440.386 35.7225 441.745 35.3135 443.022 34.7114C445.547 33.3396 447.169 30.4886 449.883 29.4962C451.91 28.7565 454.169 29.2117 456.196 29.9197C458.222 30.6277 460.21 31.5886 462.344 31.8794C466.131 32.3914 469.918 30.6783 473.074 28.4658C474.968 27.1509 476.691 25.6401 478.755 24.6729C480.308 23.8659 482.07 23.5549 483.805 23.7815C485.749 24.0976 486.898 24.1861 488.785 23.1936C489.574 22.8264 490.234 22.2293 490.679 21.4805Z" fill="black"/>
<path opacity="0.1" d="M436.887 75.5292C436.459 75.3789 435.998 75.3504 435.555 75.447C434.894 75.5173 434.279 75.8196 433.819 76.3004C433.941 76.3554 434.073 76.3838 434.207 76.3838C434.341 76.3838 434.473 76.3554 434.595 76.3004C435.008 76.1957 435.433 76.1489 435.858 76.1613C436.224 76.1613 437.316 76.5659 437.6 76.3889C438.017 76.1171 437.171 75.6367 436.887 75.5292Z" fill="black"/>
<path d="M299.983 405.808L300.16 396.857C308.576 396.376 316.992 396.056 325.408 395.896C330.294 395.807 335.243 395.776 339.971 397.002C343.246 397.856 346.346 399.297 349.578 400.308C356.016 402.319 362.833 402.584 369.593 402.767C376.152 402.951 383 403.014 388.889 400.112C399.083 395.055 403.369 382.634 403.868 371.261C404.367 359.889 402.107 348.428 403.679 337.125" stroke="#D0D2D5" stroke-width="12" stroke-miterlimit="10"/>
<path d="M323.06 423.325L210.585 421.884L210.913 418.995L216.354 371.337H315.126L322.398 418.995L322.953 422.604L323.06 423.325Z" fill="#D0D2D5"/>
<path opacity="0.1" d="M322.953 422.604H266.819L210.585 421.884L210.913 418.995H322.398L322.953 422.604Z" fill="black"/>
<path d="M341.088 419.715H191.838V423.325H341.088V419.715Z" fill="#D0D2D5"/>
<path d="M483.483 85.0999C483.494 83.8623 483.26 82.6347 482.796 81.4876C482.332 80.3406 481.646 79.2966 480.778 78.4155C479.91 77.5345 478.877 76.8339 477.738 76.3537C476.599 75.8736 475.377 75.6235 474.141 75.6177H57.3392C56.1036 75.6243 54.8815 75.875 53.7428 76.3554C52.6041 76.8358 51.5713 77.5365 50.7035 78.4174C49.8357 79.2982 49.1499 80.3419 48.6856 81.4886C48.2212 82.6353 47.9873 83.8625 47.9973 85.0999V338.124H483.483V85.0999Z" fill="#D0D2D5"/>
<path d="M47.9973 335.595V365.237C47.9973 367.718 48.9816 370.098 50.7335 371.852C52.4855 373.607 54.8616 374.593 57.3392 374.593H474.141C476.619 374.593 478.995 373.607 480.747 371.852C482.499 370.098 483.483 367.718 483.483 365.237V335.595H47.9973Z" fill="#D0D2D5"/>
<path d="M267.905 363.347C269.38 363.347 270.835 363.012 272.161 362.367C273.487 361.722 274.65 360.784 275.562 359.623C275.84 359.268 276.093 358.895 276.319 358.504L270.979 357.626L276.755 357.67C277.309 356.463 277.611 355.155 277.642 353.826C277.674 352.498 277.434 351.177 276.938 349.945L269.193 353.972L276.338 348.712C275.679 347.535 274.783 346.508 273.706 345.695C272.63 344.883 271.397 344.303 270.085 343.993C268.773 343.683 267.411 343.649 266.086 343.893C264.76 344.138 263.5 344.655 262.384 345.413C261.269 346.171 260.323 347.152 259.606 348.295C258.889 349.438 258.417 350.718 258.22 352.053C258.023 353.389 258.104 354.75 258.46 356.052C258.816 357.354 259.438 358.568 260.286 359.617C261.192 360.775 262.349 361.712 263.668 362.358C264.988 363.004 266.436 363.342 267.905 363.347Z" fill="black"/>
<path opacity="0.1" d="M277.639 374.586L322.511 419.715L315.625 374.586H277.639Z" fill="black"/>
<path d="M470.366 89.683L494.466 57.7026C495.905 55.8061 497.389 53.8275 499.364 52.4621C505.045 48.5301 513.371 50.8564 518.124 55.8946C522.877 60.9329 524.871 67.9434 526.33 74.72C529.725 90.3177 531.243 106.267 530.849 122.226C530.647 130.627 529.896 139.117 527.226 147.088C523.174 159.213 514.961 169.422 508.757 180.592C498.765 198.59 494.58 222.592 507.229 238.832C511.351 244.123 516.962 248.169 520.769 253.694C525.067 259.933 526.74 267.563 528.343 274.972C530.735 286.161 533.134 297.42 533.576 308.855C535.002 345.83 513.951 382.773 481.444 400.359C458.878 412.572 431.578 416.112 411.954 432.674C405.011 438.509 399.027 447.087 400.731 455.975C402.12 463.188 408.444 468.669 415.388 471.052C422.331 473.435 429.861 473.239 437.183 472.822C454.77 471.815 472.271 469.651 489.574 466.343C504.237 463.536 518.875 461.115 531.657 453.39C532.938 452.712 534.033 451.728 534.845 450.526C535.671 449.142 535.81 447.467 535.924 445.855C536.271 441.107 536.599 436.183 534.927 431.726C532.976 426.517 528.526 422.573 526.393 417.44C524.259 412.307 524.644 406.396 526.027 401.004C527.731 394.341 530.83 388.133 533.948 382.008C536.984 376.04 540.065 370.092 543.637 364.434C553.699 348.529 603.868 270.225 639.214 280.695" stroke="#D0D2D5" stroke-width="12" stroke-miterlimit="10"/>
<path d="M467.621 91.5353H66.0247V318.989H467.621V91.5353Z" fill="#FBEAEA"/>
<path d="M220.066 241.681L233.057 189.756L246.559 241.681H258.15C266.811 219.335 273.434 196.989 278.02 174.385H266.938C264.009 191.952 259.169 209.389 252.8 226.956L239.681 174.385H227.453L214.206 227.473C207.965 209.777 203.635 192.081 200.832 174.385H188.732C193.063 196.86 199.941 219.206 208.347 241.681H220.066Z" fill="url(#paint0_linear)"/>
<path d="M298.399 208.873C298.399 191.564 302.22 182.393 316.231 182.393C330.624 182.393 333.808 191.952 333.808 207.71C333.808 226.31 329.477 233.544 315.212 233.544C312.155 233.544 309.48 233.285 307.315 232.381V242.198C309.99 242.973 313.046 243.36 316.231 243.36C338.648 243.36 345.526 227.085 345.526 207.064C345.526 184.718 337.12 172.577 318.014 172.577C305.786 172.577 302.093 177.614 298.399 182.393V174.385H287.19V268.031H298.399V208.873Z" fill="url(#paint1_linear)"/>
<path d="M583.907 302.042C582.564 304.107 581.302 306.226 580.119 308.401C579.295 309.835 578.624 311.352 578.118 312.927C577.38 315.456 577.405 318.161 576.856 320.74C576.225 323.775 574.748 326.67 574.748 329.774C574.84 332.471 575.772 335.072 577.411 337.214C579.046 339.334 580.914 341.264 582.979 342.967C587.745 330.6 590.408 317.521 590.856 304.273C590.919 302.44 590.926 300.543 590.263 298.837C589.846 297.762 587.883 294.816 586.614 295.973C586.154 296.396 586.034 298.306 585.75 298.938C585.218 300.019 584.602 301.057 583.907 302.042Z" fill="#D62828"/>
<path opacity="0.1" d="M583.907 302.042C582.564 304.107 581.302 306.226 580.119 308.401C579.295 309.835 578.624 311.352 578.118 312.927C577.38 315.456 577.405 318.161 576.856 320.74C576.225 323.775 574.748 326.67 574.748 329.774C574.84 332.471 575.772 335.072 577.411 337.214C579.046 339.334 580.914 341.264 582.979 342.967C587.745 330.6 590.408 317.521 590.856 304.273C590.919 302.44 590.926 300.543 590.263 298.837C589.846 297.762 587.883 294.816 586.614 295.973C586.154 296.396 586.034 298.306 585.75 298.938C585.218 300.019 584.602 301.057 583.907 302.042Z" fill="black"/>
<path d="M655.324 289.62C657.271 288.047 659.756 286.875 662.212 287.323C663.704 287.611 665.027 288.465 665.905 289.708C666.91 291.157 667.043 293.463 665.583 294.448C665.217 294.66 664.836 294.844 664.443 294.998C663.474 295.538 662.555 296.162 661.696 296.863C659.922 298.098 657.879 298.888 655.737 299.17C653.595 299.451 651.418 299.214 649.386 298.479C647.166 297.6 648.473 295.881 649.842 294.671C651.71 293.02 653.407 291.183 655.324 289.62Z" fill="#FBBEBE"/>
<path d="M609.451 366.047L607.886 377.185C607.683 378.332 607.603 379.498 607.646 380.662C607.829 383.285 609.218 385.643 610.228 388.071C611.238 390.498 611.844 393.4 610.512 395.656C610.102 396.364 609.521 396.959 609.155 397.686C608.682 398.812 608.467 400.03 608.524 401.251L608.094 417.055C603.222 417.384 598.331 417.357 593.463 416.972C593.271 416.989 593.08 416.94 592.92 416.833C592.793 416.67 592.728 416.466 592.737 416.258C592.522 412.56 593.166 408.856 592.958 405.158C592.882 403.805 592.686 402.458 592.668 401.099C592.585 395.593 595.306 390.201 594.485 384.752C594.227 383.381 593.89 382.026 593.475 380.693C590.881 371.211 591.43 361.242 591.998 351.457C591.993 351.299 592.037 351.145 592.125 351.014C592.222 350.922 592.342 350.857 592.472 350.824C595.234 349.997 598.154 349.847 600.986 350.387C603.819 350.928 606.479 352.142 608.744 353.928C609.433 354.485 611.168 355.022 611.623 355.679C612.254 356.609 611.421 357.525 611.061 358.511C610.257 360.958 609.717 363.484 609.451 366.047Z" fill="#D0D2D5"/>
<path opacity="0.1" d="M609.451 366.047L607.886 377.185C607.683 378.332 607.603 379.498 607.646 380.662C607.829 383.285 609.218 385.643 610.228 388.071C611.238 390.498 611.844 393.4 610.512 395.656C610.102 396.364 609.521 396.959 609.155 397.686C608.682 398.812 608.467 400.03 608.524 401.251L608.094 417.055C603.222 417.384 598.331 417.357 593.463 416.972C593.271 416.989 593.08 416.94 592.92 416.833C592.793 416.67 592.728 416.466 592.737 416.258C592.522 412.56 593.166 408.856 592.958 405.158C592.882 403.805 592.686 402.458 592.668 401.099C592.585 395.593 595.306 390.201 594.485 384.752C594.227 383.381 593.89 382.026 593.475 380.693C590.881 371.211 591.43 361.242 591.998 351.457C591.993 351.299 592.037 351.145 592.125 351.014C592.222 350.922 592.342 350.857 592.472 350.824C595.234 349.997 598.154 349.847 600.986 350.387C603.819 350.928 606.479 352.142 608.744 353.928C609.433 354.485 611.168 355.022 611.623 355.679C612.254 356.609 611.421 357.525 611.061 358.511C610.257 360.958 609.717 363.484 609.451 366.047Z" fill="black"/>
<path d="M580.183 362.684C580.921 364.22 581.912 365.655 582.348 367.305C583.503 371.66 580.53 376.155 580.883 380.618C580.997 382.027 581.432 383.399 581.464 384.809C581.496 386.218 580.978 387.786 579.728 388.431C578.889 388.867 577.834 388.823 577.045 389.316C575.714 390.125 575.562 391.984 575.695 393.532C575.827 395.081 576.042 396.826 575.063 398.046C574.312 398.988 573.025 399.348 572.217 400.24C571.734 400.881 571.323 401.575 570.992 402.307C569.787 404.412 567.59 405.708 565.785 407.364C563.979 409.02 562.452 411.448 563.26 413.736C563.853 415.424 565.52 416.46 567.123 417.251C570.048 418.699 573.136 419.792 576.32 420.506C576.662 420.608 577.023 420.625 577.374 420.557C577.728 420.425 578.045 420.208 578.295 419.925C580.157 418.098 582.083 416.182 582.941 413.723C583.095 413.126 583.333 412.553 583.648 412.023C584.633 410.645 586.703 410.689 588.111 409.741C589.752 408.622 590.149 406.397 591.223 404.721C592.239 403.141 593.867 402.054 595.01 400.575C596.903 398.122 597.415 394.854 598.797 392.053C599.384 390.858 600.135 389.752 600.602 388.507C601.074 387.024 601.365 385.489 601.467 383.936C602.357 376.553 604.623 369.119 603.197 361.811C602.881 360.199 602.395 358.65 602.193 356.994C601.84 354.124 602.395 351.197 601.972 348.334C601.963 347.976 601.872 347.625 601.707 347.307C601.542 346.989 601.306 346.714 601.019 346.501C600.677 346.348 600.307 346.271 599.933 346.273C596.191 346.078 592.44 346.165 588.71 346.532C586.817 346.715 584.689 347.101 583.56 348.65C582.594 349.971 582.644 351.754 582.297 353.366C581.918 355.344 580.915 356.432 579.861 357.987C578.807 359.542 579.406 361.084 580.183 362.684Z" fill="#D0D2D5"/>
<path d="M594.745 414.052C593.747 414.052 592.643 413.995 591.873 414.627C590.913 415.411 590.894 416.859 591.052 418.098C591.494 421.556 592.624 424.887 593.754 428.212L597.112 438.08C597.644 439.487 598.035 440.944 598.279 442.429C598.614 444.958 598.109 447.486 598.046 450.015C598.046 451.279 598.128 452.683 598.917 453.7C600.343 455.534 603.127 455.319 605.418 454.927L616.597 453.03C617.54 452.901 618.466 452.675 619.362 452.354C620.296 451.923 621.193 451.415 622.045 450.837C624.257 449.571 626.581 448.513 628.988 447.676C630.036 447.284 631.21 446.778 631.588 445.723C632.037 444.458 631.039 443.074 629.802 442.562C628.565 442.05 627.183 442.183 625.844 442.227C622.553 442.333 619.268 441.886 616.124 440.906C615.176 440.678 614.297 440.225 613.561 439.584C612.838 438.762 612.338 437.767 612.109 436.696C611.163 433.4 610.595 430.006 610.418 426.581C610.291 424.053 610.38 421.524 610.279 418.995C610.216 417.497 610.361 412.674 609.016 411.643C608.013 410.872 603.878 413.003 602.527 413.312C599.974 413.884 597.36 414.132 594.745 414.052Z" fill="black"/>
<path d="M557.913 421.082C556.828 424.71 556.651 428.535 555.95 432.258C555.25 435.981 553.993 439.787 551.235 442.372C550.697 442.798 550.234 443.31 549.865 443.889C549.632 444.431 549.553 445.026 549.637 445.609C549.72 446.193 549.963 446.742 550.339 447.196C551.101 448.095 552.045 448.821 553.11 449.326C560.236 453.22 568.259 455.18 576.345 456.153C577.773 456.427 579.244 456.375 580.65 456.001C582.026 455.534 583.244 454.295 583.219 452.841C583.232 452.444 583.097 452.056 582.84 451.753C582.594 451.529 582.304 451.358 581.988 451.254C579.008 450.028 575.979 448.688 573.681 446.431C571.383 444.174 569.932 440.741 570.822 437.669C571.342 436.231 572.051 434.868 572.93 433.617C574.086 431.629 575.14 429.582 576.086 427.485L578.863 421.65C579.671 419.95 580.498 418.193 580.631 416.302C577.144 416.461 573.662 415.904 570.399 414.665C568.875 414.043 567.455 413.19 566.188 412.137C565.115 411.239 564.137 409.57 562.692 410.74C561.53 411.675 560.798 414.305 560.11 415.645C559.238 417.397 558.503 419.215 557.913 421.082Z" fill="black"/>
<path d="M598.601 276.206C598.324 278.627 595.975 280.232 593.735 281.187L607.912 285.726C606.996 283.968 607.741 281.819 608.65 280.036C609.39 278.627 610.234 277.275 611.175 275.991C611.314 275.795 611.472 275.542 611.371 275.321C611.281 275.172 611.139 275.062 610.973 275.011C608.057 273.709 605.052 272.362 601.865 271.888C600.943 271.749 599.201 271.382 598.513 272.324C597.825 273.266 598.753 275.087 598.601 276.206Z" fill="#FBBEBE"/>
<path opacity="0.1" d="M598.601 276.206C598.324 278.627 595.975 280.232 593.735 281.187L607.912 285.726C606.996 283.968 607.741 281.819 608.65 280.036C609.39 278.627 610.234 277.275 611.175 275.991C611.314 275.795 611.472 275.542 611.371 275.321C611.281 275.172 611.139 275.062 610.973 275.011C608.057 273.709 605.052 272.362 601.865 271.888C600.943 271.749 599.201 271.382 598.513 272.324C597.825 273.266 598.753 275.087 598.601 276.206Z" fill="black"/>
<path d="M606.864 278.171C613.006 278.171 617.986 273.185 617.986 267.033C617.986 260.881 613.006 255.895 606.864 255.895C600.721 255.895 595.742 260.881 595.742 267.033C595.742 273.185 600.721 278.171 606.864 278.171Z" fill="#FBBEBE"/>
<path d="M616.471 358.676C615.398 359.94 613.498 360.218 611.838 359.94C607.956 359.308 604.774 356.444 600.981 355.414C596.323 354.15 591.386 355.774 586.993 357.759C582.6 359.744 578.219 362.153 573.41 362.532C577.759 352.822 575.272 341.134 579.425 331.342C580.448 328.952 581.868 326.638 582.095 324.053C582.379 320.835 580.776 317.731 580.53 314.526C580.302 311.675 581.161 308.837 581.975 306.125L585.024 296.106C586.16 292.376 587.328 288.577 589.531 285.359C590.339 284.177 590.591 281.787 591.828 281.067C594.53 279.512 598.626 281.478 601.555 281.585C604.484 281.693 607.154 283.779 608.865 286.137C610.676 288.627 611.705 291.592 612.652 294.525C614.165 298.892 615.292 303.382 616.023 307.946C616.117 308.629 616.199 309.311 616.262 310C616.894 316.492 615.972 323.023 615.922 329.54C615.922 329.54 615.922 329.54 615.922 329.591C615.865 337.859 617.184 346.083 617.437 354.352C617.474 355.888 617.437 357.538 616.471 358.676Z" fill="#D62828"/>
<path opacity="0.1" d="M622.51 321.132C620.283 320.837 619.943 320.889 618.091 319.551C616.489 318.424 615.279 318.813 613.988 317.339C612.345 315.31 610.201 313.862 608.307 311.333C603.258 306.276 603.889 307.224 599.82 300.791C599.439 298.927 599.155 296.917 600.104 295.292C600.638 294.409 601.455 293.733 602.422 293.374C603.389 293.015 604.449 292.995 605.429 293.317C606.999 293.873 608.128 295.224 609.174 296.515C611.264 299.091 613.364 301.692 614.857 304.649C615.518 305.96 616.052 307.33 616.7 308.648C617.355 309.946 618.082 311.207 618.879 312.423C619.052 313.09 619.212 313.759 619.354 314.436C620.681 320.786 621.805 314.62 622.51 321.132Z" fill="black"/>
<path d="M599.314 296.752C599.071 298.61 600.123 300.375 601.182 301.932C605.118 307.7 609.776 312.94 615.042 317.522C616.969 319.283 619.11 320.794 621.413 322.022C623.173 322.881 625.03 323.525 626.944 323.94C629.778 324.596 632.913 324.834 635.46 323.424C636.846 322.548 638.077 321.447 639.103 320.166L655.77 301.498C655.311 300.196 653.709 299.294 652.679 298.381L649.737 295.732C648.918 295.012 648.001 294.246 646.911 294.216C645.821 294.186 644.897 295.594 644.522 296.524C644.148 297.454 644.029 298.465 643.677 299.397C642.998 301.175 641.541 302.514 640.136 303.787L636.091 307.453C634.668 308.859 633.063 310.069 631.32 311.05C627.803 307.833 623.385 305.743 619.786 302.609C618.681 301.651 617.653 300.599 616.536 299.648C614.015 297.502 611.073 295.92 608.153 294.354C606.686 293.565 605.123 292.758 603.463 292.861C602.435 292.946 601.465 293.377 600.712 294.083C599.959 294.79 599.466 295.73 599.314 296.752Z" fill="#D62828"/>
<path d="M603.316 269.543C603.401 268.812 603.629 268.106 603.985 267.463C604.172 267.141 604.456 266.885 604.796 266.734C605.136 266.583 605.515 266.544 605.879 266.622C606.99 266.97 607.362 268.696 608.524 268.753C609.306 268.791 609.868 267.994 610.114 267.242C610.361 266.49 610.493 265.649 611.08 265.118C611.488 264.81 611.957 264.595 612.456 264.486C615.152 263.632 617.935 262.052 618.831 259.365C619.039 258.821 619.089 258.23 618.977 257.658C618.566 255.958 616.452 255.446 614.842 254.826C613.233 254.207 611.686 253.17 610.108 252.374C608.53 251.577 606.7 251.008 604.964 251.413C604.082 251.69 603.216 252.015 602.369 252.386C599.756 253.29 596.55 252.873 594.524 254.757C593.641 255.699 592.992 256.836 592.63 258.076C591.21 262.001 590.32 266.673 592.661 270.124C594.101 272.255 595.508 274.689 598.286 274.941C601.517 275.232 602.805 272.274 603.316 269.543Z" fill="black"/>
</g>
<defs>
<linearGradient id="paint0_linear" x1="330.051" y1="243.007" x2="199.532" y2="184.777" gradientUnits="userSpaceOnUse">
<stop stop-color="#D62828"/>
<stop offset="1" stop-color="#F77F00"/>
</linearGradient>
<linearGradient id="paint1_linear" x1="330.051" y1="243.007" x2="199.532" y2="184.777" gradientUnits="userSpaceOnUse">
<stop stop-color="#D62828"/>
<stop offset="1" stop-color="#F77F00"/>
</linearGradient>
<clipPath id="clip0">
<rect width="691" height="498.57" fill="white"/>
</clipPath>
</defs>
</svg>
