<svg width="326" height="207" viewBox="0 0 326 207" fill="none" xmlns="http://www.w3.org/2000/svg">
<g clip-path="url(#clip0)">
<path d="M18.2757 206.396C13.2465 205.983 8.80633 202.353 6.28124 197.993C5.43445 196.531 4.85425 194.614 5.81318 193.222C6.08766 192.824 6.46699 192.509 6.90936 192.312C7.35174 192.115 7.84 192.044 8.32033 192.107C8.80067 192.169 9.25444 192.362 9.63165 192.666C10.0089 192.969 10.2949 193.37 10.4582 193.825C10.1493 192.117 10.0166 190.382 10.0621 188.647C10.1007 187.178 10.3789 185.517 11.603 184.7C13.0231 183.753 15.07 184.505 16.1029 185.863C17.1359 187.221 17.4162 188.987 17.6641 190.674C17.4617 189.96 17.4419 189.207 17.6067 188.483C17.7714 187.76 18.1153 187.089 18.607 186.532C19.0986 185.976 19.7223 185.551 20.421 185.297C21.1196 185.044 21.8709 184.969 22.6061 185.079C24.6861 185.393 26.3155 187.19 26.9513 189.191C27.5871 191.191 27.3886 193.361 26.9793 195.42C26.4995 197.834 25.7208 200.229 24.3188 202.254C22.9168 204.279 20.8343 205.911 18.4182 206.407L18.2757 206.396Z" fill="#F2F2F2"/>
<path d="M326 43.4198C326 52.4247 323.195 61.2071 317.973 68.5515C312.752 75.896 305.371 81.4394 296.853 84.4147C296.582 84.5089 296.307 84.6031 296.032 84.6891V40.5688H239.065C239.081 40.2944 239.102 40.0199 239.126 39.7496H296.032V31.1312C296.032 30.588 295.816 30.0672 295.431 29.6832C295.046 29.2991 294.524 29.0833 293.98 29.0831H241.401C241.495 28.8086 241.594 28.5342 241.7 28.2638C245.262 18.7239 252.07 10.736 260.935 5.69561C269.799 0.655244 280.157 -1.11713 290.198 0.688128C300.239 2.49338 309.325 7.7615 315.869 15.5721C322.413 23.3827 325.999 33.2393 326 43.4198Z" fill="#F2F2F2"/>
<path d="M293.98 28.2638H94.0582C93.2963 28.2646 92.5659 28.567 92.0272 29.1045C91.4884 29.6421 91.1854 30.3709 91.1846 31.1311V166.306C91.1854 167.066 91.4884 167.795 92.0272 168.333C92.5659 168.87 93.2963 169.173 94.0582 169.173H293.98C294.742 169.173 295.472 168.87 296.011 168.333C296.549 167.795 296.852 167.066 296.853 166.306V31.1311C296.852 30.3709 296.549 29.6421 296.011 29.1045C295.472 28.567 294.742 28.2646 293.98 28.2638ZM296.032 166.306C296.032 166.849 295.816 167.37 295.431 167.754C295.046 168.138 294.524 168.354 293.98 168.354H94.0582C93.5139 168.354 92.9919 168.138 92.607 167.754C92.2221 167.37 92.0058 166.849 92.0056 166.306V31.1311C92.0058 30.588 92.2221 30.0672 92.607 29.6832C92.9919 29.2991 93.5139 29.0833 94.0582 29.083H293.98C294.524 29.0833 295.046 29.2991 295.431 29.6832C295.816 30.0672 296.032 30.588 296.032 31.1311V166.306Z" fill="#3F3D56"/>
<path d="M296.443 39.7496H91.5952V40.5689H296.443V39.7496Z" fill="#3F3D56"/>
<path d="M98.5739 36.8659C99.9343 36.8659 101.037 35.7655 101.037 34.4082C101.037 33.0508 99.9343 31.9504 98.5739 31.9504C97.2136 31.9504 96.1108 33.0508 96.1108 34.4082C96.1108 35.7655 97.2136 36.8659 98.5739 36.8659Z" fill="#3F3D56"/>
<path d="M105.655 36.8659C107.016 36.8659 108.118 35.7655 108.118 34.4082C108.118 33.0508 107.016 31.9504 105.655 31.9504C104.295 31.9504 103.192 33.0508 103.192 34.4082C103.192 35.7655 104.295 36.8659 105.655 36.8659Z" fill="#3F3D56"/>
<path d="M112.737 36.8659C114.097 36.8659 115.2 35.7655 115.2 34.4082C115.2 33.0508 114.097 31.9504 112.737 31.9504C111.376 31.9504 110.274 33.0508 110.274 34.4082C110.274 35.7655 111.376 36.8659 112.737 36.8659Z" fill="#3F3D56"/>
<path d="M147.425 56.5277H111.3C110.538 56.5286 109.808 56.8309 109.269 57.3685C108.73 57.906 108.427 58.6348 108.426 59.3951V95.4417C108.427 96.2019 108.73 96.9308 109.269 97.4683C109.808 98.0058 110.538 98.3082 111.3 98.3091H147.425C148.187 98.3082 148.918 98.0058 149.456 97.4683C149.995 96.9308 150.298 96.2019 150.299 95.4417V59.3951C150.298 58.6348 149.995 57.906 149.456 57.3685C148.918 56.8309 148.187 56.5286 147.425 56.5277ZM149.478 95.4417C149.478 95.9848 149.261 96.5056 148.876 96.8897C148.492 97.2737 147.97 97.4896 147.425 97.4898H111.3C110.756 97.4896 110.234 97.2737 109.849 96.8897C109.464 96.5056 109.248 95.9848 109.247 95.4417V59.3951C109.248 58.8519 109.464 58.3311 109.849 57.9471C110.234 57.563 110.756 57.3472 111.3 57.347H147.425C147.97 57.3472 148.492 57.563 148.876 57.9471C149.261 58.3311 149.478 58.8519 149.478 59.3951V95.4417Z" fill="#3F3D56"/>
<path d="M212.287 56.7325H176.162C175.454 56.7339 174.776 57.0149 174.276 57.5139C173.776 58.0129 173.495 58.6894 173.493 59.3951V95.4417C173.495 96.1475 173.776 96.8239 174.276 97.3229C174.776 97.822 175.454 98.1029 176.162 98.1043H212.287C212.994 98.1029 213.672 97.822 214.172 97.3229C214.672 96.8239 214.954 96.1475 214.955 95.4417V59.3951C214.954 58.6894 214.672 58.0129 214.172 57.5139C213.672 57.0149 212.994 56.7339 212.287 56.7325Z" fill="#F2994A"/>
<path d="M277.149 56.7325H241.023C240.316 56.7339 239.638 57.0149 239.138 57.5139C238.638 58.0129 238.356 58.6894 238.355 59.3951V95.4417C238.356 96.1475 238.638 96.8239 239.138 97.3229C239.638 97.822 240.316 98.1029 241.023 98.1043H277.149C277.856 98.1029 278.534 97.822 279.034 97.3229C279.534 96.8239 279.816 96.1475 279.817 95.4417V59.3951C279.816 58.6894 279.534 58.0129 279.034 57.5139C278.534 57.0149 277.856 56.7339 277.149 56.7325Z" fill="#E6E6E6"/>
<path d="M147.425 110.802H111.3C110.593 110.804 109.915 111.085 109.415 111.584C108.915 112.083 108.633 112.759 108.632 113.465V149.512C108.633 150.217 108.915 150.894 109.415 151.393C109.915 151.892 110.593 152.173 111.3 152.174H147.425C148.133 152.173 148.811 151.892 149.311 151.393C149.811 150.894 150.092 150.217 150.094 149.512V113.465C150.092 112.759 149.811 112.083 149.311 111.584C148.811 111.085 148.133 110.804 147.425 110.802Z" fill="#E6E6E6"/>
<path d="M212.287 110.802H176.162C175.454 110.804 174.776 111.085 174.276 111.584C173.776 112.083 173.495 112.759 173.493 113.465V149.512C173.495 150.217 173.776 150.894 174.276 151.393C174.776 151.892 175.454 152.173 176.162 152.174H212.287C212.994 152.173 213.672 151.892 214.172 151.393C214.672 150.894 214.954 150.217 214.955 149.512V113.465C214.954 112.759 214.672 112.083 214.172 111.584C213.672 111.085 212.994 110.804 212.287 110.802Z" fill="#D62828"/>
<path d="M277.149 110.802H241.023C240.316 110.804 239.638 111.085 239.138 111.584C238.638 112.083 238.356 112.759 238.355 113.465V149.512C238.356 150.217 238.638 150.894 239.138 151.393C239.638 151.892 240.316 152.173 241.023 152.174H277.149C277.856 152.173 278.534 151.892 279.034 151.393C279.534 150.894 279.816 150.217 279.817 149.512V113.465C279.816 112.759 279.534 112.083 279.034 111.584C278.534 111.085 277.856 110.804 277.149 110.802Z" fill="#E6E6E6"/>
<path d="M138.599 116.742H102.474C101.766 116.741 101.088 116.461 100.588 115.961C100.088 115.462 99.8062 114.785 99.8054 114.08V78.0329C99.8062 77.327 100.088 76.6502 100.588 76.1511C101.088 75.6519 101.766 75.3712 102.474 75.3704H138.599C139.307 75.3712 139.985 75.652 140.485 76.1511C140.985 76.6502 141.267 77.327 141.268 78.0329V114.08C141.267 114.785 140.985 115.462 140.485 115.961C139.985 116.461 139.307 116.741 138.599 116.742Z" fill="#D62828"/>
<path d="M83.2304 201.57L88.0417 200.096L84.636 180.878L77.5349 183.052L83.2304 201.57Z" fill="#A0616A"/>
<path d="M98.6921 201.713L83.5707 206.343L81.7777 200.514L91.0568 197.672C91.824 197.437 92.6301 197.356 93.4291 197.431C94.228 197.507 95.0041 197.74 95.7131 198.115C96.4221 198.49 97.0501 199.001 97.5613 199.618C98.0724 200.236 98.4567 200.947 98.6921 201.713Z" fill="#2F2E41"/>
<path d="M42.1798 201.68L47.2127 201.68L49.6068 182.31L42.179 182.31L42.1798 201.68Z" fill="#A0616A"/>
<path d="M56.9189 206.343L41.1015 206.343L41.1012 200.245L50.8074 200.245C51.6099 200.245 52.4046 200.402 53.1461 200.709C53.8875 201.015 54.5613 201.464 55.1288 202.031C55.6963 202.597 56.1465 203.269 56.4536 204.009C56.7608 204.749 56.9189 205.542 56.9189 206.343L56.9189 206.343Z" fill="#2F2E41"/>
<path d="M41.8187 145.53C41.4052 145.169 41.0762 144.721 40.8549 144.219C40.6336 143.716 40.5254 143.172 40.5378 142.623C40.5503 142.075 40.6831 141.536 40.927 141.044C41.1708 140.552 41.5198 140.12 41.9492 139.777L45.8513 90.7476L53.7869 92.7259L47.4332 140.553C47.9622 141.311 48.1942 142.236 48.0852 143.153C47.9762 144.071 47.5337 144.916 46.8417 145.53C46.1496 146.143 45.256 146.482 44.3303 146.482C43.4045 146.483 42.5109 146.144 41.8187 145.53Z" fill="#A0616A"/>
<path d="M57.7101 71.7313C63.2787 71.7313 67.7929 67.227 67.7929 61.6706C67.7929 56.1142 63.2787 51.6099 57.7101 51.6099C52.1416 51.6099 47.6274 56.1142 47.6274 61.6706C47.6274 67.227 52.1416 71.7313 57.7101 71.7313Z" fill="#A0616A"/>
<path d="M48.9428 89.2394C46.6677 86.1229 46.5976 81.8306 49.0483 78.8497C50.6477 76.9044 53.3228 75.3477 57.7892 75.3477C69.6942 75.3477 74.2099 84.7689 74.2099 84.7689C74.2099 84.7689 79.1361 93.7806 76.2625 101.973C73.3889 110.165 73.3889 110.985 73.3889 110.985L54.5051 109.346C54.5051 109.346 57.6908 101.223 48.9428 89.2394Z" fill="#CCCCCC"/>
<path d="M43.1196 97.3945L47.1877 84.1142C47.4602 83.225 47.925 82.4063 48.5495 81.716C49.1739 81.0258 49.9426 80.4808 50.8013 80.1195C51.6601 79.7583 52.5878 79.5897 53.519 79.6256C54.4502 79.6615 55.3622 79.901 56.1904 80.3272C57.6274 81.0698 58.7275 82.3299 59.2678 83.8519C59.8082 85.374 59.7482 87.0441 59.1001 88.5236L53.9283 100.276L43.1196 97.3945Z" fill="#CCCCCC"/>
<path d="M72.9783 108.937L88.9884 191.68L80.3676 194.138L59.4312 139.658L49.9894 195.367L40.958 196.595C40.958 196.595 36.9964 122.886 54.5051 109.346L72.9783 108.937Z" fill="#2F2E41"/>
<path d="M96.0211 105.058C95.875 105.232 95.7429 105.417 95.6259 105.611L75.291 106.595L71.3753 94.667L64.5764 97.8913L70.9754 115.657L96.1245 110.75C96.7155 111.393 97.4889 111.842 98.3418 112.037C99.1947 112.231 100.087 112.162 100.899 111.838C101.712 111.515 102.406 110.952 102.891 110.225C103.375 109.498 103.626 108.641 103.61 107.768C103.594 106.895 103.312 106.047 102.802 105.338C102.292 104.629 101.577 104.092 100.753 103.798C99.9295 103.503 99.0355 103.467 98.1902 103.692C97.3448 103.917 96.5883 104.394 96.0211 105.058Z" fill="#A0616A"/>
<path d="M61.7316 85.9587C61.6227 85.0352 61.7184 84.0991 62.0119 83.2165C62.3055 82.334 62.7898 81.5266 63.4305 80.8513C64.0712 80.176 64.8527 79.6494 65.7198 79.3087C66.587 78.968 67.5185 78.8215 68.4486 78.8796C70.0635 78.983 71.5786 79.6954 72.6866 80.8723C73.7946 82.0491 74.4126 83.6024 74.4153 85.2171V98.0526L63.3576 99.7503L61.7316 85.9587Z" fill="#CCCCCC"/>
<path d="M59.9273 71.8225C58.414 71.8159 57.2466 70.2261 57.3144 68.7176C57.3823 67.2091 58.3976 65.8819 59.621 64.993C60.8443 64.1041 62.279 63.5626 63.6432 62.9091C65.0075 62.2555 66.3598 61.4403 67.2021 60.1858C67.7109 59.3647 68.0147 58.4337 68.0878 57.4711C68.1609 56.5084 68.0012 55.5424 67.6222 54.6542C66.8383 52.8777 65.4925 51.4065 63.7907 50.4661C61.2629 48.9896 58.2704 48.5175 55.4093 49.1438C52.5483 49.7701 50.0287 51.4489 48.3524 53.8456L46.6249 58.539C44.8647 60.6511 44.5855 63.7876 45.6675 66.3135C46.7496 68.8394 49.0535 70.7398 51.6533 71.6432C54.291 72.489 57.1147 72.5735 59.7984 71.8869" fill="#2F2E41"/>
<path d="M50.7128 56.1913C49.9702 55.0037 48.6831 54.2484 47.3524 53.8051C45.8108 53.2916 44.1713 53.14 42.5614 53.3622C40.9515 53.5844 39.4147 54.1744 38.0707 55.0861C36.7267 55.9979 35.6118 57.207 34.8127 58.6191C34.0136 60.0312 33.5519 61.6083 33.4636 63.2276C33.3226 65.814 34.1343 68.3434 34.6112 70.8896C35.0881 73.4358 35.183 76.2481 33.776 78.425C32.7044 80.083 30.9172 81.127 29.1533 82.0184C27.6831 82.7613 26.0928 83.4585 24.4516 83.3105C22.8103 83.1625 21.1607 81.8653 21.2043 80.2215C20.6548 81.4001 20.2838 82.6536 20.1034 83.941C19.9879 85.2337 20.3073 86.6286 21.243 87.5301C22.6031 88.8403 24.7581 88.7444 26.6272 88.4617C30.6737 87.8497 34.7711 86.7022 37.9679 84.1524C41.1648 81.6025 43.286 77.4039 42.4442 73.4075C42.0925 71.7381 41.266 70.2141 40.5982 68.6437C39.9303 67.0734 39.4089 65.3557 39.7157 63.6775C39.8973 62.8129 40.2669 61.9986 40.7984 61.2921C41.3298 60.5856 42.0102 60.0042 42.7915 59.5888C44.3716 58.769 46.1797 58.4954 47.9323 58.8109C49.0814 58.999 50.5161 59.2912 51.1976 58.3491C51.3782 58.0506 51.4705 57.7072 51.4637 57.3587C51.4569 57.0101 51.3513 56.6706 51.1592 56.3794C50.766 55.8033 50.2652 55.3083 49.6844 54.9213" fill="#2F2E41"/>
<path d="M126.638 207H0.488754C0.424446 207 0.360728 206.988 0.301261 206.963C0.241794 206.939 0.187745 206.903 0.142206 206.858C0.0966667 206.812 0.0605341 206.758 0.035881 206.699C0.011228 206.64 -0.00146484 206.576 -0.00146484 206.512C-0.00146484 206.448 0.011228 206.384 0.035881 206.325C0.0605341 206.266 0.0966667 206.212 0.142206 206.167C0.187745 206.121 0.241794 206.086 0.301261 206.061C0.360728 206.037 0.424446 206.024 0.488754 206.024H126.638C126.702 206.024 126.766 206.037 126.825 206.061C126.885 206.086 126.939 206.121 126.984 206.167C127.03 206.212 127.066 206.266 127.091 206.325C127.115 206.384 127.128 206.448 127.128 206.512C127.128 206.576 127.115 206.64 127.091 206.699C127.066 206.758 127.03 206.812 126.984 206.858C126.939 206.903 126.885 206.939 126.825 206.963C126.766 206.988 126.702 207 126.638 207Z" fill="#3F3D56"/>
</g>
<defs>
<clipPath id="clip0">
<rect width="326" height="207" fill="white"/>
</clipPath>
</defs>
</svg>
