<svg width="592" height="448" viewBox="0 0 592 448" fill="none" xmlns="http://www.w3.org/2000/svg">
<g clip-path="url(#clip0)">
<path opacity="0.1" d="M6.38989 211.835C15.7563 248.39 35.5871 279.99 66.9283 295.305C132.087 327.14 278.948 310.72 388.572 291.877C445.29 282.127 495.109 255.243 531.321 217.358L6.38989 211.835Z" fill="#F2994A"/>
<path opacity="0.1" d="M581.265 39.7708H521.117C518.255 39.7708 515.913 37.6343 515.913 35.0235C515.913 32.4128 518.25 30.2762 521.117 30.2762H531.524C528.662 30.2762 526.321 28.1397 526.321 25.529C526.321 22.9182 528.657 20.7869 531.524 20.7869H524.099C521.237 20.7869 518.895 18.6504 518.895 16.0396C518.895 13.4289 521.231 11.2924 524.099 11.2924H555.492C548.524 8.33248 540.401 6.23242 531.004 5.13289C445.4 -4.90882 414.834 1.73007 404.037 8.56177C390.615 17.1648 375.686 23.1398 360.04 26.1699C307.224 36.1178 208.45 48.0877 118.923 22.3346C74.4268 9.54144 41.3581 31.1934 21.5325 67.3112H591.709C590.965 56.8058 588.737 47.1028 584.647 38.6139C583.682 39.3691 582.49 39.7766 581.265 39.7708Z" fill="#F2994A"/>
<path opacity="0.1" d="M1.28519 135.534C-1.02268 156.795 -0.235673 178.279 3.62159 199.313L531.722 216.947C546.272 201.723 558.622 184.533 568.412 165.878L1.28519 135.534ZM210.141 181.032H199.734C202.591 181.032 204.937 183.169 204.937 185.779C204.937 188.39 202.596 190.522 199.734 190.522H139.612C136.755 190.522 134.408 188.39 134.408 185.779C134.408 183.169 136.75 181.032 139.612 181.032H150.019C147.162 181.032 144.815 178.896 144.815 176.285C144.815 173.674 147.157 171.538 150.019 171.538H142.583C139.726 171.538 137.379 169.406 137.379 166.796C137.379 164.185 139.721 162.048 142.583 162.048H202.731C205.593 162.048 207.935 164.185 207.935 166.796C207.935 169.406 205.598 171.538 202.731 171.538H210.141C213.003 171.538 215.345 173.674 215.345 176.285C215.345 178.896 213.019 181.032 210.141 181.032Z" fill="#F2994A"/>
<path opacity="0.1" d="M591.734 67.6396L15.1788 80.4431C8.15394 96.9049 3.50715 115.514 1.36328 134.805H581.629C585.407 123.517 588.21 111.925 590.007 100.157C591.734 88.8173 592.427 77.8532 591.734 67.6396ZM118.428 109.594H108.021C110.878 109.594 113.224 111.73 113.224 114.341C113.224 116.952 110.883 119.088 108.021 119.088H47.878C45.0212 119.088 42.6744 116.952 42.6744 114.341C42.6744 111.73 45.016 109.594 47.878 109.594H58.2851C55.4284 109.594 53.0816 107.462 53.0816 104.852C53.0816 102.241 55.4232 100.104 58.2851 100.104H50.8492C47.9925 100.104 45.6457 97.9679 45.6457 95.3572C45.6457 92.7464 47.9873 90.6099 50.8492 90.6099H110.997C113.859 90.6099 116.201 92.7464 116.201 95.3572C116.201 97.9679 113.864 100.104 110.997 100.104H118.428C121.285 100.104 123.632 102.241 123.632 104.852C123.632 107.462 121.285 109.594 118.428 109.594Z" fill="#D62828"/>
<path opacity="0.1" d="M345.694 399.6C367.314 399.6 384.841 395.659 384.841 390.798C384.841 385.937 367.314 381.997 345.694 381.997C324.074 381.997 306.548 385.937 306.548 390.798C306.548 395.659 324.074 399.6 345.694 399.6Z" fill="#F2994A"/>
<path opacity="0.1" d="M436.658 424.555C475.662 424.555 507.281 421.956 507.281 418.75C507.281 415.544 475.662 412.945 436.658 412.945C397.654 412.945 366.035 415.544 366.035 418.75C366.035 421.956 397.654 424.555 436.658 424.555Z" fill="#F2994A"/>
<path opacity="0.1" d="M153.099 418.75C192.103 418.75 223.722 414.81 223.722 409.949C223.722 405.088 192.103 401.147 153.099 401.147C114.096 401.147 82.4766 405.088 82.4766 409.949C82.4766 414.81 114.096 418.75 153.099 418.75Z" fill="#F2994A"/>
<path opacity="0.1" d="M260.777 374.691C290.125 374.691 313.916 370.75 313.916 365.889C313.916 361.028 290.125 357.088 260.777 357.088C231.429 357.088 207.638 361.028 207.638 365.889C207.638 370.75 231.429 374.691 260.777 374.691Z" fill="#F2994A"/>
<path d="M300.485 156.504C299.361 148.927 292.488 131.246 292.488 131.246C292.368 130.725 292.233 130.204 292.082 129.682C287.206 112.903 280.457 111.444 280.457 111.444L256.281 106.233C256.484 106.359 256.66 106.524 256.801 106.717C256.674 106.729 256.547 106.748 256.422 106.775C255.315 105.466 254.583 103.881 254.304 102.189C254.257 101.939 254.215 101.668 254.184 101.412C255.92 99.7175 257.275 97.6704 258.156 95.4083C259.038 93.1462 259.426 90.7215 259.295 88.2968C259.164 85.8722 258.516 83.5036 257.396 81.3501C256.276 79.1965 254.709 77.3077 252.8 75.8105C252.545 75.6125 252.28 75.4197 252.025 75.2373C253.164 74.0231 253.201 72.3347 252.347 70.6463C250.443 66.6859 246.301 64.1794 242.044 62.9548C238.792 62.022 235.279 61.7198 232.043 62.7411C230.206 63.3248 228.53 64.3045 226.808 65.1747C223.597 66.7797 220.043 68.0512 217.645 70.6932C217.083 71.3081 216.562 72.095 216.729 72.9079C216.854 73.5124 217.332 73.9814 217.639 74.5181C218.331 75.7219 218.16 77.2383 217.686 78.5515C217.213 79.8647 216.521 81.0841 216.193 82.4285C215.865 83.773 215.99 85.3571 216.999 86.3212C217.483 86.6953 217.987 87.0432 218.508 87.3634C219.061 87.8349 219.546 88.3802 219.95 88.984C220.907 90.2694 221.861 91.56 222.812 92.8559C224.154 94.5733 225.353 96.3981 226.397 98.3118C227.11 99.7188 227.661 101.22 228.614 102.481C228.893 102.849 229.212 103.184 229.566 103.481L229.285 103.372C229.699 103.793 230.194 104.126 230.741 104.349C231.288 104.572 231.874 104.681 232.464 104.669C232.516 104.669 232.563 104.669 232.61 104.669C232.827 104.665 233.035 104.579 233.193 104.43C233.193 104.607 233.193 104.784 233.193 104.951C233.25 106.811 233.24 108.791 233.11 110.652L232.886 110.537C232.554 110.372 232.182 110.305 231.813 110.343C231.445 110.382 231.095 110.525 230.804 110.756L208.549 128.64C208.549 128.64 203.709 135.269 204.386 146.712L200.483 163.872C200.483 163.872 195.607 178.432 199.359 188.828C203.111 199.224 205.286 205.17 205.286 205.17C205.286 205.17 206.785 216.983 209.038 217.947C211.291 218.911 212.264 219.433 212.264 219.433L212.712 222.257C212.712 222.257 212.862 222.533 213.128 222.997C214.767 225.853 220.84 235.931 224.368 234.852C224.812 237.589 225.003 240.361 224.94 243.132L228.432 266.608C228.432 266.608 230.867 272.992 230.716 276.337C230.565 279.683 233.557 284.451 233.557 284.451C231.739 287.783 231.206 291.668 232.058 295.368C233.484 301.621 235.285 330.428 235.285 330.428L237.886 337.411L237.814 345.597C237.6 346.933 237.044 348.189 236.201 349.245C234.515 351.08 234.639 353.2 230.575 355.707C226.511 358.213 223.936 359.162 223.936 362.481C223.931 362.944 223.889 363.406 223.811 363.862C223.436 366.301 222.708 367.625 230.18 368.333C238.958 369.167 244.812 363.435 244.812 363.435C244.812 363.435 246.103 361.09 252.181 360.142C252.181 360.142 254.262 360.032 254.371 358.193C254.413 357.557 254.403 356.343 254.371 355.003C254.273 352.455 254.028 349.48 253.705 349.334C253.299 349.151 252.592 346.588 252.347 345.66H254.038C254.038 345.66 255.599 333.847 254.038 326.197C252.477 318.547 253.887 313.122 253.887 313.122L253.586 292.919C253.586 292.919 251.504 290.689 253.138 286.749C254.772 282.809 253.138 263.351 253.138 263.351C253.138 263.351 253.742 256.368 255.464 254.732C257.187 253.096 255.547 244.503 255.464 244.055L258.534 254.367C258.534 254.367 259.882 274.868 262.739 278.578L263.561 287.864C263.561 287.864 269.41 296.41 268.286 301.012C267.162 305.613 269.488 322.257 269.488 322.257V339.271C269.488 339.271 266.86 346.103 270.528 348.557L272.09 348.495C271.569 348.979 271.169 349.709 270.56 350.34C269.857 351.064 269.457 353.821 269.233 356.192C269.045 358.198 268.983 359.923 268.983 359.923C268.983 359.923 270.544 362.424 273.484 362.596C276.424 362.768 286.113 370.147 286.113 370.147C286.113 370.147 295.683 370.147 298.159 369.626L298.305 369.589C299.1 369.339 299.769 368.792 300.173 368.062C300.669 367.216 300.829 366.213 300.621 365.254C300.314 363.789 299.153 362.184 296.583 360.819C290.188 357.442 289.235 354.279 289.235 354.279L285.036 347.969H285.634C285.634 347.969 285.265 341.283 289.834 333.779L289.537 300.725C289.537 300.725 291.41 289.36 288.189 283.19C288.189 283.19 287.924 276.655 290.078 274.649C292.233 272.643 287.211 252.366 287.211 252.366C287.211 252.366 286.17 241.481 284.948 231.548C290.011 236.358 295.261 219.042 296.146 215.962H296.276L296.219 215.738C296.255 215.592 296.276 215.519 296.276 215.519C296.276 215.519 295.152 211.517 295.974 212.33C296.796 213.143 298.826 210.1 298.826 210.1C298.826 210.1 298.524 193.534 302.052 185.185C305.58 176.837 300.485 156.504 300.485 156.504ZM285.395 167.046L285.421 166.999C285.941 177.113 285.322 198.698 285.322 198.698C285.322 198.698 284.625 201.465 283.881 204.722L283.361 184.216L282.84 164.899L285.395 167.046ZM220.814 160.073C220.814 160.073 223.363 192.012 220.814 196.618C220.09 197.932 219.481 200.266 218.977 202.929C218.134 200.714 216.349 195.514 216.989 192.757C217.816 189.193 215.339 179.828 215.339 179.61C215.339 179.391 215.116 174.399 216.9 170.584C218.685 166.77 217.514 165.118 217.514 165.118C217.514 165.118 219.013 158.864 220.814 160.073Z" fill="url(#paint0_linear)"/>
<path d="M227.027 232.007C224.805 241.788 215.969 226.999 213.955 223.45C213.695 222.986 213.549 222.715 213.549 222.715L214.507 218.218L219.57 216.134C220.372 216.553 221.131 217.049 221.839 217.614C224.612 219.797 228.739 224.43 227.027 232.007Z" fill="#D38884"/>
<path d="M295.573 216.004C295.573 216.004 295.573 216.077 295.516 216.222C295.516 216.285 295.474 216.368 295.448 216.457C294.579 219.511 289.428 236.702 284.453 231.929C279.01 226.718 281.654 214.67 281.654 214.67H281.69L293.138 213.497L295.407 215.832L295.573 216.004Z" fill="#D38884"/>
<path d="M288.949 300.605L289.241 333.435C284.75 340.887 285.119 347.505 285.119 347.505L270.32 348.088C266.709 345.655 269.28 338.875 269.28 338.875V321.971C269.28 321.971 266.995 305.457 268.099 300.881C269.202 296.306 263.462 287.854 263.462 287.854L262.65 278.635C259.851 274.951 258.524 254.602 258.524 254.602L255.522 244.326C255.605 244.769 257.166 253.346 255.522 254.925C253.877 256.504 253.237 263.476 253.237 263.476C253.237 263.476 254.855 282.799 253.237 286.702C251.619 290.605 253.674 292.825 253.674 292.825L253.971 312.882C253.971 312.882 252.571 318.265 254.117 325.858C255.662 333.451 254.117 345.181 254.117 345.181H238.24L238.313 336.994L235.743 330.063C235.743 330.063 233.974 301.455 232.574 295.259C231.736 291.587 232.257 287.735 234.041 284.42C234.041 284.42 231.101 279.704 231.247 276.384C231.393 273.065 228.978 266.733 228.978 266.733L225.554 243.435C225.648 238.951 225.077 234.478 223.858 230.162C221.87 223.523 218.925 214.821 218.925 214.821L222.25 215.118L239.026 216.613C239.026 216.613 279.817 213.867 281.643 216.15C282.029 216.896 282.289 217.7 282.414 218.531C284.245 226.77 286.665 252.58 286.665 252.58C286.665 252.58 291.598 272.71 289.48 274.701C287.362 276.692 287.622 283.174 287.622 283.174C290.797 289.297 288.949 300.605 288.949 300.605Z" fill="#444053"/>
<path d="M254.465 357.63C254.351 359.459 252.316 359.568 252.316 359.568C246.353 360.506 245.083 362.83 245.083 362.83C245.083 362.83 239.359 368.526 230.726 367.698C223.389 366.989 224.102 365.681 224.482 363.258C224.556 362.806 224.596 362.35 224.602 361.892C224.602 358.573 227.141 357.63 231.117 355.118C235.092 352.606 234.983 350.527 236.638 348.703C238.292 346.879 238.464 343.341 238.464 343.341C240.337 340.074 245.088 343.862 245.088 343.862C245.312 345.019 252.373 344.857 252.373 344.857C252.373 344.857 253.31 348.62 253.794 348.839C254.111 348.985 254.351 351.934 254.444 354.467C254.496 355.795 254.507 356.999 254.465 357.63Z" fill="#B07473"/>
<path opacity="0.1" d="M254.465 357.63C254.351 359.459 252.316 359.568 252.316 359.568C246.353 360.506 245.083 362.83 245.083 362.83C245.083 362.83 239.359 368.526 230.726 367.698C223.389 366.989 224.102 365.681 224.482 363.258C227.76 364.071 234.026 365.207 237.684 363.216C242.768 360.454 246.415 358.526 246.415 358.526L254.45 354.477C254.496 355.796 254.507 356.999 254.465 357.63Z" fill="black"/>
<path d="M299.408 367.473C299.017 368.197 298.36 368.741 297.577 368.99L297.436 369.026C295.006 369.547 285.614 369.547 285.614 369.547C285.614 369.547 276.117 362.195 273.245 362.028C270.372 361.861 268.827 359.37 268.827 359.37C268.827 359.37 268.884 357.661 269.066 355.67C269.29 353.315 269.68 350.579 270.372 349.86C271.642 348.531 271.933 346.733 274.79 347.869C274.79 347.869 278.87 340.668 283.678 346.233L288.653 353.789C288.653 353.789 289.589 356.916 295.891 360.308C298.409 361.663 299.533 363.258 299.851 364.712C300.051 365.655 299.893 366.64 299.408 367.473Z" fill="#B07473"/>
<path opacity="0.1" d="M299.408 367.473C298.846 367.948 298.227 368.458 297.577 368.99L297.436 369.026C295.006 369.547 285.614 369.547 285.614 369.547C285.614 369.547 276.117 362.195 273.245 362.028C270.372 361.861 268.827 359.37 268.827 359.37C268.827 359.37 268.884 357.661 269.066 355.67C271.991 356.546 276.419 358.094 277.605 359.761C279.427 362.299 284.958 365.842 284.958 365.842C284.958 365.842 295.271 364.847 299.851 364.712C300.051 365.655 299.893 366.64 299.408 367.473Z" fill="black"/>
<path d="M259.273 110.157L245.692 124.534C245.692 124.534 229.233 123.32 232.105 118.453C233.568 115.972 233.796 110.782 233.666 106.269C233.547 101.918 233.099 98.2128 233.099 98.2128C233.099 98.2128 256.182 86.7068 254.434 97.4364C254.057 99.4582 254.036 101.53 254.371 103.559C255.355 108.979 259.273 110.157 259.273 110.157Z" fill="#D38884"/>
<path opacity="0.1" d="M254.413 97.4364C254.036 99.4582 254.015 101.53 254.351 103.559C252.772 105.162 250.89 106.433 248.816 107.3C246.741 108.167 244.516 108.612 242.268 108.609C239.146 108.609 235.769 106.04 233.245 104.555C233.125 100.198 233.099 98.2128 233.099 98.2128C233.099 98.2128 256.182 86.7068 254.413 97.4364Z" fill="black"/>
<path d="M259.273 90.6881C259.275 94.5477 257.967 98.2934 255.565 101.312C253.163 104.33 249.808 106.442 246.051 107.301C242.294 108.161 238.356 107.717 234.884 106.043C231.411 104.369 228.609 101.563 226.937 98.0856C225.265 94.6082 224.821 90.6652 225.679 86.9024C226.537 83.1396 228.645 79.78 231.659 77.3741C234.672 74.9681 238.413 73.6582 242.267 73.6591C246.121 73.6601 249.86 74.9716 252.873 77.379C254.869 78.9741 256.48 80.9987 257.588 83.3026C258.696 85.6066 259.272 88.1308 259.273 90.6881Z" fill="#D38884"/>
<path opacity="0.1" d="M282.414 218.531C278.178 228.625 250.932 228.833 250.932 228.833V217.828L249.282 217.718C249.995 220.871 248.283 228.557 248.283 228.557C226.751 231.6 221.5 219.313 221.5 219.313L222.25 215.107L239.026 216.603C239.026 216.603 279.817 213.857 281.643 216.139C282.03 216.889 282.29 217.697 282.414 218.531Z" fill="black"/>
<path d="M250.932 227.504V216.499L249.282 216.394C249.995 219.521 248.283 227.233 248.283 227.233C232.079 229.521 225.096 223.132 222.635 219.829C222.192 219.259 221.812 218.645 221.5 217.994L228.078 180.944L229.639 126.415L231.996 116.848L232.542 112.257V112.205H232.6L234.275 112.924L244.303 117.264L255.693 108.651L255.86 108.531L256.427 108.098L257.369 108.854L259.71 110.735L267.219 159.297C267.219 159.297 280.228 196.686 282.663 211.777C282.762 212.382 282.84 212.945 282.903 213.471C284.511 227.249 250.932 227.504 250.932 227.504Z" fill="#F2994A"/>
<path d="M245.52 119.307C246.055 119.307 246.488 118.873 246.488 118.338C246.488 117.803 246.055 117.369 245.52 117.369C244.986 117.369 244.552 117.803 244.552 118.338C244.552 118.873 244.986 119.307 245.52 119.307Z" fill="#67647E"/>
<path d="M245.968 128.156C246.502 128.156 246.935 127.722 246.935 127.186C246.935 126.651 246.502 126.217 245.968 126.217C245.433 126.217 245 126.651 245 127.186C245 127.722 245.433 128.156 245.968 128.156Z" fill="#67647E"/>
<path d="M246.936 142.481C247.47 142.481 247.904 142.047 247.904 141.512C247.904 140.976 247.47 140.542 246.936 140.542C246.401 140.542 245.968 140.976 245.968 141.512C245.968 142.047 246.401 142.481 246.936 142.481Z" fill="#67647E"/>
<path d="M248.533 157.911C249.068 157.911 249.501 157.477 249.501 156.941C249.501 156.406 249.068 155.972 248.533 155.972C247.998 155.972 247.565 156.406 247.565 156.941C247.565 157.477 247.998 157.911 248.533 157.911Z" fill="#67647E"/>
<path d="M249.501 172.397C250.035 172.397 250.469 171.964 250.469 171.428C250.469 170.893 250.035 170.459 249.501 170.459C248.966 170.459 248.533 170.893 248.533 171.428C248.533 171.964 248.966 172.397 249.501 172.397Z" fill="#67647E"/>
<path d="M250.469 187.827C251.003 187.827 251.437 187.393 251.437 186.858C251.437 186.323 251.003 185.889 250.469 185.889C249.934 185.889 249.501 186.323 249.501 186.858C249.501 187.393 249.934 187.827 250.469 187.827Z" fill="#67647E"/>
<path d="M250.084 203.091C250.618 203.091 251.051 202.657 251.051 202.121C251.051 201.586 250.618 201.152 250.084 201.152C249.549 201.152 249.116 201.586 249.116 202.121C249.116 202.657 249.549 203.091 250.084 203.091Z" fill="#67647E"/>
<path opacity="0.1" d="M233.188 186.332C233.188 186.332 232.105 200.522 230.118 204.649C228.13 208.776 227.245 220.355 227.245 220.355L222.63 219.834C222.187 219.265 221.807 218.65 221.495 217.999L228.073 180.949L229.634 126.42L231.996 116.848L232.543 112.257L232.605 112.231C232.863 112.109 233.145 112.048 233.43 112.052C233.715 112.057 233.995 112.127 234.249 112.257L234.468 112.371C234.402 112.559 234.339 112.752 234.281 112.95C232.48 118.593 231.809 128.995 231.809 128.995C231.809 128.995 234.411 148.02 234.681 156.869C234.952 165.717 233.188 186.332 233.188 186.332Z" fill="black"/>
<path opacity="0.1" d="M221.839 217.629C221.788 217.748 221.729 217.863 221.662 217.973C219.872 221.001 215.334 222.924 213.955 223.45C213.695 222.986 213.549 222.715 213.549 222.715L214.507 218.218L219.57 216.134C220.372 216.558 221.132 217.059 221.839 217.629Z" fill="black"/>
<path d="M209.574 145.217L205.375 147.723L201.55 164.758C201.55 164.758 196.763 179.208 200.442 189.531C204.121 199.855 206.259 205.764 206.259 205.764C206.259 205.764 207.732 217.489 209.943 218.448C212.155 219.406 213.107 219.922 213.107 219.922L213.549 222.726C213.549 222.726 219.544 220.688 221.662 217.098C223.78 213.508 220.101 204.591 220.101 204.591C220.101 204.591 216.937 196.994 217.749 193.455C218.56 189.917 216.125 180.626 216.125 180.428C216.125 180.23 215.907 175.264 217.686 171.465C219.466 167.666 218.279 166.045 218.279 166.045L217.171 155.206L209.574 145.217Z" fill="#67647E"/>
<path opacity="0.1" d="M282.762 215.342C282.762 215.342 271.642 219.542 268.109 215.863C264.576 212.184 264.94 194.92 264.94 194.92C264.94 194.92 261.558 163.064 259.419 157.833C257.28 152.601 258.378 114.841 258.378 114.841C258.378 114.841 256.942 109.959 255.688 108.682C255.609 108.6 255.52 108.528 255.423 108.468L255.854 108.562L257.364 108.885L259.705 110.766L267.214 159.328C267.214 159.328 280.223 196.717 282.658 211.809L282.762 215.342Z" fill="black"/>
<path opacity="0.1" d="M295.573 216.447H295.448C294.049 216.629 281.695 218.125 281.643 215.55C281.641 215.253 281.657 214.955 281.69 214.659L293.138 213.487L295.407 215.821C295.448 215.972 295.48 216.103 295.511 216.207L295.573 216.447Z" fill="black"/>
<path d="M283.72 128.156L291.837 132.397C291.837 132.397 298.602 149.938 299.684 157.457C299.684 157.457 304.695 177.603 301.245 185.889C297.795 194.174 298.081 210.621 298.081 210.621C298.081 210.621 296.094 213.643 295.282 212.835C294.47 212.028 295.578 216.004 295.578 216.004C295.578 216.004 281.701 217.848 281.643 215.118C281.586 212.387 284.828 199.339 284.828 199.339C284.828 199.339 285.713 168.296 284.458 163.429C283.204 158.562 283.72 128.156 283.72 128.156Z" fill="#67647E"/>
<path opacity="0.1" d="M259.497 161.22C259.497 161.22 254.928 172.424 253.456 173.163C251.983 173.903 253.752 176.848 253.752 176.848C253.752 176.848 262.073 165.201 259.497 161.22Z" fill="black"/>
<path opacity="0.1" d="M256.77 121.918C256.822 121.704 251.322 127.322 249.849 128.171C248.377 129.021 255.225 128.119 256.77 121.918Z" fill="black"/>
<path opacity="0.1" d="M241.456 160.334C241.456 160.334 233.063 165.769 234.171 167.921C235.28 170.073 241.456 160.334 241.456 160.334Z" fill="black"/>
<path opacity="0.1" d="M256.697 239.672C256.697 239.672 263.842 244.274 274.957 245.404L256.697 239.672Z" fill="black"/>
<path opacity="0.1" d="M239.541 250.735C239.541 250.735 246.165 259.073 249.189 259.287C252.212 259.5 239.541 250.735 239.541 250.735Z" fill="black"/>
<path opacity="0.1" d="M248.819 283.409C248.523 283.555 245.062 290.928 241.534 291.152C238.006 291.376 248.819 283.409 248.819 283.409Z" fill="black"/>
<path opacity="0.1" d="M279.52 299.563C279.52 299.563 286.087 298.088 287.549 302.804C287.549 302.789 287.107 301.314 279.52 299.563Z" fill="black"/>
<path opacity="0.1" d="M275.103 326.535C275.103 326.535 283.059 324.91 284.75 327.124C286.441 329.339 275.103 326.535 275.103 326.535Z" fill="black"/>
<path opacity="0.1" d="M252.597 330.308C252.597 330.381 244.5 331.934 244.792 332.966C245.083 333.998 253.43 333.852 253.726 332.226C253.779 332.026 253.792 331.817 253.764 331.612C253.736 331.406 253.667 331.209 253.562 331.031C253.457 330.852 253.318 330.696 253.152 330.572C252.986 330.448 252.798 330.359 252.597 330.308Z" fill="black"/>
<path opacity="0.1" d="M272.454 337.301C272.454 337.301 285.759 335.676 284.942 338.479C284.125 341.283 272.454 337.301 272.454 337.301Z" fill="black"/>
<path opacity="0.1" d="M202.799 173.163C202.872 173.382 211.562 174.565 212.738 177.369C212.738 177.369 204.199 173.382 202.851 173.382" fill="black"/>
<path opacity="0.1" d="M215.022 195.946C215.022 195.946 207.805 198.234 208.32 201.678C208.835 205.123 207.586 200.084 215.022 195.946Z" fill="black"/>
<path opacity="0.1" d="M211.66 213.497C211.66 213.497 214.288 209.886 216.791 210.548C219.294 211.209 211.66 213.497 211.66 213.497Z" fill="black"/>
<path opacity="0.1" d="M252.873 77.379C252.62 77.6246 252.337 77.8366 252.03 78.0096C249.948 79.2237 249.376 81.0945 248.387 83.2519C247.466 85.2269 246.451 87.3165 244.594 88.4369C242.195 89.8856 239.036 89.354 236.544 90.6151C235.437 91.192 234.529 92.0875 233.935 93.1863C233.342 94.285 233.09 95.5367 233.214 96.7798C233.372 97.7391 233.609 98.6837 233.921 99.6042C234.488 101.597 234.744 103.666 234.681 105.738C234.686 105.798 234.686 105.859 234.681 105.92C232.548 104.853 230.664 103.349 229.149 101.505C227.635 99.6617 226.524 97.5198 225.89 95.2185C225.255 92.9173 225.111 90.5082 225.466 88.1475C225.821 85.7869 226.668 83.5274 227.952 81.5157C229.236 79.504 230.927 77.7851 232.917 76.4705C234.907 75.1559 237.151 74.275 239.503 73.885C241.855 73.4949 244.262 73.6044 246.569 74.2063C248.876 74.8083 251.031 75.8892 252.893 77.379H252.873Z" fill="black"/>
<path d="M252.43 72.2513C250.562 68.3222 246.498 65.8313 242.32 64.6171C239.13 63.6948 235.665 63.3925 232.501 64.4087C230.695 64.9819 229.056 65.972 227.365 66.8214C224.211 68.416 220.746 69.6771 218.373 72.2982C217.816 72.9079 217.332 73.6896 217.473 74.4973C217.593 75.0966 218.061 75.5395 218.363 76.0919C219.044 77.2904 218.883 78.7964 218.41 80.0992C217.936 81.402 217.265 82.6109 216.942 83.9502C216.619 85.2894 216.744 86.8579 217.733 87.8116C218.175 88.2337 218.743 88.4994 219.221 88.8538C219.762 89.3218 220.237 89.8618 220.631 90.4588L223.441 94.3045C224.761 96.0088 225.938 97.8198 226.959 99.7188C227.656 101.115 228.197 102.606 229.134 103.851C230.071 105.097 231.528 106.097 233.078 105.962C233.198 105.965 233.318 105.939 233.426 105.888C233.534 105.836 233.629 105.76 233.703 105.665C233.76 105.543 233.787 105.409 233.781 105.274C233.849 103.21 233.598 101.148 233.037 99.1612C232.724 98.2409 232.487 97.2962 232.329 96.3368C232.209 95.0942 232.462 93.844 233.055 92.7459C233.649 91.6478 234.555 90.7518 235.659 90.1722C238.157 88.9111 241.316 89.4426 243.709 87.9992C245.572 86.8736 246.587 84.7839 247.503 82.7881C248.507 80.6307 249.064 78.76 251.145 77.5458C253.227 76.3316 253.466 74.3201 252.43 72.2513Z" fill="#585268"/>
<path opacity="0.1" d="M244.812 350.663C244.812 350.663 247.414 353.982 246.738 355.874C246.061 357.765 244.812 350.663 244.812 350.663Z" fill="black"/>
<path opacity="0.1" d="M280.015 358.969C280.015 358.969 280.592 354.519 282.908 354.477C285.223 354.435 285.338 354.237 287.107 354.92C288.876 355.603 290.536 356.661 290.005 356.817C289.475 356.973 286.961 354.274 284.38 355.655C282.77 356.538 281.298 357.654 280.015 358.969Z" fill="black"/>
<path opacity="0.1" d="M237.049 122.846L244.334 117.733C244.334 117.733 233.677 111.428 232.407 112.314C231.137 113.2 230.263 121.173 230.263 121.173L237.049 122.846Z" fill="black"/>
<path d="M237.017 122.517L244.302 117.306C244.302 117.306 233.645 111.001 232.376 111.887C231.106 112.773 230.232 121.183 230.232 121.183L237.017 122.517Z" fill="#E1E7EF"/>
<path d="M237.017 122.517L244.302 117.306C244.302 117.306 233.645 111.001 232.376 111.887C231.106 112.773 230.232 121.183 230.232 121.183L237.017 122.517Z" fill="#F2994A"/>
<path d="M233.583 111.928L233.365 111.819C233.04 111.653 232.673 111.585 232.311 111.623C231.948 111.661 231.603 111.803 231.32 112.033L209.465 129.787C209.465 129.787 204.714 136.368 205.375 147.723L218.264 166.009C218.264 166.009 219.736 159.818 221.5 160.996C221.5 160.996 224.003 192.705 221.5 197.275C218.998 201.845 217.894 218.953 217.894 218.953L226.361 219.912C226.361 219.912 227.245 208.333 229.233 204.206C231.221 200.079 232.303 185.889 232.303 185.889C232.303 185.889 234.093 165.274 233.796 156.426C233.5 147.577 230.924 128.552 230.924 128.552C230.924 128.552 231.647 117.4 233.583 111.928Z" fill="#67647E"/>
<path opacity="0.1" d="M255.355 119.615L246.275 116.248C246.275 116.248 257.837 103.565 259.284 110.6L255.355 119.615Z" fill="black"/>
<path d="M255.355 119.172L246.275 115.805C246.275 115.805 257.837 103.122 259.284 110.157L255.355 119.172Z" fill="#E1E7EF"/>
<path d="M255.355 119.172L246.275 115.805C246.275 115.805 257.837 103.122 259.284 110.157L255.355 119.172Z" fill="#F2994A"/>
<path opacity="0.1" d="M255.058 108.38C255.189 108.359 255.323 108.388 255.433 108.463L255.058 108.38Z" fill="black"/>
<path d="M255.932 107.499L280.025 112.71C280.025 112.71 286.654 114.185 291.442 130.85C296.229 147.515 284.885 167.932 284.885 167.932L282.382 165.8L283.636 214.466C283.636 214.466 272.516 218.666 268.983 214.987C265.45 211.308 265.819 194.029 265.819 194.029C265.819 194.029 262.432 162.179 260.293 156.941C258.154 151.704 259.252 113.955 259.252 113.955C259.252 113.955 257.285 107.207 255.932 107.499Z" fill="#67647E"/>
<path opacity="0.1" d="M277.975 138.51C277.637 138.823 277.241 153.549 278.714 164.758C279.614 171.584 281.005 178.336 282.877 184.961L280.691 140.058C280.691 140.058 279.005 137.551 277.975 138.51Z" fill="black"/>
<path opacity="0.1" d="M275.03 125.826C275.618 126.196 278.198 132.314 277.017 134.821C275.836 137.327 275.03 125.826 275.03 125.826Z" fill="black"/>
<path opacity="0.1" d="M252.29 72.2513C251.107 69.9189 249.265 67.9869 246.993 66.6964C248.682 67.9078 250.046 69.519 250.963 71.3863C252.004 73.4707 251.697 75.5552 249.673 76.6964C247.648 77.8376 247.019 79.7813 246.03 81.9387C245.109 83.9137 244.094 86.0033 242.232 87.1498C239.838 88.5984 236.679 88.0617 234.182 89.3228C233.078 89.9043 232.172 90.8015 231.579 91.9002C230.986 92.9989 230.733 94.2494 230.851 95.4927C231.011 96.4504 231.25 97.3933 231.564 98.3118C232.131 100.305 232.387 102.374 232.324 104.445C232.329 104.58 232.3 104.715 232.241 104.836C232.169 104.932 232.075 105.009 231.967 105.06C231.86 105.112 231.741 105.137 231.621 105.133C230.997 105.181 230.371 105.064 229.805 104.794C230.215 105.201 230.703 105.52 231.24 105.73C231.777 105.941 232.351 106.039 232.928 106.019C233.021 106.033 233.117 106.024 233.207 105.995C233.297 105.965 233.379 105.915 233.447 105.849C233.514 105.782 233.566 105.701 233.596 105.611C233.627 105.521 233.637 105.425 233.625 105.331C233.692 103.26 233.438 101.191 232.87 99.1977C232.553 98.2783 232.314 97.3334 232.157 96.3733C232.038 95.1307 232.291 93.8804 232.884 92.7824C233.477 91.6843 234.384 90.7882 235.488 90.2086C237.985 88.9476 241.144 89.4791 243.538 88.0356C245.4 86.91 246.415 84.8204 247.331 82.8246C248.335 80.6672 248.892 78.7964 250.974 77.5823C253.055 76.3681 253.331 74.3201 252.29 72.2513Z" fill="black"/>
<path d="M400.524 137.692C393.354 137.551 387.026 132.481 383.441 126.285C382.5 124.811 381.909 123.14 381.713 121.402C381.738 121.007 381.804 120.616 381.911 120.235C382.13 119.653 382.304 119.056 382.431 118.447C382.46 118.205 382.46 117.96 382.431 117.718C382.431 117.718 382.431 117.718 382.431 117.676C382.603 116.358 381.828 115.071 380.87 114.169C379.913 113.268 378.711 112.606 377.712 111.709C374.631 109 373.694 104.654 373.637 100.516V100.297C373.674 98.5255 373.814 96.7485 373.799 94.9768C373.823 93.971 373.779 92.9647 373.668 91.9648C373.372 89.4583 372.42 86.9048 370.453 85.305C365.322 81.1362 356.694 85.477 351.382 81.5374C350.091 80.5734 349.045 79.1508 347.479 78.7756C346.298 78.489 345.07 78.8746 343.914 79.2602C340.001 80.5526 335.635 82.2514 334.106 86.0346C333.231 88.2076 333.476 90.6881 332.675 92.8871C332.154 94.3619 331.16 95.6282 330.437 97.0247C329.843 98.0761 329.555 99.2728 329.605 100.48C329.54 101.104 329.628 101.736 329.86 102.319C330.131 103.023 330.569 103.65 331.134 104.148C330.93 104.583 330.675 104.993 330.375 105.368C329.376 106.592 327.841 107.452 326.8 108.671C324.875 110.907 324.947 113.945 325.894 116.571C326.841 119.198 328.553 121.59 329.735 124.148C330.255 125.258 330.65 126.498 330.125 127.603C329.755 128.369 328.991 128.953 328.397 129.615C327.529 130.589 326.984 131.809 326.836 133.106C315.123 135.785 315.113 145.211 315.113 145.211L308.785 161.147C308.785 161.147 307.77 163.83 306.579 167.374L299.091 166.03L304.294 174.753C303.311 178.307 302.614 181.6 302.843 183.257C302.843 183.257 300.517 194.201 304.653 196.113L313.78 200.225C314.176 200.467 314.601 200.658 315.045 200.793L315.414 200.959C315.547 201.024 315.693 201.057 315.841 201.057C315.989 201.057 316.135 201.024 316.268 200.959H316.294H316.393C316.57 200.971 316.747 200.945 316.913 200.881C317.116 200.772 317.277 200.597 317.371 200.386C317.368 200.369 317.368 200.351 317.371 200.334L320.103 199.542L322.418 202.288C323.459 203.023 324.5 203.659 325.483 204.232L321.898 239.886C321.898 239.886 321.32 287.307 319.572 298.114C318.927 302.116 318.922 304.847 319.166 306.702L319.099 306.817C319.53 309.865 320.66 310.464 320.66 310.464V310.423C320.68 310.439 320.703 310.453 320.727 310.464C321.254 309.08 321.88 307.736 322.601 306.442C322.601 306.697 322.601 306.963 322.601 307.223C322.564 311.246 322.439 316.879 322.023 320.543C321.315 326.796 323.834 347.406 323.834 347.406L324.703 366.165C324.844 369.351 324.106 372.513 322.569 375.306C320.488 379.052 317.829 384.326 317.636 386.666C317.626 386.792 317.626 386.92 317.636 387.046L313.172 392.424C313.172 392.424 311.428 395.123 315.368 396.212C317.485 396.801 321.138 396.212 324.073 395.519C325.354 395.224 326.498 394.503 327.317 393.473C328.136 392.443 328.583 391.166 328.585 389.85C329.326 387.266 330.579 384.857 332.269 382.768L333.002 387.088L337.915 388.307L338.544 376.468C338.798 375.803 338.913 375.094 338.883 374.383C339.85 365.962 336.603 366.718 336.603 366.718C336.69 366.792 336.746 366.896 336.759 367.01L336.603 366.723C334.61 362.784 335.563 356.301 335.563 356.301C335.563 356.301 338.164 337.541 339.054 332.585C339.694 329.084 339.429 317.619 339.216 311.22C339.216 310.954 339.216 310.699 339.19 310.444C346.808 310.345 356.143 310.089 362.694 309.454V310.225L361.487 354.545C361.404 357.371 360.83 360.16 359.79 362.789C359.79 362.841 359.754 362.888 359.733 362.94C358.297 366.652 357.486 370.577 357.334 374.555L356.772 388.625V389.016C355.794 389.391 354.249 390.48 354.207 393.638C354.139 398.266 362.283 396.723 362.283 396.723C370.421 396.723 370.489 388.24 370.489 388.24C370.489 388.24 370.744 380.459 371.134 375.254C371.525 370.048 369.906 371.194 369.906 371.194L369.781 386.004C369.781 386.04 369.781 386.077 369.781 386.119V373.138L369.906 371.257V371.205V370.803L370.931 355.53C370.931 355.53 378.43 330.079 379.59 325.196C380.417 321.726 380.074 311.272 379.803 305.493C379.803 305.227 379.803 304.972 379.762 304.727C382.088 304.519 384.143 304.498 384.965 304.498H385.345C385.345 304.498 384.96 263.622 383.987 248.218C383.014 232.815 381.469 218.719 377.592 214.477C375.25 211.913 371.988 203.997 369.787 198.135C374.414 200.138 379.216 201.708 384.133 202.825C396.408 205.399 394.727 194.727 394.727 194.727L393.484 174.544H393.567C393.521 169.258 393.069 163.982 392.214 158.765C391.563 154.763 390.57 150.626 389.05 147.301C390.382 146.78 391.699 146.222 392.989 145.649C396.325 144.174 400.082 142.085 400.56 138.484H400.399C400.463 138.224 400.505 137.959 400.524 137.692ZM324.432 166.874C324.458 168.958 324.38 172.575 324.255 176.572L320.358 171.36L324.266 165.013L324.432 166.874ZM378.279 185.342L371.785 183.257C372.936 181.458 374.282 179.791 375.797 178.286L376.359 177.765L376.156 177.807L376.468 177.52L376.655 177.478L376.359 177.765L376.712 177.692C377.103 179.326 377.859 180.849 378.924 182.147C381.255 184.696 378.284 185.342 378.284 185.342H378.279Z" fill="url(#paint1_linear)"/>
<path d="M338.831 372.935L338.071 387.359L333.226 386.145L332.207 380.147L338.831 372.935Z" fill="#A27772"/>
<path opacity="0.1" d="M338.831 372.935L338.071 387.359L333.226 386.145L332.207 380.147L338.831 372.935Z" fill="black"/>
<path d="M356.611 389.271L364 390.803L369.48 385.957V372.299L369.605 370.433V370.376V369.98L370.625 354.8C370.625 354.8 378.019 329.532 379.169 324.68C379.981 321.241 379.642 310.861 379.372 305.123C379.262 302.773 379.169 301.199 379.169 301.199L362.856 297.244L362.512 309.803L361.321 353.805C361.238 356.61 360.673 359.379 359.65 361.991L359.593 362.143C358.174 365.828 357.374 369.723 357.225 373.669L356.674 387.661V388.047L356.611 389.271Z" fill="#CC818C"/>
<path opacity="0.1" d="M356.611 389.271L364 390.803L369.48 385.957V384.795C369.462 385.052 369.381 385.301 369.244 385.519C369.107 385.737 368.918 385.918 368.694 386.046L368.616 386.093C366.071 387.44 363.187 388.011 360.321 387.734L357.439 387.489C357.176 387.514 356.918 387.577 356.674 387.677V388.062L356.611 389.271Z" fill="black"/>
<path d="M368.616 386.473L368.694 386.431C368.934 386.296 369.135 386.099 369.274 385.861C369.414 385.623 369.489 385.353 369.49 385.076L369.61 370.376C369.61 370.376 371.202 369.235 370.817 374.404C370.432 379.574 370.182 387.296 370.182 387.296C370.182 387.296 370.12 395.717 362.091 395.717C362.091 395.717 354.061 397.25 354.124 392.653C354.186 388.057 357.439 387.87 357.439 387.87L360.321 388.12C363.188 388.397 366.072 387.824 368.616 386.473Z" fill="#B07473"/>
<path d="M318.126 386.145C318.313 389.464 328.064 387.547 328.064 387.547L334.626 374.79C334.626 374.79 340.105 370.574 337.363 366.874C337.216 366.673 337.083 366.462 336.962 366.244C336.962 366.244 336.962 366.244 336.936 366.212C336.879 366.119 336.827 366.02 336.775 365.915C334.808 362.007 335.776 355.598 335.776 355.598C335.776 355.598 338.321 336.963 339.216 332.049C339.845 328.578 339.585 317.192 339.377 310.824C339.294 308.177 339.216 306.4 339.216 306.4L323.027 302.059C323.027 302.059 323.027 304.081 323.027 306.895C322.991 310.892 322.866 316.483 322.455 320.121C321.758 326.306 324.24 346.791 324.24 346.791L325.098 365.431C325.247 368.589 324.527 371.727 323.017 374.503C320.987 378.224 318.334 383.466 318.152 385.785C318.133 385.904 318.125 386.024 318.126 386.145Z" fill="#CC818C"/>
<path opacity="0.1" d="M318.126 386.145C318.313 389.464 328.064 387.547 328.064 387.547L334.626 374.79C334.626 374.79 340.105 370.574 337.363 366.874C337.216 366.673 337.083 366.462 336.963 366.244C336.874 368.177 334.756 373.018 334.756 373.018C334.756 373.018 329.339 383.873 327.617 386.358C325.895 388.844 318.412 385.895 318.131 385.79C318.12 385.908 318.118 386.027 318.126 386.145Z" fill="black"/>
<path d="M336.775 365.9C336.775 365.9 339.981 365.155 339.023 373.513C339.059 374.463 338.844 375.405 338.399 376.244C337.954 377.084 337.295 377.79 336.489 378.292C334.194 379.735 330.656 382.841 328.866 388.881C328.867 390.184 328.428 391.449 327.621 392.471C326.813 393.493 325.684 394.211 324.417 394.508C321.523 395.186 317.917 395.78 315.831 395.196C311.944 394.112 313.666 391.434 313.666 391.434L318.126 386.134C318.126 386.134 325.9 389.198 327.617 386.707C329.334 384.217 334.756 373.372 334.756 373.372C334.756 373.372 337.727 366.603 336.775 365.9Z" fill="#B07473"/>
<path opacity="0.1" d="M362.855 298.792L362.512 311.35C366.857 310.928 369.969 310.339 370.499 309.511C371.649 307.729 375.823 306.978 379.372 306.671C379.262 304.321 379.169 302.747 379.169 302.747L362.855 298.792Z" fill="black"/>
<path opacity="0.1" d="M323.027 308.422C323.443 307.571 324.055 306.831 324.812 306.264C326.529 305.311 326.342 312.393 326.342 312.393C326.342 312.393 332.066 312.445 339.377 312.351C339.294 309.704 339.216 307.921 339.216 307.921L323.027 303.586C323.027 303.586 323.059 305.597 323.027 308.422Z" fill="black"/>
<path d="M321.18 310.1C321.18 310.1 323.095 304.889 324.823 303.961C326.55 303.034 326.352 310.084 326.352 310.084C326.352 310.084 368.408 310.47 370.51 307.213C372.612 303.956 384.846 304.149 384.846 304.149C384.846 304.149 384.466 263.565 383.508 248.255C382.551 232.945 381.026 218.963 377.202 214.753C374.73 212.028 371.212 203.21 369.037 197.332C367.856 194.122 367.07 191.783 367.07 191.783L326.93 194.075L326.602 197.332L322.34 240.021C322.34 240.021 321.768 287.114 320.046 297.833C318.323 308.552 321.18 310.1 321.18 310.1Z" fill="#444053"/>
<g opacity="0.1">
<path opacity="0.1" d="M367.242 307.213C369.324 303.961 381.578 304.149 381.578 304.149C381.578 304.149 381.198 263.565 380.241 248.255C379.283 232.945 377.759 218.963 373.934 214.753C371.452 212.017 367.945 203.21 365.77 197.332C364.776 194.633 364.063 192.554 363.865 191.96L366.987 191.783C366.987 191.783 367.773 194.122 368.959 197.332C371.135 203.21 374.647 212.028 377.119 214.753C380.943 218.963 382.473 232.94 383.425 248.255C384.378 263.57 384.768 304.149 384.768 304.149C384.768 304.149 372.534 303.961 370.427 307.213C368.632 309.99 337.686 310.121 328.705 310.095C340.231 310.068 365.619 309.725 367.242 307.213Z" fill="black"/>
<path opacity="0.1" d="M321.555 303.961C322.33 303.529 322.715 304.727 322.908 306.181C322.213 307.442 321.609 308.752 321.102 310.1C321.102 310.1 319.994 309.5 319.541 306.452C320.176 305.363 320.878 304.336 321.555 303.961Z" fill="black"/>
</g>
<path d="M333.585 93.5906C330.807 97.3843 333.617 102.778 330.635 106.467C329.652 107.687 328.137 108.552 327.112 109.75C325.213 111.97 325.286 114.987 326.217 117.593C327.149 120.198 328.819 122.575 330.005 125.118C330.526 126.217 330.911 127.452 330.39 128.546C330.026 129.307 329.272 129.886 328.684 130.542C326.769 132.684 326.717 135.66 327.747 138.182C328.777 140.704 330.744 142.872 332.685 145.008C333.45 145.847 334.418 146.775 335.693 146.749C336.363 146.698 337.011 146.485 337.582 146.129C341.996 143.87 345.371 139.994 347.004 135.307C348.636 130.619 348.4 125.482 346.345 120.964C344.732 117.093 342.041 113.382 342.015 109.292C342.015 106.045 343.68 102.944 343.977 99.7136C344.336 95.7845 342.015 89.5469 337.28 87.8324C337.592 90.3546 334.996 91.6417 333.585 93.5906Z" fill="#585268"/>
<path opacity="0.1" d="M333.585 93.5906C330.807 97.3843 333.617 102.778 330.635 106.467C329.652 107.687 328.137 108.552 327.112 109.75C325.213 111.97 325.286 114.987 326.217 117.593C327.149 120.198 328.819 122.575 330.005 125.118C330.526 126.217 330.911 127.452 330.39 128.546C330.026 129.307 329.272 129.886 328.684 130.542C326.769 132.684 326.717 135.66 327.747 138.182C328.777 140.704 330.744 142.872 332.685 145.008C333.45 145.847 334.418 146.775 335.693 146.749C336.363 146.698 337.011 146.485 337.582 146.129C341.996 143.87 345.371 139.994 347.004 135.307C348.636 130.619 348.4 125.482 346.345 120.964C344.732 117.093 342.041 113.382 342.015 109.292C342.015 106.045 343.68 102.944 343.977 99.7136C344.336 95.7845 342.015 89.5469 337.28 87.8324C337.592 90.3546 334.996 91.6417 333.585 93.5906Z" fill="black"/>
<path opacity="0.1" d="M364.401 231.585C358.838 231.876 353.604 234.274 348.733 236.983C343.862 239.693 339.148 242.762 333.908 244.685" fill="black"/>
<path opacity="0.1" d="M360.946 244.711C355.443 245.237 350.315 247.735 346.506 251.746C345.153 253.179 343.987 254.784 342.577 256.16C340.419 258.27 337.751 259.783 334.834 260.553" fill="black"/>
<path opacity="0.1" d="M362.085 254.701C357.648 255.934 353.631 258.36 350.471 261.715C349.618 262.637 348.842 263.622 347.989 264.545C343.384 269.495 336.879 272.122 330.599 274.607" fill="black"/>
<path d="M361.612 116.165C361.735 120.616 362.117 125.057 362.757 129.464C363.277 132.59 364.006 135.404 365.052 136.65C368.111 140.297 350.143 145.17 350.143 145.17L339.533 136.936C339.533 136.936 347.942 129.182 344.024 121.621C340.106 114.06 361.612 116.165 361.612 116.165Z" fill="#CC818C"/>
<path opacity="0.1" d="M326.592 197.332H369.027C367.846 194.122 367.06 191.783 367.06 191.783L326.92 194.075L326.592 197.332Z" fill="black"/>
<path d="M323.86 196.566H369.23C367.955 191.996 369.23 187.77 371.046 184.518C372.319 182.24 373.92 180.161 375.797 178.349L376.109 178.062L391.949 174.55L392.802 174.362C392.802 174.362 392.932 145.519 382.733 141.558C372.534 137.598 366.42 132.246 366.42 132.246L352.407 136.582L342.083 131.371C338.768 134.94 329.974 133.539 329.974 133.539C315.576 135.196 315.576 146.045 315.576 146.045C315.576 146.045 323.985 165.696 324.625 165.696C325.265 165.696 323.86 196.566 323.86 196.566Z" fill="#D62828"/>
<path opacity="0.1" d="M339.523 178.229C339.523 178.229 330.271 176.175 327.123 172.585L339.523 178.229Z" fill="black"/>
<path opacity="0.1" d="M386.173 167.468L375.443 176.275C375.521 176.976 375.639 177.672 375.797 178.359L376.109 178.072L391.949 174.56L386.173 167.468Z" fill="black"/>
<path opacity="0.1" d="M357.121 193.502C357.121 193.502 359.468 194.826 363.064 196.566H369.23C367.955 191.996 369.23 187.77 371.046 184.518L360.176 180.996C363.875 184.44 357.121 193.502 357.121 193.502Z" fill="black"/>
<path d="M321.945 142.585L315.576 146.029L309.331 161.855C309.331 161.855 302.832 179.208 303.467 183.804C303.467 183.804 301.177 194.654 305.252 196.566L315.867 201.381C316.055 201.464 316.263 201.487 316.464 201.446C316.665 201.404 316.848 201.302 316.988 201.152C317.128 201.002 317.218 200.812 317.246 200.608C317.273 200.405 317.237 200.198 317.142 200.016C315.628 197.145 313.963 192.653 316.622 190.183L313.562 183.804L324.62 165.68L328.314 159.427L321.945 142.585Z" fill="#D62828"/>
<path opacity="0.1" d="M336.114 174.607C336.666 176.858 338.529 180.339 344.695 181.637L351.46 187.186L358.656 190.454L361.591 191.783L362.835 182.783L360.009 181.22L356.715 179.417C356.715 179.417 349.285 165.936 337.519 171.6C336.973 171.86 336.533 172.302 336.277 172.851C336.02 173.399 335.963 174.02 336.114 174.607Z" fill="black"/>
<path d="M336.499 173.841C337.051 176.097 338.909 179.573 345.075 180.871L351.84 186.42L359.041 189.688L361.971 191.017L363.215 182.017L360.389 180.454L357.121 178.666C357.121 178.666 349.685 165.185 337.92 170.876C337.379 171.131 336.942 171.566 336.684 172.106C336.425 172.646 336.36 173.258 336.499 173.841Z" fill="#CC818C"/>
<path opacity="0.1" d="M349.758 127.838C358.837 127.838 366.196 120.468 366.196 111.376C366.196 102.284 358.837 94.9142 349.758 94.9142C340.68 94.9142 333.32 102.284 333.32 111.376C333.32 120.468 340.68 127.838 349.758 127.838Z" fill="black"/>
<path d="M349.758 127.457C358.837 127.457 366.196 120.087 366.196 110.996C366.196 101.904 358.837 94.5338 349.758 94.5338C340.68 94.5338 333.32 101.904 333.32 110.996C333.32 120.087 340.68 127.457 349.758 127.457Z" fill="#CC818C"/>
<path opacity="0.1" d="M359.941 146.17L354.998 136.551C354.998 136.551 362.231 133.622 362.757 130.23C363.282 126.837 369.688 134.206 368.304 136.65C366.919 139.094 359.941 146.17 359.941 146.17Z" fill="black"/>
<path d="M359.941 145.404L354.998 135.785C354.998 135.785 362.231 132.856 362.757 129.464C363.282 126.071 369.688 133.445 368.304 135.884C366.919 138.322 359.941 145.404 359.941 145.404Z" fill="#D62828"/>
<path d="M319.484 170.256L346.797 207.03C346.797 207.03 336.728 212.517 322.861 202.695L316.871 195.545L299.772 166.681L319.484 170.256Z" fill="#F6F8FB"/>
<path d="M314.108 190.251L316.596 190.183C316.596 190.183 331.79 175.415 335.521 182.887C339.252 190.36 326.056 197.343 326.056 197.343L322.044 199.511L316.814 201.074L313.468 196.577L314.108 190.251Z" fill="#CC818C"/>
<path opacity="0.1" d="M317.777 198.229C318.006 199.078 318.225 200.016 317.839 200.803C317.747 201.013 317.588 201.188 317.387 201.298C317.221 201.362 317.043 201.387 316.866 201.371C315.55 201.259 314.325 200.652 313.437 199.672C312.565 198.696 311.819 197.614 311.215 196.452C310.539 195.269 309.836 193.961 310.076 192.616C310.346 191.152 311.637 190.136 312.901 189.313C315.42 187.645 315.503 189.589 316.055 191.736C316.606 193.883 317.199 196.061 317.777 198.229Z" fill="black"/>
<path d="M317.397 198.229C317.621 199.078 317.845 200.016 317.459 200.803C317.367 201.013 317.208 201.188 317.007 201.298C316.841 201.362 316.663 201.386 316.486 201.371C315.169 201.261 313.943 200.654 313.057 199.672C312.182 198.697 311.433 197.615 310.83 196.452C310.154 195.269 309.451 193.961 309.696 192.616C309.961 191.152 311.257 190.136 312.516 189.313C315.04 187.645 315.118 189.589 315.675 191.736C316.231 193.883 316.814 196.061 317.397 198.229Z" fill="#F2994A"/>
<path opacity="0.1" d="M324.625 165.68L325.894 163.528L324.786 167.525L324.625 165.68Z" fill="black"/>
<path opacity="0.1" d="M359.062 189.688L361.992 191.017L363.235 182.017L360.41 180.454C362.361 182.695 360.654 186.837 359.062 189.688Z" fill="black"/>
<path opacity="0.1" d="M370.822 179.24C370.822 179.24 361.362 179.818 357.345 177.233L370.822 179.24Z" fill="black"/>
<g opacity="0.1">
<path opacity="0.1" d="M369.646 185.284C370.919 183.004 372.52 180.924 374.397 179.109C374.847 178.827 375.315 178.572 375.797 178.349L390.544 175.316L391.397 175.128C391.397 175.128 391.527 146.285 381.334 142.324C375.615 140.147 370.255 137.124 365.431 133.356L366.55 133.012C366.55 133.012 372.664 138.369 382.863 142.324C393.062 146.28 392.927 175.128 392.927 175.128H391.397L376.307 178.02C376.307 178.02 375.656 178.651 375.459 178.833C373.566 180.731 371.943 182.881 370.635 185.222C368.638 188.935 368.184 193.286 369.371 197.332H367.809C366.55 192.762 367.851 188.536 369.646 185.284Z" fill="black"/>
<path opacity="0.1" d="M329.371 134.372C329.615 134.336 329.849 134.299 330.104 134.273C331.139 134.42 332.182 134.506 333.226 134.529C331.939 134.564 330.651 134.512 329.371 134.372Z" fill="black"/>
<path opacity="0.1" d="M351.002 137.348L341.667 132.616C341.852 132.464 342.026 132.299 342.187 132.121L351.928 137.056L351.002 137.348Z" fill="black"/>
</g>
<path d="M386.542 166.681L392.786 174.341L394.061 195.144C394.061 195.144 395.716 205.733 383.612 203.179C371.509 200.626 357.501 192.736 357.501 192.736C357.501 192.736 364.266 183.674 360.561 180.23L377.894 185.847C377.894 185.847 380.823 185.206 378.529 182.658C376.234 180.11 375.828 175.508 375.828 175.508L386.542 166.681Z" fill="#D62828"/>
<path opacity="0.1" d="M389.363 188.656L392.802 192.611C391.917 192.339 391.126 191.824 390.518 191.125C389.911 190.426 389.51 189.571 389.363 188.656Z" fill="black"/>
<path opacity="0.1" d="M383.498 188.015L388.853 194.904L386.178 195.545L383.498 188.015Z" fill="black"/>
<path opacity="0.1" d="M330.125 103.44C329.537 101.996 329.99 100.313 330.697 98.9528C331.405 97.5927 332.378 96.3056 332.909 94.8413C333.695 92.6631 333.455 90.1982 334.314 88.0669C335.828 84.2889 340.131 82.6005 343.987 81.2925C345.127 80.9121 346.339 80.5317 347.505 80.8131C349.066 81.1831 350.081 82.6005 351.356 83.5541C356.59 87.4624 365.103 83.1581 370.167 87.2957C372.102 88.859 373.044 91.4176 373.335 93.9033C373.627 96.389 373.335 98.9111 373.304 101.418C373.221 105.805 374.043 110.605 377.321 113.513C378.31 114.388 379.476 115.045 380.444 115.951C381.411 116.858 382.171 118.124 382.005 119.437C381.877 120.041 381.703 120.633 381.484 121.209C380.834 123.497 381.807 125.899 382.993 127.984C386.532 134.117 392.771 139.172 399.842 139.312C399.369 142.887 395.68 144.961 392.375 146.426C388.213 148.296 383.779 150.131 379.195 149.896C374.61 149.662 369.828 146.723 369.027 142.199C368.751 140.636 368.788 138.755 367.466 137.942C366.654 137.447 365.603 137.572 364.729 137.202C363.464 136.681 362.84 135.258 362.424 133.95C361.571 131.251 361.113 128.443 361.065 125.613C361.008 122.257 361.451 118.593 359.551 115.831C357.792 113.273 354.67 111.975 352.641 109.625C350.768 107.447 348.733 104.82 345.663 104.414C341.417 103.815 332.633 109.594 330.125 103.44Z" fill="black"/>
<path d="M330.125 102.673C329.537 101.23 329.99 99.5469 330.697 98.1868C331.405 96.8267 332.378 95.5396 332.909 94.0752C333.695 91.897 333.455 89.4322 334.314 87.3009C335.828 83.5176 340.131 81.8293 343.987 80.5265C345.127 80.1461 346.339 79.7657 347.505 80.0471C349.066 80.4171 350.081 81.8345 351.356 82.7881C356.59 86.6964 365.103 82.3921 370.167 86.5296C372.102 88.093 373.044 90.6516 373.335 93.1425C373.627 95.6334 373.335 98.1451 373.304 100.652C373.221 105.039 374.043 109.839 377.321 112.746C378.31 113.622 379.476 114.279 380.444 115.185C381.411 116.092 382.171 117.358 382.005 118.671C381.877 119.274 381.703 119.867 381.484 120.443C380.834 122.731 381.807 125.133 382.993 127.218C386.542 133.33 392.755 138.401 399.827 138.541C399.353 142.116 395.664 144.19 392.36 145.66C388.197 147.525 383.763 149.359 379.179 149.125C374.595 148.89 369.813 145.951 369.011 141.428C368.736 139.865 368.772 137.984 367.45 137.171C366.638 136.676 365.587 136.801 364.713 136.431C363.449 135.91 362.824 134.487 362.408 133.179C361.555 130.48 361.097 127.672 361.05 124.841C360.993 121.485 361.435 117.822 359.536 115.06C357.777 112.502 354.655 111.204 352.625 108.854C350.752 106.676 348.717 104.049 345.647 103.643C341.417 103.049 332.633 108.838 330.125 102.673Z" fill="#585268"/>
<path opacity="0.1" d="M341.791 144.977L351.215 137.317C351.215 137.317 344.763 133.815 343.993 130.829C343.222 127.843 338.061 132.246 338.586 134.925C339.112 137.603 341.791 144.977 341.791 144.977Z" fill="black"/>
<path d="M342.161 143.825L351.585 136.17C351.585 136.17 345.132 132.668 344.393 129.682C343.654 126.696 338.461 131.1 338.987 133.778C339.512 136.457 342.161 143.825 342.161 143.825Z" fill="#D62828"/>
<path opacity="0.1" d="M351.954 143.33C352.368 143.33 352.703 142.994 352.703 142.58C352.703 142.165 352.368 141.829 351.954 141.829C351.54 141.829 351.205 142.165 351.205 142.58C351.205 142.994 351.54 143.33 351.954 143.33Z" fill="black"/>
<path opacity="0.1" d="M351.954 147.499C352.368 147.499 352.703 147.163 352.703 146.749C352.703 146.334 352.368 145.998 351.954 145.998C351.54 145.998 351.205 146.334 351.205 146.749C351.205 147.163 351.54 147.499 351.954 147.499Z" fill="black"/>
<path opacity="0.1" d="M351.954 151.663C352.368 151.663 352.703 151.327 352.703 150.912C352.703 150.498 352.368 150.162 351.954 150.162C351.54 150.162 351.205 150.498 351.205 150.912C351.205 151.327 351.54 151.663 351.954 151.663Z" fill="black"/>
<g opacity="0.1">
<path opacity="0.1" d="M333.929 92.0325C334.673 89.9846 334.512 87.6865 335.209 85.6229C334.886 86.0792 334.619 86.5725 334.413 87.0924C333.549 89.2446 333.793 91.7094 333.002 93.8668L332.95 93.9919C333.336 93.3703 333.663 92.7144 333.929 92.0325Z" fill="black"/>
<path opacity="0.1" d="M393.38 143.617C389.217 145.482 384.783 147.317 380.199 147.082C375.615 146.848 370.833 143.909 370.031 139.391C369.755 137.827 369.792 135.941 368.47 135.128C367.658 134.633 366.607 134.758 365.733 134.388C364.469 133.867 363.844 132.444 363.428 131.136C362.574 128.438 362.117 125.629 362.07 122.799C362.012 119.448 362.46 115.785 360.561 113.017C358.797 110.459 355.675 109.166 353.645 106.811C351.772 104.638 349.737 102.006 346.667 101.6C342.457 101.027 333.658 106.811 331.171 100.652C330.772 99.4878 330.829 98.2153 331.332 97.0925C331.15 97.3999 330.973 97.7074 330.812 98.02C330.104 99.4062 329.657 101.069 330.245 102.512C332.748 108.661 341.531 102.882 345.741 103.46C348.811 103.877 350.846 106.509 352.719 108.671C354.748 111.027 357.87 112.319 359.629 114.883C361.534 117.645 361.086 121.308 361.144 124.659C361.191 127.489 361.648 130.298 362.502 132.997C362.918 134.31 363.542 135.717 364.807 136.248C365.681 136.618 366.732 136.499 367.544 136.988C368.886 137.801 368.85 139.703 369.105 141.251C369.917 145.769 374.694 148.708 379.273 148.943C383.852 149.177 388.265 147.348 392.453 145.477C395.471 144.133 398.833 142.272 399.738 139.224C398.292 141.204 395.732 142.569 393.38 143.617Z" fill="black"/>
</g>
<path d="M485.342 173.028C474.327 166.681 470.164 165.118 470.143 165.118L469.914 164.956C468.714 164.033 467.761 162.826 467.14 161.444C467.127 161.192 467.127 160.94 467.14 160.688C467.138 160.712 467.138 160.737 467.14 160.761C467.312 157.4 469.701 154.341 471.964 151.673L477.756 144.852C478.414 144.177 478.923 143.371 479.249 142.486C479.366 142.011 479.419 141.522 479.405 141.032C479.405 140.834 479.405 140.636 479.405 140.438C479.374 138.744 479.327 137.046 479.265 135.352C479.213 133.872 478.833 132.007 477.355 131.704C476.585 131.548 475.565 131.824 475.159 131.183C475.021 130.911 474.986 130.598 475.06 130.303C475.057 130.327 475.057 130.351 475.06 130.375V130.292C475.347 129.149 475.529 127.982 475.607 126.806C475.639 126.207 475.558 125.608 475.367 125.039C474.514 122.585 471.563 121.574 468.956 121.11C466.349 120.646 463.425 120.25 461.791 118.208C461.354 117.526 460.878 116.87 460.365 116.243C459.611 115.572 458.691 115.117 457.701 114.925C454.465 114.126 451.057 114.423 448.007 115.769C446.748 116.332 445.483 117.092 444.099 117.009C442.715 116.926 441.435 115.925 440.019 115.686C437.73 115.295 435.539 116.978 434.41 118.974C433.741 120.157 433.383 121.491 433.369 122.851V123.08C433.336 124.543 433.87 125.962 434.857 127.04C435.846 128.083 437.314 128.77 437.725 130.12C437.891 130.667 437.85 131.261 438 131.819C438.016 131.888 438.037 131.956 438.063 132.022L437.99 132.121C435.628 135.148 434.345 138.879 434.348 142.72C434.373 146.452 435.583 150.078 437.801 153.075C440.02 156.073 443.133 158.286 446.69 159.396C446.69 159.568 446.69 159.74 446.69 159.917C446.69 162.001 446.092 164.174 444.297 165.753L428.691 171.996C428.691 171.996 419.283 170.876 415.89 184.643C415.348 186.929 415.152 189.283 415.308 191.626C415.433 193.711 415.146 197.358 412.706 202.085C408.85 209.651 409.729 227.02 417.618 228.739C425.064 230.365 427.978 229.688 428.285 229.61V229.912C428.16 233.174 426.979 261.283 422.686 264.68C421.5 265.623 421.718 266.243 422.686 266.686C422.686 266.686 422.686 266.869 422.66 267.207C422.53 269.292 421.869 277.108 419.018 281.548C415.682 286.707 416.031 316.462 416.031 316.462L413.757 334.003C413.757 334.003 415.157 344.837 413.757 346.728C412.503 348.411 410.838 388.49 410.489 397.182H410.343C409.654 397.227 408.986 397.44 408.398 397.804C407.811 398.167 407.321 398.669 406.972 399.266C405.129 402.263 398.677 407.802 398.677 407.802C397.277 409.793 392.1 411.7 389.363 412.596C389.002 412.714 388.653 412.868 388.322 413.055C387.297 413.613 386.474 414.481 385.97 415.535C385.789 415.847 385.674 416.193 385.631 416.552C385.588 416.91 385.619 417.273 385.72 417.62C386.417 419.334 400.972 420.543 404.656 418.818C407.549 417.468 419.018 415.691 423.779 414.993C424.644 414.884 425.448 414.49 426.064 413.873C426.68 413.256 427.073 412.451 427.182 411.585C427.228 411.286 427.212 410.981 427.137 410.688C427.062 410.396 426.929 410.121 426.745 409.881C425.834 408.75 425.371 405.66 425.184 403.628C425.571 403.47 425.932 403.256 426.256 402.992C425.858 396.745 426.743 390.483 428.858 384.592C432.365 375.306 433.416 358.109 432.542 346.932C432.542 346.932 443.235 300.845 451.655 296.546C451.785 296.713 455.869 301.96 456.39 318.213C456.91 334.722 462.873 345.556 462.873 345.556C462.873 345.556 460.24 373.586 462.873 384.076L459.434 400.621C459.179 400.407 459.018 400.241 459.018 400.241C459.018 400.241 459.122 400.699 459.262 401.434L459.189 401.788L459.34 401.82C459.731 403.904 460.308 407.494 460.069 409.636C459.933 410.84 459.595 412.492 459.366 414.112C459.002 416.661 458.903 419.131 460.24 419.673C462.436 420.559 475.331 421.757 477.516 418.922C478.008 418.345 478.328 417.64 478.44 416.89C478.553 416.139 478.452 415.372 478.151 414.675C477.994 414.285 477.78 413.92 477.516 413.591C477.516 413.591 474.092 407.99 475.06 404.04C475.15 403.654 475.159 403.253 475.088 402.864C475.018 402.474 474.868 402.103 474.649 401.773C474.8 399.834 475.581 390.861 477.6 383.242C479.795 374.967 484.421 356.822 481.018 344.894C480.89 344.425 480.744 343.966 480.581 343.518C478.617 337.005 477.961 330.167 478.651 323.398C477.387 317.62 477.387 311.636 478.651 305.858C480.758 296.228 482.231 286.77 482.231 286.77C482.231 286.77 483.391 274.044 482.376 266.243C482.376 266.077 482.33 265.91 482.309 265.722L482.86 265.597C482.86 265.597 479.879 252.356 478.828 243.93C478.578 241.939 478.255 239.422 477.901 236.733C478.871 236.572 479.827 236.334 480.758 236.019C490.223 232.752 493.205 203.19 493.205 203.19V193.81C493.205 193.81 496.39 179.391 485.342 173.028ZM414.803 401.397C414.512 401.252 414.34 401.153 414.34 401.153L414.803 401.397Z" fill="url(#paint2_linear)"/>
<path d="M479.629 343.706C483.734 355.53 478.942 374.722 476.715 383.31C474.488 391.898 473.806 402.164 473.806 402.164C465.08 403.534 458.747 401.82 458.747 401.82L462.343 384.17C459.772 373.716 462.343 345.78 462.343 345.78C462.343 345.78 456.525 334.983 456.01 318.531C455.489 302.34 451.519 297.103 451.394 296.942C443.183 301.225 432.745 347.156 432.745 347.156C433.598 358.292 432.568 375.431 429.149 384.675C427.072 390.551 426.2 396.786 426.584 403.008C425.387 404.05 423.722 404.196 421.9 403.904C417.014 403.112 411.155 398.896 411.155 398.896C411.155 398.896 413.034 348.87 414.407 346.973C415.781 345.076 414.407 334.289 414.407 334.289L416.629 316.812C416.629 316.812 416.286 287.161 419.538 282.023C422.348 277.583 422.993 269.777 423.118 267.729C423.118 267.405 423.118 267.207 423.118 267.207L428.072 261.267C428.072 261.267 475.986 257.666 479.587 261.267C480.467 262.148 481.013 264.159 481.336 266.686C482.324 274.461 481.19 287.14 481.19 287.14C481.19 287.14 479.754 296.567 477.698 306.16C476.466 311.923 476.466 317.881 477.698 323.643C477.038 330.393 477.693 337.207 479.629 343.706Z" fill="#65617D"/>
<path d="M476.632 418.849C474.493 421.679 461.916 420.48 459.772 419.6C458.466 419.079 458.565 416.593 458.919 414.055C459.142 412.445 459.47 410.798 459.605 409.6C459.944 406.515 458.565 400.256 458.565 400.256C458.565 400.256 461.385 403.258 462.067 400.256C462.369 398.943 463.42 398.271 464.512 397.932C465.979 397.488 467.556 397.586 468.956 398.208C471.178 399.178 474.883 401.236 474.222 404.019C473.28 407.953 476.616 413.539 476.616 413.539C476.874 413.865 477.085 414.227 477.24 414.613C477.537 415.307 477.637 416.069 477.53 416.817C477.422 417.564 477.112 418.267 476.632 418.849Z" fill="#A27772"/>
<path opacity="0.1" d="M476.631 418.849C474.493 421.679 461.916 420.48 459.772 419.6C458.466 419.079 458.565 416.593 458.919 414.055C460.272 414.691 462.561 415.217 466.396 414.863C467.29 414.778 468.189 414.75 469.086 414.779C471.81 414.902 474.539 414.847 477.256 414.613C477.551 415.308 477.648 416.071 477.538 416.819C477.428 417.566 477.114 418.269 476.631 418.849Z" fill="black"/>
<path opacity="0.1" d="M432.74 347.135C433.593 358.271 432.563 375.41 429.144 384.654C427.067 390.53 426.195 396.765 426.578 402.987C425.382 404.029 423.717 404.175 421.895 403.883C422.936 396.655 427.328 365.514 430.143 340.908C433.354 312.888 448.355 293.612 448.355 293.612L451.347 296.911C443.178 301.204 432.74 347.135 432.74 347.135Z" fill="black"/>
<path d="M471.496 167.02L469.414 177.301L459.179 194.524L446.56 189.125C446.56 189.125 429.388 171.131 440.186 168.562C441.476 168.284 442.695 167.741 443.766 166.968C445.884 165.368 446.55 163.044 446.56 160.766C446.48 158.218 445.889 155.713 444.822 153.398L466.896 146.457C465.994 149.362 465.47 152.371 465.335 155.409C465.163 161.433 467.416 164.398 469.232 165.832C469.903 166.371 470.671 166.774 471.496 167.02Z" fill="#FBBEBE"/>
<path opacity="0.1" d="M466.875 146.457C465.974 149.362 465.449 152.371 465.314 155.409C464.911 155.89 464.482 156.347 464.029 156.78C461.749 158.96 458.924 160.481 455.851 161.183C452.778 161.885 449.573 161.741 446.576 160.766C446.491 158.217 445.894 155.711 444.822 153.398L466.875 146.457Z" fill="black"/>
<path d="M469.409 143.627C469.41 147.085 468.387 150.466 466.469 153.342C464.552 156.217 461.826 158.459 458.636 159.783C455.446 161.107 451.935 161.454 448.548 160.78C445.162 160.106 442.05 158.442 439.608 155.997C437.166 153.552 435.503 150.437 434.829 147.045C434.155 143.654 434.5 140.138 435.822 136.943C437.143 133.748 439.38 131.017 442.251 129.096C445.123 127.175 448.498 126.149 451.951 126.149C454.246 126.138 456.521 126.583 458.644 127.457C460.767 128.332 462.695 129.618 464.319 131.244C465.942 132.869 467.227 134.8 468.101 136.925C468.975 139.051 469.419 141.329 469.409 143.627Z" fill="#FBBEBE"/>
<path opacity="0.1" d="M471.496 167.02L469.414 177.301L459.179 194.524L446.56 189.125C446.56 189.125 429.388 171.131 440.186 168.562C441.476 168.284 442.695 167.741 443.766 166.968C441.82 172.325 449.854 183.471 449.854 183.471C450.791 184.852 452.935 183.992 452.935 183.992C458.112 183.205 467.64 168.296 469.196 165.816C469.876 166.365 470.657 166.774 471.496 167.02Z" fill="black"/>
<path opacity="0.1" d="M481.377 266.697C478.338 267.39 461.526 271.116 455.151 270.183C448.137 269.141 434.498 268.474 434.498 268.474C434.498 268.474 425.814 268.943 423.139 267.718C423.139 267.395 423.139 267.197 423.139 267.197L428.093 261.256C428.093 261.256 476.007 257.656 479.608 261.256C480.508 262.158 481.055 264.169 481.377 266.697Z" fill="black"/>
<path d="M449.849 183.987C449.849 183.987 440.821 171.48 444.224 166.582L428.972 172.835C428.972 172.835 419.793 171.72 416.483 185.441C415.955 187.721 415.763 190.067 415.916 192.403C416.041 194.487 415.76 198.135 413.403 202.825C409.641 210.365 410.494 227.676 418.195 229.401C425.897 231.126 428.629 230.256 428.629 230.256C428.629 230.256 427.588 261.616 423.154 265.217C418.721 268.818 434.498 267.958 434.498 267.958C434.498 267.958 448.137 268.646 455.156 269.672C462.176 270.699 481.851 266.071 481.851 266.071C481.851 266.071 478.942 252.877 477.912 244.482C476.881 236.087 474.482 218.203 474.482 218.203L491.935 194.524C491.935 194.524 495.016 180.214 484.234 173.872C473.452 167.53 469.399 165.977 469.399 165.977C469.399 165.977 458.565 183.643 452.919 184.498C452.929 184.498 450.785 185.363 449.849 183.987Z" fill="#F2994A"/>
<path opacity="0.1" d="M429.825 188.953C429.825 188.953 429.659 194.612 430.684 196.837C431.709 199.062 435.476 211.428 435.476 211.428H426.917C426.917 211.428 431.537 206.457 431.199 204.055C430.861 201.652 429.825 188.953 429.825 188.953Z" fill="black"/>
<path d="M455.156 231.626C455.156 231.626 436.257 226.999 434.498 223.059C432.739 219.12 427.885 210.298 427.885 210.298L429.877 207.609L439.067 214.831C439.067 214.831 449.994 223.57 455.156 224.43C460.318 225.29 455.156 231.626 455.156 231.626Z" fill="#FBBEBE"/>
<path opacity="0.05" d="M455.156 231.626C455.156 231.626 436.257 226.999 434.498 223.059C432.739 219.12 427.885 210.298 427.885 210.298L429.877 207.609L439.067 214.831C439.067 214.831 449.994 223.57 455.156 224.43C460.318 225.29 455.156 231.626 455.156 231.626Z" fill="black"/>
<path d="M471.496 209.349V219.615H469.851C461.708 219.613 453.7 221.69 446.581 225.649L443.49 227.364L442.663 227.828L437.355 215.842L442.319 211.387H442.574C443.787 211.506 449.037 211.944 451.264 211.194C453.377 210.475 455.999 208.197 462.223 209.787C465.288 210.574 467.91 214.013 470.882 212.939L471.496 209.349Z" fill="#FBBEBE"/>
<path opacity="0.1" d="M488.012 190.652L491.431 194.508V203.851C491.431 203.851 488.522 233.325 479.285 236.582C470.049 239.839 453.549 234.696 453.549 234.696C453.549 234.696 449.287 223.388 451.28 222.71C453.273 222.033 468.894 217.895 468.894 217.895C468.894 217.895 468.675 200.605 472.094 195.462C472.094 195.462 469.872 179.354 477.573 179.01C485.275 178.666 488.012 190.652 488.012 190.652Z" fill="black"/>
<path d="M488.532 190.652L491.956 194.508V203.851C491.956 203.851 489.047 233.325 479.806 236.582C470.564 239.839 454.069 234.696 454.069 234.696C454.069 234.696 449.807 223.388 451.805 222.71C453.804 222.033 469.419 217.895 469.419 217.895C469.419 217.895 469.196 200.605 472.62 195.462C472.62 195.462 470.393 179.354 478.094 179.01C485.795 178.666 488.532 190.652 488.532 190.652Z" fill="#F2994A"/>
<path opacity="0.1" d="M464.622 151.048C464.769 149.919 464.635 148.772 464.231 147.707C463.748 146.665 462.618 145.878 461.515 146.144C460.053 146.488 459.434 148.395 457.987 148.854C456.775 149.24 455.453 148.38 454.865 147.249C454.277 146.118 454.272 144.789 454.272 143.518C454.272 142.09 454.272 140.657 454.272 139.224C454.272 137.661 454.22 135.983 453.262 134.758C452.071 133.236 449.266 132.569 447.393 132.632C446.146 132.646 444.951 133.128 444.042 133.982C443.043 134.836 441.882 135.461 440.519 135.237C439.95 135.152 439.418 134.907 438.983 134.531C438.548 134.155 438.229 133.662 438.063 133.111V133.059C439.515 131.126 441.351 129.516 443.457 128.33C445.562 127.145 447.89 126.41 450.294 126.172C452.698 125.934 455.124 126.198 457.421 126.948C459.717 127.698 461.833 128.917 463.635 130.528C465.436 132.139 466.884 134.107 467.887 136.307C468.89 138.508 469.426 140.893 469.461 143.311C469.497 145.73 469.03 148.13 468.091 150.358C467.152 152.587 465.762 154.596 464.008 156.259C464.309 154.535 464.514 152.795 464.622 151.048Z" fill="black"/>
<path d="M440.519 134.732C439.95 134.644 439.417 134.398 438.982 134.021C438.546 133.644 438.226 133.152 438.058 132.601C437.917 132.048 437.953 131.459 437.792 130.912C437.392 129.563 435.955 128.864 434.993 127.838C433.067 125.79 433.192 122.423 434.556 119.959C435.659 117.973 437.792 116.311 440.03 116.686C441.414 116.926 442.632 117.911 444.016 118.004C445.4 118.098 446.617 117.332 447.83 116.769C450.803 115.418 454.146 115.12 457.311 115.925C458.281 116.121 459.181 116.576 459.913 117.244C460.41 117.87 460.873 118.522 461.302 119.198C462.894 121.23 465.751 121.631 468.296 122.09C470.84 122.548 473.718 123.559 474.54 126.009C475.097 127.634 474.54 129.396 474.238 131.084C474.138 131.429 474.162 131.798 474.306 132.126C474.706 132.783 475.7 132.507 476.45 132.648C477.891 132.955 478.26 134.815 478.318 136.295C478.377 137.984 478.422 139.674 478.453 141.366C478.494 141.995 478.444 142.627 478.302 143.242C477.99 144.122 477.495 144.927 476.85 145.602L471.199 152.403C468.691 155.415 466.032 158.927 466.516 162.825C465.329 163.346 463.914 162.33 463.529 161.084C463.144 159.839 463.451 158.479 463.716 157.223C464.177 155.015 464.48 152.777 464.622 150.527C464.769 149.4 464.635 148.254 464.232 147.192C463.748 146.149 462.618 145.363 461.515 145.628C460.048 145.972 459.434 147.879 457.987 148.338C456.775 148.724 455.453 147.864 454.865 146.733C454.277 145.602 454.272 144.279 454.272 143.007V138.708C454.272 137.145 454.22 135.467 453.262 134.242C452.071 132.72 449.266 132.053 447.393 132.116C446.148 132.131 444.955 132.613 444.047 133.466C443.043 134.325 441.882 134.956 440.519 134.732Z" fill="#7C5C5C"/>
<path opacity="0.1" d="M444.458 188.526L449.818 210.574C449.818 210.574 454.043 210.548 444.458 188.526Z" fill="black"/>
<path opacity="0.1" d="M462.769 184.841C462.769 184.841 455.755 196.347 458.492 208.25L459.798 208.343C459.798 208.343 457.467 202.835 462.769 184.841Z" fill="black"/>
<path opacity="0.1" d="M467.198 249.964C467.198 249.964 475.815 247.108 476.439 253.732C476.46 253.732 474.836 249.193 467.198 249.964Z" fill="black"/>
<path opacity="0.1" d="M442.319 211.918C442.319 211.918 440.607 223.904 443.688 228.713C443.688 228.713 437.443 231.282 428.629 230.772L427.588 211.918H442.319Z" fill="black"/>
<path opacity="0.1" d="M443.49 227.364L442.663 227.828L437.355 215.842L442.319 211.387H442.574C442.496 211.981 441.112 222.283 443.49 227.364Z" fill="black"/>
<path d="M442.319 211.407C442.319 211.407 440.607 223.393 443.688 228.197C443.688 228.197 437.444 230.772 428.629 230.256L422.639 211.407H442.319Z" fill="#F2994A"/>
<path d="M427.52 411.554C427.421 412.409 427.04 413.207 426.438 413.822C425.836 414.437 425.047 414.835 424.195 414.951C419.549 415.644 408.356 417.416 405.53 418.766C401.934 420.48 387.734 419.287 387.047 417.567C386.948 417.221 386.918 416.858 386.96 416.501C387.002 416.143 387.115 415.797 387.292 415.483C387.779 414.439 388.582 413.575 389.586 413.013C389.918 412.828 390.267 412.674 390.627 412.554C393.302 411.663 398.354 409.766 399.718 407.776C399.718 407.776 406.019 402.257 407.814 399.277C408.152 398.69 408.628 398.196 409.202 397.838C409.776 397.479 410.429 397.268 411.103 397.223C412.602 397.156 414.272 397.911 414.959 401.199C414.959 401.199 423.165 405.889 425.366 401.778C425.366 401.778 425.71 408.094 427.073 409.824C427.259 410.067 427.395 410.346 427.472 410.643C427.549 410.941 427.565 411.25 427.52 411.554Z" fill="#A27772"/>
<path opacity="0.1" d="M427.52 411.554C427.421 412.409 427.04 413.207 426.438 413.822C425.836 414.437 425.047 414.835 424.195 414.951C419.549 415.644 408.356 417.416 405.53 418.766C401.934 420.48 387.734 419.287 387.047 417.567C386.948 417.221 386.918 416.858 386.96 416.501C387.002 416.143 387.115 415.797 387.292 415.483C387.779 414.439 388.582 413.575 389.586 413.013C391.902 414.576 397.043 416.056 408.35 414.29C419.137 412.601 424.482 410.949 427.083 409.824C427.268 410.068 427.402 410.347 427.477 410.644C427.552 410.942 427.567 411.251 427.52 411.554Z" fill="black"/>
<g opacity="0.1">
<path opacity="0.1" d="M474.212 131.324V131.241C474.456 129.959 474.826 128.635 474.732 127.348C474.623 128.4 474.449 129.444 474.212 130.475C474.148 130.754 474.148 131.044 474.212 131.324Z" fill="black"/>
<path opacity="0.1" d="M464.226 147.364C464.499 147.981 464.642 148.648 464.648 149.323C464.725 148.392 464.58 147.456 464.226 146.592C463.748 145.55 462.618 144.763 461.515 145.029C460.048 145.373 459.434 147.28 457.982 147.739C456.775 148.124 455.453 147.265 454.86 146.134C454.267 145.003 454.267 143.674 454.267 142.403C454.267 140.97 454.267 139.542 454.267 138.109C454.267 136.545 454.215 134.867 453.257 133.643C452.06 132.116 449.261 131.454 447.388 131.512C446.141 131.527 444.945 132.011 444.036 132.866C443.032 133.721 441.877 134.346 440.508 134.122C439.941 134.035 439.409 133.79 438.974 133.414C438.54 133.038 438.22 132.546 438.052 131.996C437.912 131.444 437.948 130.85 437.787 130.303C437.386 128.958 435.95 128.255 434.987 127.233C434.084 126.231 433.573 124.935 433.546 123.585C433.475 124.377 433.566 125.175 433.814 125.931C434.062 126.686 434.461 127.383 434.987 127.978C435.95 129.021 437.386 129.703 437.787 131.048C437.948 131.569 437.912 132.189 438.052 132.741C438.22 133.291 438.54 133.783 438.974 134.159C439.409 134.535 439.941 134.781 440.508 134.867C441.877 135.091 443.032 134.466 444.036 133.612C444.945 132.756 446.141 132.273 447.388 132.257C449.261 132.199 452.071 132.861 453.257 134.388C454.215 135.613 454.261 137.296 454.267 138.854C454.267 140.287 454.267 141.715 454.267 143.148C454.267 144.419 454.267 145.753 454.86 146.874C455.453 147.994 456.759 148.87 457.982 148.484C459.418 148.025 460.063 146.118 461.515 145.774C462.618 145.534 463.748 146.358 464.226 147.364Z" fill="black"/>
<path opacity="0.1" d="M478.291 142.648C477.978 143.527 477.481 144.33 476.834 145.003L471.183 151.803C468.805 154.664 466.292 157.978 466.5 161.631C466.672 158.281 469.003 155.232 471.183 152.575L476.834 145.774C477.481 145.101 477.978 144.298 478.291 143.419C478.433 142.802 478.484 142.169 478.442 141.538C478.434 141.912 478.384 142.284 478.291 142.648Z" fill="black"/>
<path opacity="0.1" d="M463.555 160.485C463.462 160.187 463.405 159.879 463.383 159.568C463.336 160.136 463.394 160.709 463.555 161.256C463.94 162.496 465.35 163.523 466.542 162.992C466.508 162.743 466.487 162.492 466.479 162.241C465.293 162.715 463.919 161.704 463.555 160.485Z" fill="black"/>
</g>
<path opacity="0.1" d="M406.675 400.845C406.675 400.845 408.465 403.972 414.948 401.22L406.675 400.845Z" fill="black"/>
<path opacity="0.1" d="M461.474 401.606C461.474 401.606 467.062 408.198 474.108 403.769L461.474 401.606Z" fill="black"/>
<path opacity="0.1" d="M477.74 323.654C477.74 323.654 473.79 326.124 473.665 327.536C473.54 328.948 475.705 326.494 475.705 326.494L477.74 323.654Z" fill="black"/>
<path opacity="0.1" d="M479.301 342.601C477.927 343.746 476.22 344.413 474.436 344.503C471.48 344.633 471.73 348.49 473.66 347.333C475.591 346.176 479.301 342.601 479.301 342.601Z" fill="black"/>
<path opacity="0.1" d="M480.05 345.076C480.05 345.076 478.156 354.399 476.616 352.601L480.05 345.076Z" fill="black"/>
<path d="M114.125 414.946C114.125 414.946 126.015 418.214 131.739 413.868C137.463 409.521 139.945 410.918 139.945 410.918C139.945 410.918 153.594 410.162 154.718 406.932C155.842 403.701 149.483 391.965 149.483 391.965C149.03 390.923 148.369 389.6 148.073 389.6L148.135 384.649L150.113 363.935C154.676 352.216 150.196 337.072 150.196 337.072L149.379 333.315C148.92 331.203 149.193 328.997 150.154 327.062L158.444 310.386C158.887 309.284 159.409 308.215 160.005 307.187C160.525 306.233 161.217 305.055 162.086 303.643C162.341 303.237 162.606 302.815 162.898 302.372C163.902 300.808 165.12 299.037 166.592 296.994C170.261 291.903 172.191 285.53 173.19 280.84L173.633 282.309H173.659H173.732L173.851 282.335H174.018H174.049L174.262 282.372H174.34L176.89 314.868C177.046 327.541 181.693 334.555 181.693 334.555L181.053 362.533C181.927 369.271 180.012 378.255 179.133 381.84L177.124 386.379C176.333 386.775 175.651 387.357 175.135 388.076C174.619 388.795 174.286 389.629 174.163 390.506C173.768 393.857 170.245 401.08 170.245 401.08C168.882 402.81 165.921 407.484 165.921 407.484C165.921 407.484 164.526 411.997 165.39 413.685C166.254 415.373 173.477 415.202 173.477 415.202C181.724 417.031 188.047 412.596 187.646 409.542C187.245 406.489 188.931 405.712 188.931 405.712C192.209 404.67 191.892 402.445 191.892 402.445C192.598 397.855 191.722 393.161 189.41 389.136L188.89 390.34C188.749 387.93 189.085 385.516 189.878 383.237L189.576 383.445L189.483 383.503H189.452C189.972 378.933 194.764 370.475 194.764 370.475C203.569 355.009 200.369 334.05 200.369 334.05L199.005 327.515L198.927 325.05C198.741 319.166 199.186 313.278 200.254 307.489C200.728 304.925 201.217 301.83 201.592 298.417C202.382 291.204 204.932 283.763 206.108 280.61L206.457 280.548H206.498C206.977 280.464 207.461 280.381 207.95 280.287H208.044C208.044 280.287 208.325 278.766 208.564 276.176C208.705 274.524 208.819 272.429 208.819 270.021C208.855 262.752 207.746 255.523 205.536 248.599L205.801 248.218C205.801 248.218 206.431 247.364 207.581 245.884C209.693 243.195 212.982 239.109 217.036 234.503C224.295 226.212 222.161 217.827 222.161 217.827C222.161 217.827 216.906 198.541 214.564 186.962C213.227 180.365 210.719 175.878 208.798 173.231C209.231 171.406 209.476 169.541 209.527 167.666C209.683 164.237 209.563 160.662 208.023 157.582C206.483 154.503 203.205 152.069 199.781 152.481C199.295 152.598 198.789 152.598 198.303 152.481C197.903 152.299 197.564 152.004 197.33 151.631C195.326 148.864 195.196 145.144 195.821 141.788C196.445 138.432 197.725 135.222 198.298 131.855C198.87 128.489 198.61 124.753 196.471 122.085C193.958 118.958 189.576 118.077 186.309 115.727C184.014 114.075 182.291 111.704 179.872 110.24C177.452 108.776 175.189 109.333 172.561 109.886C168.143 110.818 163.944 111.246 159.765 113.148C155.534 115.066 151.739 117.831 148.614 121.272C147.505 122.381 146.655 123.723 146.127 125.201C145.086 128.645 147.121 132.314 146.694 135.878C146.392 138.406 144.904 140.605 143.723 142.861C142.541 145.118 141.641 147.796 142.567 150.157C144.024 153.846 148.775 154.628 152.23 156.592C152.692 156.819 153.087 157.162 153.375 157.588C154.229 159.078 152.485 160.626 151.387 161.949C150.759 162.722 150.314 163.627 150.087 164.597C148.656 165.184 147.392 166.115 146.406 167.308C145.42 168.5 144.741 169.917 144.43 171.433C143.259 176.681 145.06 183.304 146.647 187.682C144.914 197.431 147.167 201.277 148.827 202.752C150.508 204.193 151.548 206.244 151.721 208.453V208.635C151.83 210.407 152.017 212.173 152.267 213.935C152.21 213.523 152.152 213.085 152.121 212.893C150.763 215.41 148.177 221.84 146.72 232.658C146.417 234.977 145.977 237.275 145.403 239.542C144.361 243.556 143.988 247.715 144.3 251.851L144.56 255.358C144.304 255.364 144.054 255.281 143.853 255.123L145.679 258.474V264.128C145.677 266.677 145.208 269.205 144.295 271.585C144.165 271.929 144.024 272.273 143.874 272.627C143.404 273.579 143.192 274.637 143.259 275.696C139.331 281.726 130.323 315.514 130.323 315.514C125.437 326.593 130.724 333.753 130.724 333.753C130.724 333.753 133.284 364.597 133.763 366.192C134.242 367.786 135.303 386.588 135.303 386.588C135.303 387.083 135.303 387.599 135.303 388.083C135.019 387.959 134.72 387.873 134.413 387.828C130.131 387.588 128.97 394.363 128.97 394.363L120.208 402.742C120.208 402.742 116.206 402.064 110.321 406.489C104.436 410.913 114.125 414.946 114.125 414.946ZM201.623 236.681L201.597 236.587L201.357 236.728L201.258 236.785L201.212 236.817L197.174 222.544C196.093 218.717 195.991 214.679 196.877 210.803L199.999 197.108V193.815L209.922 220.298C210.557 223.867 204.662 232.512 201.623 236.681Z" fill="url(#paint3_linear)"/>
<path d="M205.978 279.761C205.978 279.761 201.971 289.521 200.951 298.886C200.582 302.262 200.103 305.316 199.635 307.849C198.595 313.566 198.166 319.378 198.355 325.186L198.433 327.619L199.734 334.065C199.734 334.065 202.856 354.769 194.234 370.022C194.234 370.022 189.124 379.157 188.968 383.482L185.507 384.821L178.514 382.857C178.514 382.857 181.891 370.73 180.793 362.231L181.422 334.613C181.422 334.613 176.88 327.703 176.724 315.196L174.054 280.876L205.978 279.761Z" fill="#FDC2CC"/>
<path d="M174.054 274.873C174.054 274.873 173.196 288.255 166.587 297.479C159.979 306.702 158.574 310.704 158.574 310.704L150.435 327.182C149.493 329.091 149.223 331.264 149.67 333.346L150.472 337.057C150.472 337.057 154.874 352.012 150.394 363.586L148.271 385.941H135.855C135.855 385.941 134.814 367.364 134.362 365.79C133.909 364.217 131.375 333.753 131.375 333.753C131.375 333.753 126.171 326.666 130.979 315.728C130.979 315.728 141.829 274.795 144.732 275.503C147.636 276.212 174.054 274.873 174.054 274.873Z" fill="#FDC2CC"/>
<g opacity="0.1">
<path opacity="0.1" d="M149.212 337.083L148.416 333.372C147.957 331.282 148.225 329.098 149.176 327.182L157.314 310.689C157.314 310.689 158.724 306.676 165.328 297.463C171.671 288.604 172.717 275.91 172.79 274.935L174.054 274.873C174.054 274.873 173.196 288.255 166.587 297.479C159.979 306.702 158.574 310.704 158.574 310.704L150.435 327.182C149.493 329.091 149.223 331.264 149.67 333.346L150.472 337.057C150.472 337.057 154.874 352.012 150.394 363.586L148.271 385.941H147.011L149.134 363.586C153.615 352.012 149.212 337.083 149.212 337.083Z" fill="black"/>
</g>
<path opacity="0.1" d="M187.729 383.498C187.885 379.172 192.995 370.037 192.995 370.037C201.644 354.769 198.495 334.081 198.495 334.081L197.163 327.63L197.085 325.196C196.897 319.388 197.326 313.576 198.365 307.859C198.828 305.326 199.307 302.273 199.677 298.896C200.66 289.881 204.412 280.501 204.688 279.813L205.978 279.761C205.978 279.761 201.971 289.521 200.952 298.886C200.582 302.262 200.103 305.316 199.635 307.849C198.595 313.566 198.166 319.378 198.355 325.186L198.433 327.619L199.734 334.065C199.734 334.065 202.856 354.769 194.234 370.022C194.234 370.022 189.124 379.157 188.968 383.482L185.507 384.821L184.779 384.618L187.729 383.498Z" fill="black"/>
<path d="M183.723 383.341C184.66 383.713 185.675 383.842 186.675 383.719C187.675 383.595 188.628 383.221 189.446 382.632C188.301 385.98 188.139 389.586 188.978 393.023C190.393 398.693 175.771 388.458 175.771 388.458L178.894 381.314C178.894 381.314 180.106 383.576 183.723 383.341Z" fill="#D39999"/>
<path opacity="0.1" d="M184.81 383.659C185.614 383.822 186.444 383.813 187.244 383.633C188.045 383.454 188.799 383.108 189.457 382.617C188.311 385.964 188.149 389.571 188.988 393.008C190.404 398.677 175.782 388.443 175.782 388.443L178.904 381.298C178.904 381.298 179.809 383.039 182.468 383.31C183.275 383.404 184.045 383.513 184.81 383.659Z" fill="black"/>
<path d="M150.55 250.913H156.659V216.202L152.074 215.378L150.55 250.913Z" fill="#FDC2CC"/>
<path opacity="0.05" d="M150.55 250.913H156.659V216.202L152.074 215.378L150.55 250.913Z" fill="black"/>
<path d="M180.262 386.02C180.262 386.02 184.113 385.78 185.84 389.245L187.964 390.897L189.004 388.458C191.263 392.444 192.11 397.077 191.408 401.606C191.408 401.606 191.72 403.805 188.499 404.832C188.499 404.832 186.85 405.618 187.24 408.61C187.63 411.601 181.428 416.009 173.331 414.196C173.331 414.196 166.254 414.357 165.39 412.7C164.527 411.043 165.942 406.64 165.942 406.64C165.942 406.64 168.851 402.023 170.183 400.319C170.183 400.319 173.643 393.18 174.039 389.897C174.434 386.614 178.217 384.206 180.262 386.02Z" fill="#7E5659"/>
<path d="M148.39 388.933L148.453 384.039C148.453 384.039 141.423 386.067 135.73 383.774C135.73 383.774 136.209 388.693 135.418 389.365C134.627 390.037 138.051 396.369 138.051 396.369L141.875 400.381L148.453 397.984L150.237 392.356C150.237 392.356 148.858 388.933 148.39 388.933Z" fill="#D39999"/>
<path opacity="0.1" d="M148.39 388.933L148.453 384.039C148.453 384.039 141.423 386.067 135.73 383.774C135.73 383.774 136.209 388.693 135.418 389.365C134.627 390.037 138.051 396.369 138.051 396.369L141.875 400.381L148.453 397.984L150.237 392.356C150.237 392.356 148.858 388.933 148.39 388.933Z" fill="black"/>
<path d="M134.986 387.161C134.986 387.161 138.722 387.593 138.248 392.372C137.775 397.15 138.446 392.372 138.446 392.372C138.446 392.372 142.416 393.982 143.832 396.228C145.247 398.474 147.802 394.222 147.995 393.002C148.187 391.783 149.78 391.278 149.78 391.278C149.78 391.278 156.024 402.872 154.921 406.061C153.818 409.251 140.413 409.985 140.413 409.985C140.413 409.985 137.973 408.61 132.353 412.898C126.733 417.187 115.061 413.941 115.061 413.941C115.061 413.941 105.549 409.964 111.33 405.603C117.112 401.241 121.035 401.903 121.035 401.903L129.642 393.597C129.642 393.597 130.781 386.921 134.986 387.161Z" fill="#7E5659"/>
<path d="M179.607 113.054C181.985 114.497 183.676 116.842 185.929 118.473C189.134 120.792 193.438 121.657 195.904 124.753C197.986 127.39 198.256 131.074 197.694 134.398C197.132 137.723 195.873 140.897 195.264 144.211C194.655 147.525 194.78 151.199 196.747 153.929C196.976 154.297 197.307 154.588 197.699 154.768C198.177 154.883 198.674 154.883 199.151 154.768C202.513 154.362 205.739 156.77 207.248 159.808C208.757 162.846 208.877 166.379 208.721 169.766C208.591 172.543 208.278 175.378 207.061 177.88C204.979 182.132 200.65 184.758 196.378 186.77C193.601 188.077 190.754 189.229 187.849 190.219C185.851 190.897 183.743 191.506 181.667 191.152C178.113 190.537 175.595 187.301 172.223 186.035C169.46 184.993 166.395 185.368 163.455 185.628C160.947 185.847 158.079 185.842 156.352 184.008C154.135 181.652 155.134 177.853 156.269 174.821C155.067 174.744 153.91 174.337 152.925 173.644C151.941 172.95 151.166 171.998 150.688 170.891C150.21 169.785 150.047 168.568 150.216 167.374C150.385 166.18 150.881 165.057 151.648 164.128C152.72 162.82 154.432 161.293 153.594 159.818C153.313 159.397 152.925 159.059 152.47 158.838C149.082 156.9 144.415 156.123 142.989 152.486C142.073 150.146 142.958 147.499 144.118 145.274C145.279 143.049 146.72 140.871 147.037 138.38C147.454 134.857 145.476 131.235 146.481 127.838C147 126.378 147.833 125.051 148.921 123.95C151.98 120.559 155.699 117.83 159.849 115.93C163.954 114.049 168.07 113.627 172.41 112.71C175.012 112.158 177.166 111.574 179.607 113.054Z" fill="#865A61"/>
<path d="M156.653 165.514C156.653 165.514 146.699 164.993 144.815 173.492C142.932 181.991 148.9 194.164 148.9 194.164L156.653 165.514Z" fill="#FDC2CC"/>
<path opacity="0.05" d="M156.653 165.514C156.653 165.514 146.699 164.993 144.815 173.492C142.932 181.991 148.9 194.164 148.9 194.164L156.653 165.514Z" fill="black"/>
<path d="M150.3 190.808L154.073 193.799L171.676 194.586L182.666 187.03L193.844 167.822C187.011 166.076 184.248 161.35 183.218 156.931C182.562 153.94 182.488 150.851 182.999 147.833C182.999 147.833 165.078 138.541 167.279 153.044C167.581 154.824 167.637 156.637 167.446 158.432C166.405 166.926 158.173 165.326 158.173 165.326L155.014 170.204L151.398 182.189L150.3 190.808Z" fill="#FDC2CC"/>
<path opacity="0.1" d="M167.295 153.023C167.597 154.803 167.653 156.616 167.461 158.411C169.99 159.568 172.777 160.04 175.545 159.78C178.312 159.52 180.963 158.538 183.233 156.931C182.578 153.94 182.504 150.851 183.015 147.833C183.015 147.833 165.094 138.541 167.295 153.023Z" fill="black"/>
<path d="M174.065 159.219C182.833 159.219 189.941 152.101 189.941 143.32C189.941 134.539 182.833 127.421 174.065 127.421C165.296 127.421 158.188 134.539 158.188 143.32C158.188 152.101 165.296 159.219 174.065 159.219Z" fill="#FDC2CC"/>
<path d="M162.835 187.775C163.22 187.775 163.6 187.833 163.98 187.869C166.062 188.078 174.757 188.547 179.71 182.622C185.252 175.993 192.631 167.807 192.933 167.473L200.442 169.745C200.442 169.745 194.499 167.629 190.555 178.698C189.689 181.019 189.598 183.559 190.295 185.937C190.992 188.315 192.44 190.402 194.421 191.887C195.88 192.945 197.559 193.658 199.333 193.971C199.335 193.975 199.337 193.98 199.337 193.984C199.337 193.989 199.335 193.993 199.333 193.997V198.854L196.263 212.403C195.391 216.231 195.491 220.218 196.554 223.997L201.238 240.574C200.53 241.064 171.473 260.855 152.064 247.187C152.137 246.593 154.536 227.14 152.87 217.619C152.443 215.185 152.153 212.728 152.001 210.261C152.001 210.199 152.001 210.141 152.001 210.079C151.83 207.901 150.807 205.878 149.155 204.451C147.407 202.887 145.039 198.719 147.381 187.702C147.972 184.974 148.844 182.314 149.982 179.766L156.492 165.034L162.492 165.154V165.196C161.972 165.842 155.014 174.544 154.26 180.152C153.521 185.482 152.61 187.119 162.835 187.775Z" fill="#D62828"/>
<path d="M205.494 172.335C205.494 172.335 211.364 177.374 213.669 188.812C215.974 200.251 221.11 219.25 221.11 219.25C221.11 219.25 223.192 227.541 216.078 235.727C208.965 243.914 204.235 250.318 204.235 250.318L199.552 257.228C198.753 258.406 197.555 259.254 196.18 259.615C194.046 260.178 190.768 260.584 187.927 259.026C186.893 258.447 186.109 257.507 185.724 256.384C185.34 255.262 185.383 254.037 185.846 252.945L186.886 250.532C186.886 250.532 177.244 256.619 176.406 253.257C175.568 249.896 187.62 246.54 187.62 246.54C187.62 246.54 197.574 244.862 199.588 240.141C199.588 240.141 210.276 226.389 209.439 221.668L199.115 193.961C199.115 193.961 186.205 192.252 190.607 177.728C195.009 163.205 205.494 172.335 205.494 172.335Z" fill="#FDC2CC"/>
<path d="M143.764 276.869C143.764 276.869 167.347 281.59 172.904 280.959L173.503 282.955C173.503 282.955 182.453 284.962 202.69 281.746C204.011 281.538 205.383 281.303 206.806 281.043L207.279 280.959C207.279 280.959 207.555 279.459 207.773 276.9C208.257 271.09 208.429 259.839 204.344 248.323L200.941 237.828C200.941 237.828 179.908 250.454 165.984 249.292C164.74 249.188 163.507 249.089 162.263 249.047C159.406 248.938 154.978 249.047 152.1 246.738L146.064 247.781V264.977C146.062 267.493 145.6 269.986 144.701 272.335C144.571 272.679 144.436 273.018 144.285 273.377C143.731 274.452 143.548 275.679 143.764 276.869Z" fill="#65617D"/>
<path opacity="0.1" d="M173.498 277.604V282.955C173.498 282.955 183.801 285.264 207.274 280.959C207.274 280.959 207.55 279.459 207.768 276.9C200.567 278.057 180.705 280.84 173.498 277.604Z" fill="black"/>
<path opacity="0.1" d="M143.764 276.869C143.764 276.869 167.347 281.59 172.904 280.959L173.503 282.955V277.604C170.818 278.719 151.648 274.091 144.701 272.356C144.571 272.7 144.436 273.039 144.285 273.398C143.735 274.466 143.552 275.686 143.764 276.869Z" fill="black"/>
<path d="M200.936 270.902L202.684 281.762C204.006 281.554 205.378 281.319 206.8 281.058C206.254 277.885 205.062 270.636 205.39 269.433L203.189 267.546L200.936 270.902Z" fill="#65617D"/>
<path opacity="0.1" d="M201.18 270.668L202.929 281.533C204.251 281.321 205.623 281.086 207.045 280.829C206.498 277.656 205.307 270.407 205.635 269.203L203.434 267.312L201.18 270.668Z" fill="black"/>
<g opacity="0.05">
<path opacity="0.05" d="M164.719 249.287C163.481 249.182 162.242 249.083 160.998 249.042C158.22 248.937 153.979 249.042 151.086 246.91L152.095 246.733C154.988 249.031 159.38 248.932 162.258 249.042C163.501 249.083 164.735 249.182 165.978 249.287C166.384 249.323 166.8 249.344 167.222 249.354C166.387 249.377 165.552 249.354 164.719 249.287Z" fill="black"/>
<path opacity="0.05" d="M201.425 281.746C202.747 281.538 204.119 281.305 205.541 281.048L206.02 280.959C206.02 280.959 206.296 279.459 206.509 276.9C206.998 271.09 207.17 259.839 203.08 248.323L199.874 238.422C200.556 238.036 200.915 237.812 200.915 237.812L204.318 248.307C208.403 259.823 208.231 271.074 207.747 276.884C207.529 279.443 207.253 280.944 207.253 280.944L206.78 281.032C205.361 281.29 203.989 281.522 202.664 281.731C193.209 283.232 186.225 283.596 181.459 283.555C188.15 283.453 194.824 282.849 201.425 281.746Z" fill="black"/>
<path opacity="0.05" d="M171.634 280.959V281.017H170.958C171.215 280.999 171.44 280.98 171.634 280.959Z" fill="black"/>
</g>
<path d="M203.865 272.929C204.357 272.929 204.755 272.108 204.755 271.095C204.755 270.082 204.357 269.261 203.865 269.261C203.374 269.261 202.976 270.082 202.976 271.095C202.976 272.108 203.374 272.929 203.865 272.929Z" fill="#D39999"/>
<path d="M147.074 233.95C148.51 223.268 151.044 216.921 152.381 214.435C152.433 214.774 152.569 215.873 152.631 216.212C152.902 217.775 152.662 219.745 152.746 221.731L151.414 245.889L153.198 253.445C154.874 259.427 148.666 254.701 148.666 254.701C147.381 257.536 145.024 257.223 145.024 257.223L144.701 252.887C144.395 248.803 144.761 244.696 145.783 240.73C146.348 238.498 146.779 236.234 147.074 233.95Z" fill="#FDC2CC"/>
<path opacity="0.05" d="M147.074 233.95C148.51 223.268 151.044 216.921 152.381 214.435C152.433 214.774 152.569 215.873 152.631 216.212C152.902 217.775 152.662 219.745 152.746 221.731L151.414 245.889L153.198 253.445C154.874 259.427 148.666 254.701 148.666 254.701C147.381 257.536 145.024 257.223 145.024 257.223L144.701 252.887C144.395 248.803 144.761 244.696 145.783 240.73C146.348 238.498 146.779 236.234 147.074 233.95Z" fill="black"/>
<path d="M206.8 246.983C205.671 248.448 205.052 249.287 205.052 249.287L200.369 256.191C199.572 257.371 198.373 258.219 196.997 258.578C194.863 259.141 191.585 259.552 188.744 257.989C187.71 257.412 186.925 256.472 186.54 255.351C186.156 254.229 186.2 253.005 186.663 251.913L187.703 249.495C187.703 249.495 178.061 255.582 177.223 252.226C176.386 248.87 188.437 245.509 188.437 245.509C188.437 245.509 198.391 243.831 200.405 239.104C200.405 239.104 201.274 237.989 202.487 236.28" fill="#FDC2CC"/>
<path d="M200.936 258.557C200.936 258.557 189.535 257.447 185.924 250.918L184.269 256.311C184.269 256.311 196.237 264.586 198.969 263.513L200.936 258.557Z" fill="#65617D"/>
<path opacity="0.1" d="M200.53 258.505C200.53 258.505 189.134 257.395 185.518 250.86L183.868 256.238C183.868 256.238 195.836 264.513 198.563 263.44L200.53 258.505Z" fill="black"/>
<path d="M149.041 255.509C149.041 255.509 145.05 256.926 144.264 256.139L146.059 259.448L149.452 256.843L149.041 255.509Z" fill="#65617D"/>
<path opacity="0.1" d="M149.041 255.509C149.041 255.509 145.05 256.926 144.264 256.139L146.059 259.448L149.452 256.843L149.041 255.509Z" fill="black"/>
<path opacity="0.1" d="M173.498 277.604V270.699L171.858 277.77L173.498 277.604Z" fill="black"/>
<path opacity="0.1" d="M189.665 134.925C188.702 136.28 187.032 136.967 185.388 137.181C183.743 137.395 182.078 137.212 180.418 137.181C177.816 137.139 175.048 137.541 172.92 139.073C171.562 140.047 170.542 141.418 169.48 142.72C166.264 146.655 161.8 150.339 156.732 149.927C156.29 149.927 155.853 149.839 155.447 149.667C155.04 149.495 154.672 149.244 154.364 148.927C153.951 148.285 153.741 147.533 153.76 146.769C153.542 143.526 153.645 140.269 154.067 137.046C154.271 135.051 154.765 133.097 155.535 131.246C156.441 129.39 157.631 127.688 159.063 126.201C160.794 124.19 162.881 122.515 165.219 121.261C167.581 120.007 170.317 119.653 172.92 120.266C175.954 121.095 178.316 123.471 181.209 124.695C184.513 126.087 193.287 129.802 189.665 134.925Z" fill="black"/>
<path d="M189.665 134.294C188.702 135.649 187.032 136.337 185.388 136.551C183.743 136.764 182.078 136.582 180.418 136.551C177.816 136.504 175.048 136.905 172.92 138.437C171.562 139.411 170.542 140.782 169.48 142.085C166.264 146.019 161.8 149.703 156.732 149.292C156.29 149.293 155.853 149.205 155.446 149.033C155.039 148.861 154.671 148.609 154.364 148.291C153.95 147.649 153.74 146.897 153.76 146.134C153.542 142.89 153.645 139.633 154.067 136.41C154.271 134.415 154.765 132.461 155.535 130.61C156.439 128.755 157.63 127.055 159.063 125.571C160.793 123.556 162.88 121.88 165.219 120.626C167.581 119.371 170.317 119.017 172.92 119.63C175.954 120.459 178.316 122.835 181.209 124.06C184.513 125.456 193.287 129.161 189.665 134.294Z" fill="#865A61"/>
<path d="M152.1 246.728L152.059 248.63L151.632 246.811L152.1 246.728Z" fill="#FDC2CC"/>
<path opacity="0.05" d="M152.1 246.728L152.059 248.63L151.632 246.811L152.1 246.728Z" fill="black"/>
<g opacity="0.05">
<path opacity="0.05" d="M192.23 176.733C187.823 191.256 200.67 192.96 200.67 192.96L210.994 220.668C211.832 225.389 201.139 239.141 201.139 239.141C200.395 240.902 198.537 242.241 196.508 243.231C197.693 242.508 198.647 241.459 199.255 240.209C199.255 240.209 209.943 226.462 209.106 221.741L198.782 194.029C198.782 194.029 185.939 192.325 190.341 177.801C191.814 172.95 193.984 170.74 196.18 169.948C194.666 171.168 193.276 173.278 192.23 176.733Z" fill="black"/>
</g>
<g opacity="0.1">
<path opacity="0.1" d="M192.449 189.927C193.052 190.675 193.752 191.339 194.53 191.902C195.988 192.963 197.668 193.676 199.442 193.987C199.442 193.987 199.442 193.987 199.442 194.013V194.534C197.836 194.193 196.319 193.521 194.988 192.559C193.998 191.833 193.14 190.943 192.449 189.927Z" fill="black"/>
<path opacity="0.1" d="M152.527 210.704C152.527 210.761 152.527 210.824 152.527 210.886C152.689 213.362 152.988 215.827 153.422 218.27C154.983 227.254 152.938 245.092 152.647 247.557C152.48 247.447 152.314 247.343 152.126 247.223C152.204 246.629 154.603 227.176 152.938 217.661C152.511 215.226 152.221 212.77 152.069 210.303C152.069 210.24 152.069 210.178 152.069 210.12C151.966 208.69 151.483 207.314 150.669 206.134C151.748 207.427 152.397 209.024 152.527 210.704Z" fill="black"/>
<path opacity="0.1" d="M162.107 165.743L157.018 165.644C157.014 165.642 157.009 165.64 157.005 165.64C157 165.64 156.996 165.642 156.992 165.644L150.487 180.37C149.35 182.919 148.478 185.579 147.885 188.307C145.991 197.218 147.183 201.658 148.63 203.851C147.001 201.929 145.32 197.546 147.417 187.697C147.998 184.968 148.861 182.306 149.993 179.755L156.544 165.029L162.544 165.149V165.185C162.497 165.248 162.336 165.446 162.107 165.743Z" fill="black"/>
<path opacity="0.1" d="M200.457 169.74L200.546 169.766L200.457 169.74Z" fill="black"/>
<path opacity="0.1" d="M198.589 169.656L193.49 168.119H193.464C193.162 168.453 185.788 176.639 180.247 183.268C175.293 189.193 166.608 188.729 164.516 188.52C164.136 188.479 163.751 188.448 163.371 188.421C157.684 188.057 155.446 187.379 154.697 185.941C155.764 186.983 158.111 187.504 162.898 187.796C163.283 187.796 163.663 187.853 164.043 187.89C166.124 188.098 174.819 188.562 179.773 182.642C185.315 176.009 192.693 167.822 192.995 167.489L200.416 169.74C199.818 169.591 199.197 169.563 198.589 169.656Z" fill="black"/>
</g>
<path opacity="0.1" d="M138.212 394.733C138.212 394.733 131.031 396.697 129.642 393.612L138.212 394.733Z" fill="black"/>
<path opacity="0.1" d="M183.801 393.258C183.801 393.258 175.475 395.41 173.55 392.08L183.801 393.258Z" fill="black"/>
</g>
<defs>
<linearGradient id="paint0_linear" x1="250.62" y1="370.147" x2="250.62" y2="62.1262" gradientUnits="userSpaceOnUse">
<stop stop-color="#808080" stop-opacity="0.25"/>
<stop offset="0.54" stop-color="#808080" stop-opacity="0.12"/>
<stop offset="1" stop-color="#808080" stop-opacity="0.1"/>
</linearGradient>
<linearGradient id="paint1_linear" x1="71671.8" y1="248962" x2="71671.8" y2="54545.1" gradientUnits="userSpaceOnUse">
<stop stop-color="#808080" stop-opacity="0.25"/>
<stop offset="0.54" stop-color="#808080" stop-opacity="0.12"/>
<stop offset="1" stop-color="#808080" stop-opacity="0.1"/>
</linearGradient>
<linearGradient id="paint2_linear" x1="95015.4" y1="253447" x2="95015.4" y2="73525.7" gradientUnits="userSpaceOnUse">
<stop stop-color="#808080" stop-opacity="0.25"/>
<stop offset="0.54" stop-color="#808080" stop-opacity="0.12"/>
<stop offset="1" stop-color="#808080" stop-opacity="0.1"/>
</linearGradient>
<linearGradient id="paint3_linear" x1="-54420.9" y1="251297" x2="-54420.9" y2="70641.1" gradientUnits="userSpaceOnUse">
<stop stop-color="#808080" stop-opacity="0.25"/>
<stop offset="0.54" stop-color="#808080" stop-opacity="0.12"/>
<stop offset="1" stop-color="#808080" stop-opacity="0.1"/>
</linearGradient>
<clipPath id="clip0">
<rect width="592" height="448" fill="white"/>
</clipPath>
</defs>
</svg>
