<svg width="73" height="44" viewBox="0 0 73 44" fill="none" xmlns="http://www.w3.org/2000/svg">
<path d="M14.4606 31.8449L20.4564 7.91658L26.6874 31.8449H32.0367C36.0339 21.5474 39.0906 11.2499 41.2068 0.833313H36.0927C34.7407 8.92847 32.5069 16.9641 29.5678 25.0593L23.5131 0.833313H17.87L11.7566 25.2974C8.87621 17.1427 6.87759 8.98799 5.58437 0.833313H0C1.99862 11.1904 5.17289 21.4879 9.05256 31.8449H14.4606Z" fill="url(#paint0_linear)"/>
<path d="M50.6119 16.726C50.6119 8.74992 52.3753 4.52377 58.8415 4.52377C65.4839 4.52377 66.9535 8.92849 66.9535 16.1903C66.9535 24.7617 64.9549 28.095 58.3712 28.095C56.9604 28.095 55.726 27.9759 54.7267 27.5593V32.083C55.9611 32.4402 57.3719 32.6187 58.8415 32.6187C69.1872 32.6187 72.3615 25.1188 72.3615 15.8927C72.3615 5.59518 68.4819 0 59.6644 0C54.0213 0 52.3166 2.32141 50.6119 4.52377V0.833326H45.439V43.9877H50.6119V16.726Z" fill="url(#paint1_linear)"/>
<defs>
<linearGradient id="paint0_linear" x1="65.2196" y1="32.4559" x2="5.01414" y2="5.55561" gradientUnits="userSpaceOnUse">
<stop stop-color="#D62828"/>
<stop offset="1" stop-color="#F77F00"/>
</linearGradient>
<linearGradient id="paint1_linear" x1="65.2195" y1="32.4559" x2="5.01404" y2="5.55561" gradientUnits="userSpaceOnUse">
<stop stop-color="#D62828"/>
<stop offset="1" stop-color="#F77F00"/>
</linearGradient>
</defs>
</svg>
