<svg width="691" height="497" viewBox="0 0 691 497" fill="none" xmlns="http://www.w3.org/2000/svg">
<g opacity="0.5">
<path opacity="0.5" d="M682.087 231.703H615.33C610.408 231.703 606.418 235.687 606.418 240.601V307.247C606.418 312.161 610.408 316.144 615.33 316.144H682.087C687.01 316.144 691 312.161 691 307.247V240.601C691 235.687 687.01 231.703 682.087 231.703Z" fill="#D0D2D5"/>
<path opacity="0.1" d="M636.716 255.971H660.702C660.702 255.971 680.901 273.615 660.702 291.89H636.716C636.716 291.89 616.517 275.505 636.716 255.971Z" fill="black"/>
<path opacity="0.5" d="M642.397 266.047H639.241V275.499H642.397V266.047Z" fill="#D0D2D5"/>
<path opacity="0.5" d="M658.177 264.786H655.021V276.129H658.177V264.786Z" fill="#D0D2D5"/>
<path opacity="0.5" d="M648.709 281.171C649.713 281.171 650.676 281.569 651.387 282.278C652.097 282.987 652.496 283.949 652.496 284.952V288.102H644.921V284.952C644.921 283.949 645.32 282.987 646.031 282.278C646.741 281.569 647.704 281.171 648.709 281.171Z" fill="#D0D2D5"/>
</g>
<path d="M512.178 47.0098C513.24 46.5552 514.375 46.2928 515.529 46.2348C516.27 46.2909 516.998 46.4587 517.688 46.7326C518.935 47.0959 520.101 47.6949 521.122 48.497C521.627 48.9041 522.028 49.4246 522.292 50.0161C522.556 50.6075 522.677 51.2531 522.643 51.8999C522.498 53.1602 521.564 54.2504 520.541 55.0507C519.154 56.1887 517.437 56.8515 515.643 56.9412C513.636 56.9727 511.742 56.0715 509.804 55.5359C508.395 55.1379 506.939 54.926 505.474 54.9057C504.737 54.9454 503.998 54.8989 503.271 54.7671C502.907 54.6985 502.564 54.5453 502.27 54.3197C501.976 54.0942 501.74 53.8028 501.58 53.469C501.397 52.8521 501.397 52.1954 501.58 51.5785C501.725 50.7971 501.7 48.9444 502.394 48.4781C502.949 48.1 504.919 48.4025 505.601 48.3458C507.834 48.1345 510.039 47.6867 512.178 47.0098Z" fill="#FBBEBE"/>
<path d="M467.116 34.3248C469.028 36.1916 470.674 38.312 472.008 40.6263C474.229 44.4955 475.643 48.9949 478.989 51.9692C479.878 52.7162 480.821 53.3965 481.81 54.0046C482.583 54.5722 483.451 54.9989 484.373 55.2649C487.378 55.9392 490.748 55.0003 493.677 54.0046C496.576 52.9658 499.39 51.7016 502.091 50.2237C502.11 51.4411 502.449 52.6322 503.076 53.6769C503.776 54.6663 505.209 55.246 506.232 54.6222C503.642 55.8372 501.2 57.3447 498.954 59.1152C498.089 59.8462 497.288 60.6528 496.366 61.3145C493.04 63.7028 488.438 63.9422 485.364 66.6519C484.908 67.0667 484.334 67.3292 483.722 67.4026C483.11 67.476 482.49 67.3568 481.949 67.0615C480.882 66.4314 480.157 65.3475 479.279 64.4716C477.55 62.7449 475.201 61.7367 473.504 59.9785C472.715 59.1656 472.083 58.2015 471.275 57.4075C470.12 56.2732 468.618 55.517 467.558 54.2567C466.769 53.3303 466.295 52.2024 465.557 51.213C464.925 50.356 464.181 49.6061 463.619 48.6924C462.243 46.5057 462.255 43.6511 463.044 41.1998C463.833 38.7485 465.645 36.461 467.116 34.3248Z" fill="#F2994A"/>
<path d="M354.93 92.5199C354.441 91.8793 353.838 91.3344 353.15 90.913C352.106 90.4504 350.941 90.3313 349.824 90.5727C347.009 91.0012 344.395 92.2868 341.921 93.7235C339.926 94.8641 337.944 96.1307 336.518 97.9267C336.048 98.4681 335.72 99.1178 335.565 99.8172C335.484 100.394 335.533 100.982 335.71 101.538C335.837 102.163 336.106 102.751 336.497 103.255C336.887 103.76 337.389 104.169 337.963 104.449C339.283 104.966 340.753 104.417 342.079 103.913C343.859 103.226 345.816 102.59 347.646 103.132C349.003 103.535 350.171 104.562 351.604 104.6C353.289 104.65 354.653 103.289 355.726 101.991C356.654 100.857 358.686 98.8089 358.553 97.2146C358.421 95.6203 355.928 93.6605 354.93 92.5199Z" fill="#FBBEBE"/>
<path d="M376.202 141.565C374.658 141.976 373.041 142.043 371.468 141.761C370.509 141.584 369.334 141.357 368.722 142.107C368.525 142.385 368.393 142.704 368.337 143.04C366.765 149.461 368.205 156.273 370.862 162.354C370.896 162.457 370.957 162.548 371.039 162.619C371.209 162.745 371.443 162.657 371.638 162.575C372.281 162.317 372.883 161.966 373.425 161.535C374.637 160.438 374.895 158.655 374.952 157.023C375.009 155.391 374.984 153.664 375.83 152.265C376.89 150.532 379.106 149.688 379.977 147.854C380.677 146.361 380.311 144.59 379.693 143.065C379.484 142.536 379.402 141.175 378.91 140.916C378.418 140.658 376.764 141.414 376.202 141.565Z" fill="#FBBEBE"/>
<path d="M354.747 91.8772C354.887 91.7996 354.993 91.6719 355.042 91.5198C355.091 91.3677 355.081 91.2026 355.012 91.0579C354.877 90.7699 354.678 90.5158 354.432 90.3144C353.881 89.7839 353.379 89.2061 352.929 88.5877C352.434 87.823 351.879 87.0982 351.269 86.42C350.96 86.0832 350.578 85.8201 350.153 85.65C349.728 85.4799 349.271 85.4071 348.814 85.4369C348.307 85.5276 347.823 85.7206 347.394 86.0041C345.677 86.9976 344.096 88.2092 342.691 89.6086C342.584 89.7157 342.464 89.848 342.489 89.9993C342.514 90.1505 342.615 90.2135 342.628 90.3396C342.632 90.4534 342.591 90.5642 342.514 90.6483C341.671 91.6969 340.67 92.6088 339.548 93.3517C337.957 94.5448 336.4 95.7841 334.877 97.0697C333.924 97.7465 333.172 98.6674 332.699 99.7352C332.376 100.98 332.518 102.299 333.097 103.447C334.151 105.917 335.988 107.959 337.799 109.944C338.103 110.349 338.527 110.647 339.011 110.795C339.394 110.846 339.781 110.752 340.097 110.53C341.201 109.805 341.359 108.293 341.454 106.976L341.555 105.155C341.552 105.035 341.576 104.917 341.624 104.808C341.719 104.669 341.853 104.562 342.009 104.499L343.726 103.592C343.201 102.739 342.454 102.045 341.565 101.584C340.675 101.122 339.677 100.91 338.677 100.97C338.219 101.079 337.738 101.014 337.326 100.788C337.127 100.581 337.016 100.305 337.016 100.019C337.016 99.7322 337.127 99.4566 337.326 99.25C337.744 98.8529 338.257 98.5688 338.815 98.4245C343.341 96.7672 347.432 94.1079 351.825 92.1229C352.306 91.8798 352.838 91.7566 353.378 91.7637C353.819 91.7952 354.337 92.0536 354.747 91.8772Z" fill="#D62828"/>
<path d="M372.579 157.867C372.377 158.246 372.307 158.687 372.087 159.058C371.866 159.43 371.386 159.689 371.014 159.5C370.817 159.363 370.671 159.166 370.597 158.939C368.683 154.568 368.143 149.721 369.05 145.037C369.176 144.271 369.403 143.525 369.726 142.819C370.06 142.139 370.546 141.445 370.408 140.702C368.605 141.269 366.873 142.039 365.244 142.996C364.171 143.626 363.041 144.502 362.94 145.737C362.931 146.216 363.001 146.693 363.149 147.148L363.742 149.373C363.814 149.786 363.997 150.172 364.272 150.488C364.462 150.677 364.72 150.797 364.903 150.999C365.077 151.234 365.194 151.505 365.244 151.793L365.743 153.721C365.929 154.364 366.062 155.022 366.141 155.687C366.197 156.317 366.141 156.897 366.191 157.502C366.263 158.497 366.41 159.485 366.633 160.457L367.346 163.948C367.507 164.924 367.787 165.876 368.179 166.784C368.476 167.414 368.874 167.956 369.12 168.593C369.303 169.078 369.398 169.595 369.625 170.055C370.035 170.801 370.674 171.395 371.449 171.75C371.721 171.909 372.025 172.005 372.339 172.033C373.229 172.065 373.867 171.202 374.283 170.408C375.097 168.964 375.531 167.338 375.546 165.681C375.546 165.013 375.407 164.352 375.35 163.684C375.192 161.793 375.722 159.96 375.716 158.075C375.729 156.311 373.229 156.645 372.579 157.867Z" fill="#D62828"/>
<path d="M465.19 48.0748C463.224 47.1714 461.495 45.8229 460.141 44.1363C459.444 43.2471 458.812 42.31 458.247 41.3321C455.85 37.2929 453.792 33.0627 452.093 28.6848C454.782 29.2331 457.603 29.7309 460.248 28.9747C461.627 28.555 462.913 27.8747 464.035 26.9708C465.473 25.7904 466.808 24.4896 468.025 23.0827C468.944 24.8423 469.999 26.5278 471.181 28.124C471.856 29.0314 474.141 30.8778 473.971 32.1129C473.8 33.348 471.275 33.9656 470.253 34.5516L470.145 34.6209C468.637 35.5725 467.321 36.7972 466.263 38.2317C464.281 41.0422 463.593 44.9618 465.19 48.0748Z" fill="#FBBEBE"/>
<path opacity="0.1" d="M470.303 34.5264C468.786 33.7827 467.446 32.7229 466.373 31.4184C465.301 30.114 464.521 28.5953 464.086 26.9645C465.524 25.7841 466.858 24.4833 468.075 23.0764C468.995 24.836 470.05 26.5215 471.231 28.1177C471.906 29.0251 474.191 30.8715 474.021 32.1066C473.851 33.3417 471.326 33.9404 470.303 34.5264Z" fill="black"/>
<path d="M475.984 35.4527C482.513 35.4527 487.807 30.1684 487.807 23.6499C487.807 17.1313 482.513 11.847 475.984 11.847C469.455 11.847 464.161 17.1313 464.161 23.6499C464.161 30.1684 469.455 35.4527 475.984 35.4527Z" fill="#FBBEBE"/>
<path d="M450.123 97.1705C449.305 97.6603 448.374 97.93 447.42 97.9532C446.467 97.9763 445.523 97.7523 444.682 97.3028C443.807 96.764 443.016 96.0994 442.334 95.3304C438.452 91.3541 434.76 87.1384 432.165 82.2042C431.562 81.1631 431.172 80.013 431.017 78.8203C430.944 78.2242 431.016 77.6194 431.228 77.0576C431.441 76.4957 431.786 75.9935 432.235 75.5939C432.476 75.4346 432.689 75.2365 432.866 75.0078C433.018 74.6718 433.09 74.305 433.074 73.9365C433.144 73.308 433.392 72.7121 433.787 72.218C434.183 71.7239 434.71 71.3519 435.309 71.1449C434.678 70.7164 434.93 69.7649 435.34 69.1536C435.751 68.5424 436.325 67.8933 436.224 67.1875C436.062 66.7168 435.868 66.2578 435.643 65.8138C435.416 65.045 435.826 64.251 436.047 63.4822C436.508 61.9068 436.23 60.2306 436.117 58.5922C435.782 53.74 436.963 48.9255 438.13 44.2056C438.647 41.8089 439.391 39.4667 440.352 37.2109C440.649 36.5807 440.983 35.9506 441.324 35.3897C442.517 33.4613 443.843 31.6188 445.295 29.8758C445.974 28.8505 446.907 28.0171 448.003 27.456C448.105 27.4117 448.211 27.3738 448.318 27.3426C449.105 27.1398 449.921 27.0779 450.729 27.1598C452.863 27.2922 455.104 27.79 456.625 29.2898C458.146 30.7896 458.638 32.8943 459.326 34.9234C459.546 35.6025 459.811 36.2658 460.122 36.9084C461.125 38.8997 462.76 40.4877 464.37 42.0316L466.118 43.7141C466.996 44.5585 468.517 44.3443 469.344 45.2328C469.68 45.6504 469.931 46.13 470.082 46.6444C471.016 48.9173 471.56 51.3309 471.692 53.7841C471.698 54.3296 471.667 54.875 471.597 55.4162C471.383 57.3154 470.542 59.0893 469.205 60.4574C467.69 61.9131 465.582 62.6315 464.073 64.0935C462.811 65.3034 462.079 66.9229 461.359 68.5046C459.97 71.5545 458.58 74.6087 457.187 77.6671C456.178 79.7598 455.311 81.9177 454.592 84.1262C453.279 88.531 454.024 94.7444 450.123 97.1705Z" fill="#F2994A"/>
<path d="M413.671 149.096C410.553 149.222 407.428 149.184 404.322 149.48C402.511 149.656 400.706 149.953 398.888 150.028C396.906 150.116 394.917 149.959 392.929 149.997C387.924 150.104 382.988 151.433 378.171 152.807C376.812 149.492 376.103 145.947 376.082 142.365C376.069 142.128 376.069 141.891 376.082 141.653C376.17 140.639 376.473 139.655 376.972 138.767C381.391 137.507 385.872 136.247 390.461 136.31C391.957 136.31 393.44 136.486 394.93 136.53C399.254 136.663 403.458 134.728 407.75 135.27C408.175 135.312 408.603 135.218 408.972 135.002C409.341 134.785 409.631 134.458 409.801 134.066C409.984 133.6 410.06 132.989 410.534 132.806C410.874 132.68 411.342 132.837 411.556 132.548C411.633 132.392 411.678 132.223 411.689 132.05C411.815 131.42 412.452 131.136 412.951 130.789C414.214 129.92 414.927 128.433 415.558 127.009C415.724 126.7 415.825 126.361 415.855 126.013C415.855 125.736 415.766 125.458 415.773 125.175C415.773 124.179 416.89 123.606 417.471 122.793C418.234 121.721 418.102 120.272 418.474 119.012C418.979 117.424 420.324 116.296 420.658 114.733C420.696 114.574 420.722 114.411 420.734 114.248C419.395 115.626 417.862 116.802 416.183 117.739C410.578 121.186 403.874 123.246 398.642 127.235C394.488 130.386 388.403 130.292 383.859 127.727C382.145 126.68 380.527 125.484 379.024 124.154C376.713 122.263 374.378 120.329 371.96 118.527C370.277 117.266 368.533 116.05 366.728 114.878C364.542 113.435 362.279 112.111 359.948 110.914C357.057 109.452 354.147 108.003 350.928 107.656C350.515 106.813 350.285 105.892 350.254 104.953C350.224 104.014 350.393 103.08 350.752 102.212C351.487 100.484 352.483 98.8799 353.706 97.4541C354.621 96.1146 355.766 94.9476 357.089 94.0071C357.236 93.9141 357.407 93.8648 357.581 93.8648C357.756 93.8648 357.926 93.9141 358.074 94.0071L370.584 101.676L372.926 103.107C378.058 106.257 383.107 109.629 388.239 112.761C388.334 113.12 388.833 113.164 389.192 113.069C389.552 112.975 389.962 112.824 390.272 113.032C390.423 113.132 390.531 113.321 390.72 113.359C390.871 113.364 391.019 113.315 391.136 113.221C393.257 111.765 394.343 108.967 396.723 107.99C397.739 107.574 398.945 107.511 399.74 106.73C400.21 106.134 400.632 105.502 401.002 104.84C402.031 103.497 403.982 103.094 404.935 101.689C405.566 100.779 406.325 99.9637 407.188 99.2689C408.907 97.8715 410.398 96.2154 411.607 94.36C412.231 93.444 412.718 92.442 413.052 91.3856C413.216 90.8374 413.317 90.2703 413.5 89.7283C414.075 88.0773 415.394 86.8107 416.713 85.6638C419.105 83.5717 421.687 81.5867 424.717 80.6225C425.774 80.3783 426.797 80.008 427.766 79.5198C428.984 78.7762 430.101 77.3961 431.496 77.7175C432.025 77.8812 432.502 78.1811 432.879 78.5871C434.59 80.2484 436.162 82.0461 437.581 83.9624C439.832 86.8233 442.082 89.6863 444.329 92.5514C445.038 93.5816 445.935 94.4689 446.973 95.1666C448.48 95.9408 450.211 96.1637 451.865 95.7968C451.644 98.1346 449.782 100.063 449.012 102.281C448.64 103.359 448.495 104.506 448.217 105.608C447.826 106.992 447.326 108.343 446.721 109.648C445.206 113.17 443.679 116.712 441.507 119.875C440.384 121.52 439.09 123.026 437.821 124.57C432.815 130.6 428.984 137.872 423.303 143.298C421.927 144.628 421.056 146.449 419.516 147.589C417.843 148.825 415.684 149.014 413.671 149.096Z" fill="black"/>
<path opacity="0.1" d="M437.455 69.141C436.898 69.1681 436.357 69.3304 435.877 69.6136C437.032 69.2103 438.44 70.2879 439.506 69.7775C440.005 69.538 439.929 69.4687 439.506 69.3238C438.869 69.1095 438.099 69.3049 437.455 69.141Z" fill="black"/>
<path d="M636.731 277.382L590.335 293.83L593.292 302.144L639.688 285.696L636.731 277.382Z" fill="#D0D2D5"/>
<path d="M605.855 311.07L648.088 296.098C649.192 295.707 650.407 295.769 651.465 296.272C652.523 296.775 653.338 297.676 653.73 298.779C654.122 299.881 654.06 301.094 653.556 302.15C653.053 303.207 652.149 304.02 651.045 304.412L608.813 319.383L605.855 311.07Z" fill="#D0D2D5"/>
<path d="M565.621 285.209L575.911 281.561C585.061 278.317 595.127 278.835 603.894 283C612.662 287.166 619.413 294.638 622.662 303.772L626.316 314.046C627.587 317.618 627.384 321.547 625.752 324.97C624.121 328.393 621.194 331.028 617.616 332.296L586.316 343.392C582.739 344.661 578.802 344.458 575.374 342.829C571.946 341.2 569.306 338.279 568.035 334.707L556.921 303.459C555.65 299.887 555.853 295.958 557.485 292.535C559.116 289.113 562.043 286.477 565.621 285.209Z" fill="#D0D2D5"/>
<path opacity="0.1" d="M436.887 75.2914C436.459 75.1415 435.998 75.1132 435.555 75.2095C434.894 75.2795 434.279 75.5809 433.819 76.0602C433.941 76.115 434.073 76.1433 434.207 76.1433C434.341 76.1433 434.473 76.115 434.596 76.0602C435.008 75.9558 435.433 75.9091 435.858 75.9215C436.224 75.9215 437.316 76.3248 437.6 76.1484C438.017 75.8774 437.171 75.3985 436.887 75.2914Z" fill="black"/>
<path opacity="0.1" d="M471.597 55.4162C470.647 55.0954 469.74 54.6595 468.896 54.118C466.68 52.7128 464.818 50.8034 462.628 49.3666C461.522 48.6729 460.377 48.0417 459.2 47.4762L451.809 43.6952C451.245 43.3752 450.643 43.1295 450.016 42.9642C448.81 42.6996 447.453 43.5062 446.229 43.336C445.594 43.2196 444.991 42.9701 444.46 42.604C443.929 42.238 443.482 41.7636 443.148 41.2124C442.481 40.111 442.011 38.9019 441.76 37.6394C441.571 36.8949 441.43 36.1393 441.337 35.3771C441.227 34.5856 441.213 33.7839 441.293 32.9888C441.419 31.4098 442.168 29.9456 443.376 28.918C444.252 28.2966 445.25 27.8672 446.304 27.6577C446.969 27.4898 447.647 27.3781 448.331 27.3237C448.719 27.2922 449.11 27.2922 449.498 27.3237C452.288 27.5442 454.649 29.4347 456.511 31.5142C457.49 32.6107 458.405 33.7891 459.339 34.9045C459.558 35.5836 459.824 36.2469 460.134 36.8895C461.138 38.8808 462.773 40.4688 464.382 42.0127L466.131 43.6952C467.008 44.5396 468.529 44.3254 469.356 45.2139C469.693 45.6315 469.944 46.1111 470.095 46.6255C471.027 48.9051 471.566 51.3252 471.692 53.7841C471.698 54.3296 471.666 54.875 471.597 55.4162Z" fill="black"/>
<path opacity="0.1" d="M414.113 136.064L376.076 141.653C376.164 140.639 376.467 139.655 376.966 138.767C381.384 137.507 385.866 136.247 390.455 136.31C391.951 136.31 393.434 136.486 394.924 136.53C399.248 136.663 403.452 134.728 407.744 135.27C408.169 135.312 408.597 135.218 408.966 135.002C409.335 134.785 409.625 134.458 409.795 134.066C409.978 133.6 410.054 132.989 410.528 132.806C410.868 132.68 411.335 132.837 411.55 132.548C411.626 132.392 411.672 132.223 411.683 132.05C411.809 131.42 412.446 131.136 412.945 130.789C414.207 129.92 414.921 128.433 415.552 127.009C415.718 126.7 415.819 126.361 415.849 126.013C415.849 125.736 415.76 125.458 415.767 125.175C415.767 124.179 416.884 123.606 417.465 122.793C418.228 121.721 418.096 120.272 418.468 119.012C418.973 117.424 420.318 116.296 420.652 114.733L420.816 114.519L427.293 111.998L414.113 136.064Z" fill="black"/>
<path opacity="0.1" d="M268.265 442.164C416.424 442.164 536.53 432.853 536.53 421.368C536.53 409.883 416.424 400.573 268.265 400.573C120.106 400.573 0 409.883 0 421.368C0 432.853 120.106 442.164 268.265 442.164Z" fill="#F2994A"/>
<path opacity="0.1" d="M505.424 497C601.291 497 679.007 486.908 679.007 474.459C679.007 462.01 601.291 451.918 505.424 451.918C409.556 451.918 331.841 462.01 331.841 474.459C331.841 486.908 409.556 497 505.424 497Z" fill="#D62828"/>
<path d="M299.983 404.53L300.16 395.607C308.576 395.129 316.992 394.809 325.409 394.65C330.294 394.561 335.243 394.53 339.971 395.752C343.247 396.603 346.346 398.04 349.578 399.048C356.016 401.052 362.833 401.317 369.593 401.499C376.152 401.682 383 401.745 388.89 398.853C399.084 393.811 403.369 381.429 403.868 370.092C404.367 358.756 402.107 347.331 403.679 336.064" stroke="#D0D2D5" stroke-width="12" stroke-miterlimit="10"/>
<path d="M323.06 421.992L210.585 420.555L210.913 417.676L216.354 370.168H315.126L322.398 417.676L322.953 421.274L323.06 421.992Z" fill="#D0D2D5"/>
<path opacity="0.1" d="M322.953 421.274H266.819L210.585 420.555L210.913 417.676H322.398L322.953 421.274Z" fill="black"/>
<path d="M341.088 418.394H191.838V421.992H341.088V418.394Z" fill="#D0D2D5"/>
<path d="M483.483 84.832C483.493 83.5983 483.26 82.3745 482.796 81.2311C482.332 80.0876 481.646 79.0469 480.778 78.1687C479.91 77.2904 478.877 76.5919 477.738 76.1133C476.599 75.6347 475.377 75.3854 474.141 75.3796H57.3392C56.1036 75.3862 54.8815 75.6361 53.7428 76.115C52.6041 76.5939 51.5713 77.2924 50.7035 78.1705C49.8357 79.0486 49.1499 80.089 48.6856 81.2321C48.2212 82.3752 47.9873 83.5985 47.9973 84.832V337.059H483.483V84.832Z" fill="#D0D2D5"/>
<path d="M47.9973 334.539V364.087C47.9973 366.56 48.9816 368.933 50.7335 370.682C52.4855 372.431 54.8616 373.413 57.3392 373.413H474.141C476.619 373.413 478.995 372.431 480.747 370.682C482.499 368.933 483.483 366.56 483.483 364.087V334.539H47.9973Z" fill="#D0D2D5"/>
<path d="M267.905 362.203C269.38 362.203 270.835 361.869 272.161 361.226C273.487 360.583 274.65 359.648 275.562 358.491C275.84 358.137 276.093 357.765 276.319 357.376L270.979 356.5L276.755 356.544C277.309 355.34 277.611 354.037 277.642 352.712C277.674 351.388 277.434 350.072 276.938 348.843L269.193 352.857L276.338 347.615C275.679 346.441 274.783 345.417 273.706 344.607C272.63 343.797 271.397 343.219 270.085 342.91C268.773 342.601 267.411 342.567 266.086 342.81C264.76 343.054 263.5 343.57 262.384 344.325C261.269 345.081 260.323 346.059 259.606 347.199C258.889 348.338 258.417 349.614 258.22 350.945C258.023 352.276 258.104 353.634 258.46 354.931C258.816 356.229 259.438 357.439 260.286 358.485C261.192 359.639 262.349 360.573 263.668 361.217C264.988 361.861 266.436 362.198 267.905 362.203Z" fill="black"/>
<path opacity="0.1" d="M277.638 373.407L322.511 418.394L315.625 373.407H277.638Z" fill="black"/>
<path d="M470.366 89.4006L494.466 57.5209C495.905 55.6304 497.389 53.658 499.364 52.2969C505.045 48.3773 513.371 50.6963 518.124 55.7186C522.877 60.741 524.871 67.7295 526.33 74.4848C529.725 90.0334 531.243 105.932 530.849 121.841C530.647 130.216 529.896 138.679 527.226 146.625C523.174 158.712 514.961 168.889 508.757 180.024C498.765 197.964 494.58 221.892 507.229 238.08C511.351 243.355 516.962 247.388 520.769 252.895C525.067 259.115 526.74 266.721 528.343 274.107C530.735 285.26 533.134 296.483 533.576 307.883C535.002 344.741 513.951 381.568 481.444 399.099C458.878 411.273 431.578 414.802 411.954 431.312C405.011 437.129 399.027 445.68 400.731 454.54C402.12 461.73 408.444 467.194 415.388 469.569C422.331 471.945 429.861 471.75 437.183 471.334C454.77 470.33 472.271 468.172 489.574 464.875C504.237 462.077 518.875 459.663 531.657 451.963C532.938 451.286 534.033 450.306 534.845 449.108C535.671 447.728 535.81 446.058 535.924 444.451C536.271 439.719 536.599 434.81 534.927 430.367C532.976 425.175 528.526 421.242 526.393 416.125C524.259 411.009 524.644 405.117 526.027 399.741C527.731 393.099 530.83 386.911 533.948 380.805C536.984 374.856 540.065 368.927 543.637 363.287C553.699 347.432 567.447 334.299 581.049 321.35" stroke="#D0D2D5" stroke-width="12" stroke-miterlimit="10"/>
<path d="M510.246 43.7015C511.307 43.241 512.443 42.9783 513.598 42.9264C514.338 42.9838 515.065 43.1494 515.757 43.4179C517.004 43.7835 518.17 44.3846 519.19 45.1887C519.696 45.5951 520.097 46.1155 520.362 46.7071C520.626 47.2987 520.746 47.9446 520.712 48.5915C520.566 49.8519 519.632 50.9357 518.61 51.7423C517.223 52.8824 515.506 53.5454 513.712 53.6328C511.704 53.6328 509.811 52.7632 507.873 52.2213C506.463 51.8232 505.007 51.6113 503.543 51.5911C502.805 51.6287 502.066 51.5801 501.34 51.4462C500.976 51.3787 500.633 51.2266 500.339 51.0021C500.045 50.7777 499.809 50.4872 499.648 50.1543C499.475 49.5468 499.475 48.9029 499.648 48.2954C499.8 47.514 499.774 45.655 500.469 45.1887C501.024 44.8169 502.994 45.1194 503.675 45.0627C505.907 44.8367 508.109 44.3805 510.246 43.7015Z" fill="#FBBEBE"/>
<path d="M501.491 44.3317C498.878 45.529 495.81 44.5333 492.97 44.527C491.575 44.527 490.186 44.7602 488.798 44.8421C487.259 44.8968 485.718 44.8568 484.184 44.7224L479.563 44.4073C476.841 44.3171 474.135 43.9454 471.49 43.2982C469.23 40.6389 465.563 39.4668 462.836 37.2991C460.652 35.5599 459.087 33.1905 457.225 31.1046C455.362 29.0188 453.002 27.1346 450.218 26.9141C449.14 26.8604 448.06 26.9752 447.018 27.2544C445.964 27.4597 444.967 27.8896 444.095 28.5147C443.496 29.0226 443.004 29.6437 442.646 30.3424C442.289 31.041 442.073 31.8034 442.012 32.5855C441.897 34.1506 442.053 35.7238 442.473 37.2361C442.724 38.5006 443.194 39.7118 443.862 40.8154C444.2 41.3645 444.649 41.8371 445.18 42.2028C445.712 42.5685 446.314 42.8193 446.948 42.939C448.167 43.1029 449.517 42.3089 450.736 42.5609C451.362 42.7262 451.965 42.9719 452.528 43.2919L459.926 47.0729C461.1 47.6398 462.243 48.2709 463.347 48.9633C465.544 50.4001 467.4 52.3095 469.615 53.7147C471.831 55.12 474.627 56.0022 477.089 55.0822C484.663 52.2654 493.197 53.5761 501.233 54.2756C501.182 54.1243 501.51 53.9857 501.605 53.8597C502.599 52.4979 503.049 50.8151 502.867 49.1398C502.672 47.4825 502.041 45.9197 501.491 44.3317Z" fill="#F2994A"/>
<path d="M488.785 23.1016C489.571 22.7406 490.231 22.1523 490.679 21.4128C491.398 20.0832 490.956 18.451 490.464 17.0017C489.972 15.5523 489.473 14.2857 488.924 12.9498C488.531 11.8287 487.936 10.7888 487.169 9.88089C486.052 8.68989 484.455 8.09124 483.123 7.1523C481.545 6.03692 480.365 4.45522 479.033 3.06257C477.701 1.66992 476.072 0.378096 474.154 0.144937C472.676 0.0708041 471.201 0.344962 469.849 0.945239C458.323 5.1736 448.899 13.5484 438.578 20.1903C434.564 22.7802 430.057 25.1938 425.323 24.8472L429.558 31.5647C430.638 33.285 431.85 35.1061 433.743 35.8434C435.416 36.4736 437.284 36.1585 439.039 35.8434C440.436 35.6415 441.796 35.2337 443.073 34.6335C445.598 33.2661 447.22 30.4241 449.934 29.4347C451.96 28.6974 454.22 29.1511 456.246 29.8569C458.272 30.5627 460.261 31.5205 462.394 31.8104C466.181 32.3208 469.969 30.6131 473.125 28.4076C475.018 27.0968 476.742 25.5908 478.806 24.6266C480.358 23.8222 482.121 23.5121 483.855 23.7381C485.768 24.0027 486.891 24.091 488.785 23.1016Z" fill="black"/>
<path opacity="0.1" d="M490.679 21.4128C491.386 20.1084 490.969 18.5078 490.489 17.1025C490.645 17.9076 490.534 18.7414 490.174 19.4782C489.722 20.214 489.063 20.8012 488.28 21.167C486.386 22.1627 485.238 22.0745 483.293 21.7531C481.559 21.5312 479.798 21.8411 478.244 22.6416C476.192 23.631 474.456 25.1622 472.563 26.4226C469.407 28.6281 465.619 30.3295 461.832 29.8191C459.692 29.5355 457.717 28.5588 455.684 27.8656C453.652 27.1725 451.386 26.7061 449.372 27.4434C446.664 28.4328 445.061 31.2811 442.517 32.6422C441.24 33.2416 439.881 33.6493 438.484 33.8521C436.723 34.1924 434.854 34.5264 433.188 33.8521C431.294 33.1212 430.082 31.2937 428.997 29.5734L425.998 24.8157C425.759 24.8157 425.512 24.8157 425.272 24.8157L429.508 31.5332C430.587 33.2535 431.799 35.0746 433.693 35.8119C435.366 36.4421 437.234 36.127 438.989 35.8119C440.386 35.61 441.745 35.2022 443.022 34.602C445.547 33.2346 447.169 30.3926 449.883 29.4032C451.91 28.6659 454.169 29.1196 456.195 29.8254C458.222 30.5312 460.21 31.489 462.343 31.7789C466.131 32.2893 469.918 30.5816 473.074 28.3761C474.968 27.0653 476.691 25.5592 478.755 24.5951C480.308 23.7907 482.07 23.4806 483.805 23.7066C485.749 24.0217 486.898 24.1099 488.785 23.1205C489.574 22.7544 490.234 22.1593 490.679 21.4128Z" fill="black"/>
<path d="M557.41 311.147C556.068 313.206 554.806 315.319 553.623 317.487C552.799 318.916 552.128 320.428 551.622 321.999C550.884 324.519 550.909 327.216 550.36 329.787C549.728 332.812 548.251 335.698 548.251 338.792C548.344 341.481 549.275 344.074 550.915 346.209C552.55 348.323 554.418 350.246 556.482 351.944C561.249 339.616 563.912 326.578 564.36 313.372C564.423 311.544 564.429 309.654 563.767 307.952C563.35 306.881 561.387 303.945 560.118 305.098C559.657 305.52 559.538 307.423 559.253 308.053C558.722 309.131 558.105 310.166 557.41 311.147Z" fill="#D62828"/>
<path opacity="0.1" d="M557.41 311.147C556.068 313.206 554.806 315.319 553.623 317.487C552.799 318.916 552.128 320.428 551.622 321.999C550.884 324.519 550.909 327.216 550.36 329.787C549.728 332.812 548.251 335.698 548.251 338.792C548.344 341.481 549.275 344.074 550.915 346.209C552.55 348.323 554.418 350.246 556.482 351.944C561.249 339.616 563.912 326.578 564.36 313.372C564.423 311.544 564.429 309.654 563.767 307.952C563.35 306.881 561.387 303.945 560.118 305.098C559.657 305.52 559.538 307.423 559.253 308.053C558.722 309.131 558.105 310.166 557.41 311.147Z" fill="black"/>
<path d="M625.171 318.035C627.639 317.625 630.378 317.827 632.297 319.421C633.455 320.403 634.188 321.794 634.342 323.303C634.506 325.055 633.49 327.122 631.735 327.26C631.313 327.265 630.891 327.238 630.473 327.178C629.365 327.172 628.258 327.262 627.165 327.449C625.015 327.651 622.847 327.335 620.844 326.528C618.841 325.721 617.06 324.446 615.652 322.811C614.15 320.959 616.132 320.108 617.918 319.73C620.355 319.213 622.734 318.451 625.171 318.035Z" fill="#FBBEBE"/>
<path d="M582.956 374.951L581.39 386.054C581.187 387.198 581.107 388.36 581.15 389.52C581.333 392.135 582.722 394.486 583.732 396.906C584.742 399.325 585.348 402.218 584.016 404.467C583.606 405.173 583.025 405.766 582.659 406.49C582.186 407.613 581.971 408.828 582.028 410.044L581.599 425.798C576.726 426.127 571.836 426.1 566.967 425.716C566.776 425.733 566.584 425.684 566.424 425.578C566.297 425.414 566.232 425.211 566.241 425.004C566.027 421.318 566.67 417.625 566.462 413.939C566.386 412.59 566.191 411.248 566.172 409.893C566.09 404.404 568.81 399.029 567.99 393.597C567.731 392.23 567.394 390.88 566.98 389.552C564.385 380.099 564.935 370.162 565.503 360.407C565.497 360.25 565.541 360.096 565.629 359.966C565.726 359.874 565.846 359.809 565.976 359.777C568.738 358.952 571.658 358.802 574.491 359.341C577.323 359.879 579.984 361.09 582.249 362.871C582.937 363.425 584.673 363.961 585.127 364.616C585.758 365.543 584.925 366.456 584.565 367.439C583.761 369.878 583.221 372.397 582.956 374.951Z" fill="#D0D2D5"/>
<path opacity="0.1" d="M582.956 374.951L581.39 386.054C581.187 387.198 581.107 388.36 581.15 389.52C581.333 392.135 582.722 394.486 583.732 396.906C584.742 399.325 585.348 402.218 584.016 404.467C583.606 405.173 583.025 405.766 582.659 406.49C582.186 407.613 581.971 408.828 582.028 410.044L581.599 425.798C576.726 426.127 571.836 426.1 566.967 425.716C566.776 425.733 566.584 425.684 566.424 425.578C566.297 425.414 566.232 425.211 566.241 425.004C566.027 421.318 566.67 417.625 566.462 413.939C566.386 412.59 566.191 411.248 566.172 409.893C566.09 404.404 568.81 399.029 567.99 393.597C567.731 392.23 567.394 390.88 566.98 389.552C564.385 380.099 564.935 370.162 565.503 360.407C565.497 360.25 565.541 360.096 565.629 359.966C565.726 359.874 565.846 359.809 565.976 359.777C568.738 358.952 571.658 358.802 574.491 359.341C577.323 359.879 579.984 361.09 582.249 362.871C582.937 363.425 584.673 363.961 585.127 364.616C585.758 365.543 584.925 366.456 584.565 367.439C583.761 369.878 583.221 372.397 582.956 374.951Z" fill="black"/>
<path d="M553.686 371.598C554.425 373.13 555.416 374.56 555.851 376.205C557.006 380.547 554.033 385.027 554.387 389.476C554.501 390.881 554.936 392.249 554.968 393.654C554.999 395.059 554.482 396.622 553.232 397.265C552.392 397.7 551.338 397.655 550.549 398.147C549.217 398.954 549.066 400.806 549.198 402.35C549.331 403.894 549.546 405.633 548.567 406.849C547.816 407.788 546.528 408.148 545.72 409.036C545.238 409.676 544.827 410.367 544.496 411.097C543.29 413.195 541.094 414.487 539.288 416.138C537.483 417.789 535.956 420.209 536.763 422.49C537.357 424.173 539.023 425.206 540.626 425.994C543.552 427.437 546.639 428.527 549.823 429.239C550.165 429.34 550.527 429.358 550.877 429.289C551.232 429.158 551.548 428.942 551.799 428.659C553.661 426.838 555.586 424.929 556.445 422.477C556.598 421.882 556.836 421.311 557.152 420.782C558.136 419.409 560.207 419.453 561.614 418.507C563.255 417.392 563.653 415.174 564.726 413.504C565.742 411.929 567.371 410.845 568.513 409.37C570.407 406.925 570.918 403.667 572.301 400.876C572.888 399.685 573.639 398.582 574.106 397.34C574.578 395.862 574.868 394.332 574.971 392.784C575.861 385.424 578.127 378.013 576.7 370.729C576.385 369.122 575.899 367.578 575.697 365.927C575.343 363.066 575.899 360.148 575.476 357.294C575.466 356.937 575.376 356.587 575.21 356.27C575.045 355.954 574.81 355.679 574.523 355.466C574.181 355.315 573.811 355.237 573.437 355.239C569.695 355.045 565.943 355.131 562.214 355.498C560.32 355.681 558.193 356.065 557.063 357.609C556.097 358.926 556.148 360.703 555.801 362.31C555.422 364.282 554.418 365.366 553.364 366.916C552.31 368.466 552.91 370.004 553.686 371.598Z" fill="#D0D2D5"/>
<path d="M568.248 422.805C567.251 422.805 566.146 422.748 565.376 423.379C564.417 424.16 564.398 425.603 564.556 426.838C564.998 430.285 566.127 433.606 567.257 436.921L570.615 446.757C571.148 448.16 571.539 449.613 571.783 451.093C572.118 453.614 571.613 456.134 571.55 458.655C571.55 459.915 571.632 461.314 572.421 462.329C573.847 464.156 576.631 463.942 578.922 463.551L590.101 461.661C591.043 461.532 591.97 461.306 592.866 460.986C593.8 460.557 594.697 460.051 595.548 459.474C597.76 458.212 600.085 457.157 602.492 456.323C603.539 455.933 604.713 455.428 605.092 454.376C605.54 453.116 604.543 451.736 603.306 451.225C602.069 450.715 600.686 450.847 599.348 450.891C596.057 450.997 592.771 450.552 589.627 449.574C588.68 449.347 587.801 448.895 587.065 448.257C586.342 447.437 585.842 446.446 585.613 445.377C584.667 442.092 584.099 438.709 583.921 435.295C583.795 432.774 583.883 430.254 583.782 427.733C583.719 426.239 583.864 421.431 582.52 420.404C581.516 419.635 577.382 421.759 576.031 422.068C573.478 422.637 570.863 422.885 568.248 422.805Z" fill="black"/>
<path d="M531.417 429.812C530.331 433.43 530.155 437.242 529.454 440.954C528.753 444.665 527.497 448.459 524.739 451.036C524.201 451.46 523.738 451.971 523.369 452.549C523.136 453.088 523.057 453.681 523.141 454.263C523.224 454.845 523.467 455.392 523.843 455.844C524.605 456.741 525.549 457.465 526.614 457.968C533.74 461.85 541.763 463.803 549.848 464.774C551.277 465.046 552.748 464.994 554.153 464.622C555.529 464.156 556.748 462.921 556.722 461.472C556.735 461.076 556.6 460.69 556.344 460.388C556.098 460.164 555.808 459.994 555.492 459.89C552.512 458.667 549.482 457.331 547.185 455.082C544.887 452.832 543.435 449.41 544.325 446.348C544.846 444.914 545.555 443.556 546.434 442.308C547.59 440.326 548.643 438.286 549.59 436.196L552.367 430.38C553.175 428.684 554.002 426.933 554.134 425.048C550.648 425.206 547.166 424.651 543.902 423.416C542.378 422.796 540.959 421.946 539.692 420.896C538.619 420.001 537.641 418.337 536.195 419.503C535.034 420.436 534.302 423.057 533.614 424.393C532.741 426.14 532.007 427.952 531.417 429.812Z" fill="black"/>
<path d="M572.105 285.393C571.827 287.806 569.479 289.407 567.238 290.358L581.415 294.883C580.5 293.131 581.245 290.988 582.154 289.211C582.894 287.806 583.738 286.458 584.679 285.178C584.818 284.983 584.975 284.731 584.874 284.51C584.784 284.362 584.643 284.252 584.477 284.202C581.561 282.904 578.556 281.561 575.368 281.089C574.447 280.95 572.705 280.585 572.017 281.523C571.329 282.462 572.256 284.277 572.105 285.393Z" fill="#FBBEBE"/>
<path opacity="0.1" d="M572.105 285.393C571.827 287.806 569.479 289.407 567.238 290.358L581.415 294.883C580.5 293.131 581.245 290.988 582.154 289.211C582.894 287.806 583.738 286.458 584.679 285.178C584.818 284.983 584.975 284.731 584.874 284.51C584.784 284.362 584.643 284.252 584.477 284.202C581.561 282.904 578.556 281.561 575.368 281.089C574.447 280.95 572.705 280.585 572.017 281.523C571.329 282.462 572.256 284.277 572.105 285.393Z" fill="black"/>
<path d="M580.368 287.352C586.51 287.352 591.49 282.381 591.49 276.249C591.49 270.117 586.51 265.146 580.368 265.146C574.225 265.146 569.246 270.117 569.246 276.249C569.246 282.381 574.225 287.352 580.368 287.352Z" fill="#FBBEBE"/>
<path d="M589.975 367.603C588.901 368.864 587.001 369.141 585.341 368.864C581.459 368.233 578.278 365.379 574.485 364.352C569.826 363.091 564.89 364.711 560.497 366.689C556.104 368.668 551.723 371.069 546.913 371.447C551.262 361.768 548.775 350.116 552.929 340.355C553.951 337.973 555.372 335.667 555.599 333.089C555.883 329.882 554.28 326.788 554.033 323.593C553.806 320.751 554.665 317.921 555.479 315.218L558.528 305.23C559.664 301.512 560.832 297.725 563.034 294.517C563.842 293.339 564.095 290.957 565.332 290.239C568.034 288.688 572.13 290.648 575.059 290.755C577.988 290.862 580.658 292.942 582.368 295.292C584.18 297.775 585.209 300.731 586.156 303.655C587.668 308.007 588.796 312.484 589.526 317.033C589.621 317.713 589.703 318.394 589.766 319.081C590.397 325.553 589.476 332.062 589.425 338.559C589.425 338.559 589.425 338.559 589.425 338.61C589.369 346.852 590.688 355.05 590.94 363.293C590.978 364.824 590.94 366.469 589.975 367.603Z" fill="#D62828"/>
<path opacity="0.1" d="M589.425 338.616C587.248 338.068 585.272 336.669 583.587 335.131C582.125 333.83 580.824 332.36 579.711 330.752C578.313 328.553 577.191 326.191 576.372 323.719C574.034 317.155 572.549 310.319 571.953 303.377C571.789 301.487 571.739 299.464 572.869 297.964C573.501 297.151 574.391 296.576 575.393 296.332C576.394 296.089 577.449 296.191 578.386 296.622C579.882 297.353 580.847 298.821 581.737 300.22C583.517 303.012 585.304 305.829 586.446 308.929C586.951 310.303 587.324 311.721 587.816 313.101C588.317 314.462 588.894 315.794 589.545 317.09C589.64 317.77 589.722 318.451 589.785 319.138C590.372 325.578 589.476 332.087 589.425 338.616Z" fill="black"/>
<path d="M572.894 296.742C571.77 298.235 571.821 300.283 571.979 302.155C572.575 309.094 574.06 315.928 576.397 322.49C577.211 324.964 578.333 327.327 579.736 329.523C580.848 331.132 582.149 332.603 583.612 333.902C585.758 335.862 588.371 337.608 591.281 337.633C592.919 337.553 594.531 337.201 596.053 336.593L619.73 328.565C619.97 327.21 619.017 325.641 618.569 324.343L617.306 320.6C616.946 319.572 616.523 318.457 615.589 317.896C614.655 317.335 613.159 318.104 612.376 318.728C611.594 319.352 610.994 320.171 610.23 320.808C608.766 322.017 606.841 322.465 604.991 322.881L599.67 324.078C597.74 324.6 595.749 324.863 593.749 324.859C592.266 320.341 589.444 316.359 587.847 311.872C587.355 310.498 586.976 309.08 586.471 307.707C585.329 304.606 583.543 301.789 581.769 298.998C580.879 297.592 579.913 296.124 578.417 295.4C577.48 294.969 576.424 294.867 575.422 295.111C574.419 295.354 573.528 295.929 572.894 296.742Z" fill="#D62828"/>
<path d="M576.82 278.751C576.905 278.023 577.133 277.318 577.489 276.678C577.676 276.356 577.959 276.102 578.299 275.951C578.64 275.801 579.019 275.761 579.383 275.839C580.494 276.186 580.866 277.906 582.027 277.963C582.81 278.001 583.372 277.207 583.618 276.457C583.864 275.707 583.997 274.869 584.584 274.34C584.992 274.033 585.461 273.818 585.96 273.71C588.655 272.859 591.439 271.283 592.335 268.605C592.543 268.063 592.593 267.473 592.48 266.904C592.07 265.209 589.956 264.698 588.346 264.081C586.736 263.463 585.19 262.43 583.612 261.636C582.034 260.842 580.203 260.275 578.467 260.678C577.586 260.954 576.72 261.278 575.873 261.648C573.26 262.549 570.053 262.133 568.027 264.011C567.144 264.95 566.496 266.084 566.134 267.32C564.713 271.233 563.823 275.89 566.165 279.331C567.604 281.454 569.012 283.88 571.789 284.132C575.021 284.422 576.309 281.473 576.82 278.751Z" fill="black"/>
<g opacity="0.1">
<path opacity="0.1" d="M581.756 275.121C582.002 274.377 582.135 273.533 582.716 273.004C583.126 272.701 583.594 272.486 584.092 272.374C586.793 271.523 589.571 269.954 590.473 267.269C590.679 266.727 590.727 266.137 590.612 265.568C590.55 265.299 590.437 265.044 590.278 264.818C591.306 265.259 592.203 265.858 592.455 266.904C592.568 267.473 592.518 268.063 592.31 268.605C591.414 271.283 588.63 272.859 585.935 273.71C585.436 273.818 584.967 274.033 584.559 274.34C583.972 274.869 583.839 275.713 583.593 276.457C583.347 277.201 582.785 278.001 582.002 277.963C581.22 277.925 580.841 277.213 580.342 276.615C581.03 276.526 581.523 275.808 581.756 275.121Z" fill="black"/>
<path opacity="0.1" d="M569.94 282.784C573.184 283.08 574.466 280.137 574.99 277.415C575.075 276.687 575.302 275.982 575.659 275.342C575.845 275.021 576.129 274.767 576.47 274.617C576.81 274.468 577.189 274.43 577.552 274.51C578.152 274.693 578.537 275.285 578.947 275.77C578.658 275.798 578.378 275.892 578.131 276.045C577.883 276.198 577.675 276.406 577.521 276.652C577.164 277.293 576.937 277.997 576.852 278.726C576.34 281.448 575.053 284.397 571.802 284.095C570.515 283.957 569.326 283.344 568.469 282.374C568.934 282.59 569.431 282.728 569.94 282.784Z" fill="black"/>
</g>
<path d="M467.621 91.247H66.0248V317.984H467.621V91.247Z" fill="black"/>
</svg>
