<svg width="288" height="211" viewBox="0 0 288 211" fill="none" xmlns="http://www.w3.org/2000/svg">
<g clip-path="url(#clip0)">
<path d="M280.495 204.782L277.641 205.696L272.762 195.116L276.974 193.768L280.495 204.782Z" fill="#FFB6B6"/>
<path d="M282.107 207.318L272.905 210.263L272.868 210.146C272.564 209.196 272.65 208.163 273.107 207.276C273.564 206.389 274.354 205.72 275.304 205.416L275.304 205.416L276.577 203.602L280.121 203.874L280.925 203.617L282.107 207.318Z" fill="#2F2E41"/>
<path d="M253.435 207.631H250.439L249.013 196.067H253.435L253.435 207.631Z" fill="#FFB6B6"/>
<path d="M254.199 210.537L244.537 210.537V210.414C244.538 209.416 244.934 208.459 245.639 207.754C246.344 207.048 247.301 206.652 248.298 206.652H248.298L250.063 205.312L253.356 206.652L254.199 206.652L254.199 210.537Z" fill="#2F2E41"/>
<path d="M239.123 88.1276C238.899 88.4081 238.738 88.7345 238.653 89.0838C238.568 89.4331 238.56 89.7968 238.631 90.1493C238.702 90.5018 238.849 90.8345 239.062 91.124C239.275 91.4135 239.549 91.6528 239.864 91.8249L238.427 100.445L242.576 98.6028L243.304 90.6995C243.558 90.1501 243.602 89.5266 243.427 88.9471C243.252 88.3676 242.871 87.8725 242.356 87.5555C241.84 87.2384 241.227 87.1216 240.631 87.227C240.035 87.3325 239.499 87.6529 239.123 88.1276Z" fill="#FFB6B6"/>
<path d="M276.947 159.634C276.947 159.634 277.646 150.528 275.169 148.837C272.692 147.145 252.27 146.294 252.27 146.294L251.002 147.963C251.002 147.963 250.887 148.742 248.964 155.09L248.18 190.525C248.102 193.979 247.5 198.32 248.942 199.207L249.643 202.713H253.499L255.628 196.818C256.546 195.335 256.937 193.585 256.738 191.852L257.901 186.647C257.82 186.565 257.763 186.463 257.736 186.351C257.604 185.575 257.778 184.779 258.222 184.129C258.324 183.977 258.438 183.833 258.56 183.697L262.821 164.628L268.569 186.934L272.116 194.857C271.767 195.688 271.999 196.44 272.634 197.139C272.398 197.788 273.419 198.244 273.857 199.084L275.228 201.662L279.083 199.558L279.433 197.454C279.667 196.83 279.039 196.416 278.576 195.12C279.439 194.203 279.392 193.31 278.561 192.438L277.103 186.15L277.086 183.268L277.068 180.187L276.947 159.634Z" fill="#2F2E41"/>
<path d="M260.828 105.495C264.527 105.495 267.525 102.495 267.525 98.7948C267.525 95.0942 264.527 92.0942 260.828 92.0942C257.13 92.0942 254.131 95.0942 254.131 98.7948C254.131 102.495 257.13 105.495 260.828 105.495Z" fill="#FFB6B6"/>
<path d="M267.566 99.8439L267.455 99.6227C267.284 99.2804 265.868 96.4352 265.69 95.7037L263.908 95.9134L259.267 95.9141L259.912 94.9463L258.207 95.1688C257.584 95.2446 256.988 95.4693 256.47 95.824C256.152 96.0353 255.883 96.3126 255.682 96.6369C255.073 97.6804 254.142 99.3871 254.133 99.4043L254.044 99.5676L253.271 98.2663C253.261 98.2158 252.302 93.2151 255.509 91.5192C255.966 90.6257 256.674 89.8849 257.545 89.3874C258.416 88.8898 259.414 88.6571 260.415 88.7178C260.781 88.3001 261.297 88.0436 261.851 88.0037C262.612 87.964 263.401 88.3638 264.194 89.197C265.248 90.3037 266.69 91.8192 267.563 93.5019L267.804 93.8455C268.146 94.3372 268.315 94.9285 268.285 95.5269C268.471 96.4818 268.405 97.4685 268.094 98.3903L267.566 99.8439Z" fill="#2F2E41"/>
<path d="M276.916 111.546L269.637 109.507L265.931 106.756L258.652 107.918L258.62 107.959C257.346 109.616 255.381 111.253 253.292 111.318C252.755 111.335 252.221 111.412 251.701 111.546L251.002 124.331V135.762C251.111 135.799 251.209 135.863 251.286 135.948C251.363 136.034 251.416 136.138 251.442 136.25C251.647 137.416 251.627 138.609 251.385 139.767C251.298 140.171 251.17 140.565 251.002 140.942C251.205 141.363 251.311 141.824 251.311 142.291C251.311 142.759 251.205 143.22 251.002 143.641C250.379 144.234 250.46 144.881 251.002 145.562V147.963C262.817 157.826 275.139 149.38 275.139 149.38L274.744 130.606L276.916 111.546Z" fill="#3F3D56"/>
<path d="M253.333 113.302L251.701 111.546L242.703 110.527L243.548 96.7001L238.642 93.1987L236.421 105.197C235.657 105.858 235.515 106.509 236.059 107.15C235.447 108.374 235.29 109.369 235.498 110.18L235.038 112.664L251.686 124.331L253.333 113.302Z" fill="#3F3D56"/>
<path d="M275.588 158.512C275.394 158.209 275.269 157.868 275.222 157.511C275.174 157.155 275.206 156.792 275.313 156.449C275.421 156.106 275.603 155.791 275.845 155.526C276.088 155.261 276.386 155.052 276.718 154.915L276.205 146.19L280.134 148.464L280.019 156.4C280.213 156.973 280.19 157.598 279.954 158.155C279.719 158.713 279.287 159.165 278.741 159.425C278.195 159.685 277.572 159.736 276.991 159.568C276.41 159.4 275.911 159.024 275.588 158.512Z" fill="#FFB6B6"/>
<path d="M274.182 113.728L276.916 111.546C276.916 111.546 279.713 113.089 280.564 115.856C281.415 118.623 282.904 134.374 282.904 134.374L283.133 140.239C283.427 141.169 283.35 141.999 282.649 142.66C283.703 143.751 283.546 144.659 282.107 145.375L280.614 154.595L275.929 153.622L276.522 135.439L272.692 123.732L274.182 113.728Z" fill="#3F3D56"/>
<path d="M87.0264 41.4974H86.0674V15.2128C86.0674 13.215 85.6741 11.2368 84.91 9.39113C84.1459 7.54543 83.0259 5.86838 81.6141 4.45574C80.2022 3.0431 78.526 1.92253 76.6813 1.15801C74.8366 0.393493 72.8594 1.38149e-06 70.8627 0H15.2048C11.1722 -8.3699e-06 7.30483 1.60276 4.45338 4.45571C1.60194 7.30865 9.29497e-06 11.1781 0 15.2128V159.412C-1.859e-06 163.447 1.60191 167.316 4.45335 170.169C7.30479 173.022 11.1722 174.625 15.2047 174.625H70.8626C72.8593 174.625 74.8365 174.231 76.6812 173.467C78.5259 172.702 80.2021 171.582 81.614 170.169C83.0259 168.757 84.1459 167.08 84.91 165.234C85.6741 163.388 86.0674 161.41 86.0674 159.412V60.2072H87.0264V41.4974Z" fill="#3F3D56"/>
<path d="M71.4761 3.95779H64.2109C64.545 4.77734 64.6726 5.66653 64.5823 6.54702C64.492 7.42751 64.1867 8.27228 63.6933 9.0069C63.1998 9.74153 62.5334 10.3435 61.7527 10.7597C60.9719 11.1759 60.1009 11.3937 59.2163 11.3937H27.3306C26.4459 11.3937 25.5748 11.1759 24.7941 10.7597C24.0134 10.3435 23.347 9.74153 22.8535 9.0069C22.3601 8.27227 22.0548 7.4275 21.9645 6.54701C21.8742 5.66651 22.0018 4.77732 22.3359 3.95776H15.5502C12.5387 3.95776 9.65059 5.15469 7.52117 7.28524C5.39174 9.41579 4.19544 12.3054 4.19543 15.3185V159.306C4.19543 160.798 4.48913 162.275 5.05976 163.654C5.63039 165.032 6.46677 166.285 7.52115 167.34C8.57553 168.394 9.82727 169.231 11.2049 169.802C12.5825 170.373 14.059 170.667 15.5501 170.667H71.4761C72.9672 170.667 74.4438 170.373 75.8214 169.802C77.199 169.231 78.4507 168.395 79.5051 167.34C80.5595 166.285 81.3959 165.032 81.9665 163.654C82.5372 162.276 82.8308 160.798 82.8308 159.306V15.3185C82.8308 13.8266 82.5372 12.3493 81.9665 10.971C81.3959 9.5926 80.5595 8.3402 79.5051 7.28526C78.4507 6.23032 77.199 5.39349 75.8214 4.82256C74.4438 4.25163 72.9672 3.95778 71.4761 3.95779Z" fill="white"/>
<path d="M70.9384 57.8867C70.9425 61.1575 70.3595 64.4025 69.2173 67.4671C68.6986 68.8709 68.0623 70.2282 67.3152 71.5248C64.9133 75.7181 61.4474 79.2025 57.268 81.6257C53.0885 84.049 48.3436 85.3251 43.5131 85.3251C38.6826 85.3251 33.9378 84.049 29.7583 81.6257C25.5788 79.2025 22.113 75.7181 19.7111 71.5248C19.468 71.1031 19.2374 70.675 19.0194 70.2407C17.1552 66.5407 16.1526 62.4663 16.0868 58.3232C16.0211 54.1801 16.8939 50.076 18.6399 46.3186C20.3858 42.5612 22.9595 39.2482 26.1679 36.6281C29.3762 34.008 33.136 32.1489 37.165 31.1902C41.194 30.2315 45.3877 30.1981 49.4315 31.0925C53.4753 31.987 57.2641 33.7861 60.5137 36.3547C63.7633 38.9234 66.3893 42.1951 68.1948 45.9242C70.0003 49.6533 70.9382 53.7431 70.9384 57.8867Z" fill="#F1F1F1"/>
<path d="M44.9389 62.5191C47.8347 62.5191 50.1821 60.1704 50.1821 57.2732C50.1821 54.3759 47.8347 52.0272 44.9389 52.0272C42.0432 52.0272 39.6958 54.3759 39.6958 57.2732C39.6958 60.1704 42.0432 62.5191 44.9389 62.5191Z" fill="#D62828"/>
<path d="M19.0194 70.2408C21.3295 67.7429 24.4177 63.7772 27.3141 66.6427C28.7677 67.9943 31.0427 71.3437 33.2204 69.154L50.2259 52.1395C50.546 51.8233 50.9261 51.5742 51.3438 51.4071C51.7615 51.2399 52.2084 51.1579 52.6582 51.1659C53.108 51.174 53.5516 51.2719 53.9631 51.454C54.3745 51.636 54.7455 51.8985 55.0541 52.226L69.2172 67.4672C68.6985 68.8709 68.0622 70.2283 67.3151 71.5248H19.7111L19.0194 70.2408Z" fill="#F2994A"/>
<path d="M56.3813 113.608C56.1936 113.609 56.0138 113.684 55.8813 113.817C55.7488 113.949 55.6743 114.13 55.6743 114.317C55.6743 114.505 55.7488 114.685 55.8813 114.818C56.0138 114.951 56.1936 115.026 56.3813 115.026H63.8161C64.004 115.026 64.1843 114.951 64.3171 114.819C64.45 114.686 64.5246 114.505 64.5246 114.317C64.5246 114.129 64.45 113.949 64.3171 113.816C64.1843 113.683 64.004 113.608 63.8161 113.608H56.3813Z" fill="#F2994A"/>
<path d="M22.885 103.196C22.6971 103.196 22.5169 103.271 22.384 103.404C22.2512 103.537 22.1765 103.717 22.1765 103.905C22.1765 104.093 22.2512 104.274 22.384 104.406C22.5169 104.539 22.6971 104.614 22.885 104.614H64.1414C64.3293 104.614 64.5095 104.539 64.6424 104.406C64.7752 104.274 64.8499 104.093 64.8499 103.905C64.8499 103.717 64.7752 103.537 64.6424 103.404C64.5095 103.271 64.3293 103.196 64.1414 103.196H22.885Z" fill="#E5E5E5"/>
<path d="M22.8849 108.402C22.6973 108.403 22.5175 108.478 22.3849 108.611C22.2524 108.743 22.178 108.924 22.178 109.111C22.178 109.299 22.2524 109.479 22.3849 109.612C22.5175 109.745 22.6973 109.82 22.8849 109.82H64.1413C64.2344 109.82 64.3267 109.802 64.4129 109.767C64.499 109.731 64.5773 109.679 64.6433 109.613C64.7092 109.547 64.7616 109.469 64.7973 109.383C64.833 109.297 64.8514 109.204 64.8514 109.111C64.8514 109.018 64.833 108.926 64.7973 108.84C64.7616 108.753 64.7092 108.675 64.6433 108.609C64.5773 108.544 64.499 108.491 64.4129 108.456C64.3267 108.42 64.2344 108.402 64.1413 108.402H22.8849Z" fill="#E5E5E5"/>
<path d="M56.3812 147.014C56.1933 147.014 56.0131 147.089 55.8803 147.222C55.7474 147.354 55.6727 147.535 55.6727 147.723C55.6727 147.911 55.7474 148.091 55.8803 148.224C56.0131 148.357 56.1933 148.432 56.3812 148.432H63.8161C64.004 148.432 64.1842 148.357 64.3171 148.224C64.45 148.091 64.5246 147.911 64.5246 147.723C64.5246 147.535 64.45 147.354 64.3171 147.222C64.1842 147.089 64.004 147.014 63.8161 147.014H56.3812Z" fill="#F2994A"/>
<path d="M22.885 136.602C22.6971 136.602 22.5169 136.676 22.384 136.809C22.2512 136.942 22.1765 137.123 22.1765 137.311C22.1765 137.499 22.2512 137.679 22.384 137.812C22.5169 137.945 22.6971 138.02 22.885 138.02H64.1414C64.2345 138.02 64.3268 138.002 64.413 137.966C64.4991 137.931 64.5774 137.878 64.6434 137.813C64.7093 137.747 64.7617 137.668 64.7974 137.582C64.8331 137.496 64.8515 137.404 64.8515 137.311C64.8515 137.217 64.8331 137.125 64.7974 137.039C64.7617 136.953 64.7093 136.875 64.6434 136.809C64.5774 136.743 64.4991 136.691 64.413 136.655C64.3268 136.62 64.2345 136.602 64.1414 136.602H22.885Z" fill="#E5E5E5"/>
<path d="M22.885 141.808C22.6971 141.808 22.5169 141.883 22.384 142.015C22.2512 142.148 22.1765 142.329 22.1765 142.517C22.1765 142.705 22.2512 142.885 22.384 143.018C22.5169 143.151 22.6971 143.226 22.885 143.226H64.1414C64.3293 143.226 64.5095 143.151 64.6424 143.018C64.7752 142.885 64.8499 142.705 64.8499 142.517C64.8499 142.329 64.7752 142.148 64.6424 142.015C64.5095 141.883 64.3293 141.808 64.1414 141.808H22.885Z" fill="#E5E5E5"/>
<path d="M235.192 79.9094L229.531 77.3483C229.503 78.1047 229.289 78.8425 228.908 79.4968C228.528 80.151 227.993 80.7016 227.349 81.1001C226.706 81.4986 225.975 81.7327 225.22 81.7818C224.465 81.8309 223.71 81.6935 223.02 81.3817L198.175 70.1415C197.486 69.8296 196.884 69.3529 196.422 68.7533C195.961 68.1538 195.653 67.4498 195.527 66.7035C195.402 65.9571 195.461 65.1912 195.701 64.4734C195.941 63.7555 196.353 63.1076 196.902 62.5867L191.615 60.1947C189.268 59.1331 186.596 59.0476 184.187 59.9571C181.777 60.8665 179.828 62.6964 178.767 65.0442L128.063 177.238C127.537 178.401 127.246 179.656 127.205 180.931C127.164 182.206 127.375 183.477 127.825 184.67C128.275 185.864 128.956 186.957 129.828 187.888C130.701 188.818 131.748 189.568 132.91 190.093H132.91L176.487 209.808C178.833 210.87 181.505 210.955 183.915 210.046C186.324 209.136 188.274 207.306 189.335 204.959L240.039 92.7644C240.564 91.6019 240.855 90.3472 240.896 89.0721C240.937 87.7969 240.726 86.5262 240.276 85.3325C239.826 84.1388 239.145 83.0455 238.273 82.115C237.401 81.1845 236.354 80.4351 235.192 79.9094Z" fill="#E4E4E4"/>
<path d="M184.759 133.331C180.943 131.597 177.65 128.888 175.212 125.478C172.774 122.067 171.276 118.075 170.868 113.902C170.828 113.488 170.798 113.062 170.78 112.638C170.614 108.917 171.333 105.209 172.877 101.819C174.314 98.6452 176.429 95.825 179.073 93.5577C181.717 91.2904 184.827 89.6313 188.182 88.6973C191.537 87.7634 195.056 87.5775 198.491 88.1526C201.925 88.7277 205.192 90.0499 208.06 92.0259C210.929 94.0018 213.329 96.5835 215.091 99.5886C216.854 102.594 217.936 105.949 218.261 109.418C218.586 112.888 218.146 116.386 216.973 119.666C215.799 122.947 213.921 125.93 211.469 128.405C210.557 129.329 209.569 130.175 208.514 130.934C205.113 133.384 201.127 134.895 196.957 135.316C192.787 135.737 188.58 135.052 184.759 133.331ZM204.084 90.5688C198.5 88.0505 192.146 87.8512 186.415 90.0145C180.685 92.1779 176.046 96.5272 173.516 102.108C172.017 105.398 171.32 108.996 171.481 112.608C171.498 113.02 171.526 113.432 171.566 113.833C171.955 117.886 173.406 121.764 175.774 125.076C178.141 128.387 181.34 131.014 185.048 132.692C188.756 134.369 192.84 135.037 196.889 134.629C200.938 134.22 204.807 132.749 208.105 130.365C209.127 129.629 210.086 128.808 210.971 127.912C213.596 125.261 215.54 122.016 216.639 118.451C217.738 114.886 217.958 111.108 217.282 107.439C216.605 103.771 215.051 100.32 212.753 97.3826C210.455 94.4449 207.481 92.1071 204.084 90.5688H204.084Z" fill="white"/>
<path d="M187.105 89.3719L186.451 89.6228L203.105 133.124L203.76 132.873L187.105 89.3719Z" fill="white"/>
<path d="M215.792 102.94L172.313 119.601L172.564 120.256L216.043 103.595L215.792 102.94Z" fill="white"/>
<path d="M194.23 167.318L153.1 148.711C152.795 148.573 152.558 148.319 152.44 148.006C152.321 147.692 152.332 147.345 152.47 147.04L156.339 138.478C156.477 138.173 156.731 137.936 157.044 137.817C157.357 137.699 157.704 137.71 158.01 137.848L199.139 156.455C199.444 156.593 199.681 156.847 199.799 157.161C199.918 157.474 199.907 157.821 199.769 158.127L195.9 166.688C195.762 166.993 195.508 167.231 195.195 167.349C194.882 167.467 194.535 167.456 194.23 167.318ZM157.721 138.487C157.585 138.426 157.431 138.421 157.291 138.473C157.152 138.526 157.039 138.632 156.978 138.767L153.109 147.329C153.047 147.464 153.043 147.619 153.095 147.758C153.148 147.898 153.253 148.011 153.389 148.072L194.518 166.679C194.654 166.741 194.809 166.746 194.948 166.693C195.087 166.64 195.2 166.535 195.261 166.399L199.13 157.838C199.192 157.702 199.197 157.547 199.144 157.408C199.091 157.269 198.986 157.156 198.85 157.094L157.721 138.487Z" fill="white"/>
<path d="M184.266 189.365L143.137 170.757C142.832 170.619 142.594 170.365 142.476 170.052C142.358 169.739 142.369 169.391 142.507 169.086L146.376 160.525C146.514 160.22 146.767 159.982 147.081 159.864C147.394 159.745 147.741 159.756 148.046 159.894L189.176 178.501C189.48 178.64 189.718 178.893 189.836 179.207C189.954 179.52 189.943 179.868 189.806 180.173L185.937 188.734C185.798 189.039 185.545 189.277 185.232 189.395C184.919 189.513 184.571 189.502 184.266 189.365ZM147.757 160.533C147.622 160.472 147.467 160.467 147.328 160.519C147.189 160.572 147.076 160.678 147.014 160.813L143.145 169.375C143.084 169.51 143.079 169.665 143.132 169.804C143.184 169.944 143.29 170.057 143.426 170.118L184.555 188.726C184.691 188.787 184.845 188.792 184.984 188.739C185.124 188.687 185.237 188.581 185.298 188.445L189.167 179.884C189.228 179.748 189.233 179.594 189.181 179.454C189.128 179.315 189.022 179.202 188.887 179.14L147.757 160.533Z" fill="white"/>
<path d="M168.37 133.582C167.524 129.366 165.697 125.41 163.037 122.033C160.333 118.604 157.031 115.694 153.29 113.443C149.423 111.094 145.212 109.367 140.811 108.324C135.34 107.009 129.69 106.581 124.075 106.635C118.42 106.689 112.783 107.219 107.162 107.81C106.448 107.885 105.734 107.961 105.019 108.037C104.353 108.108 104.346 109.161 105.019 109.089C110.557 108.498 116.102 107.916 121.672 107.737C127.196 107.56 132.76 107.777 138.196 108.832C142.724 109.673 147.092 111.218 151.141 113.411C154.913 115.456 158.296 118.148 161.136 121.365C163.918 124.509 165.93 128.258 167.013 132.316C167.144 132.827 167.257 133.343 167.356 133.861C167.483 134.525 168.497 134.244 168.37 133.582Z" fill="#2F2E41"/>
<path d="M108.774 100.509L100.376 109.447C100.321 109.504 100.278 109.573 100.253 109.649C100.227 109.725 100.22 109.806 100.23 109.885C100.24 109.965 100.268 110.041 100.312 110.108C100.356 110.175 100.414 110.231 100.483 110.273L108.059 113.896C108.667 114.187 109.201 113.28 108.59 112.988L101.014 109.364L101.12 110.19L109.518 101.253C109.981 100.76 109.239 100.015 108.774 100.509Z" fill="#2F2E41"/>
<path d="M287.583 211H127.316C127.205 211 127.099 210.956 127.021 210.878C126.943 210.799 126.899 210.693 126.899 210.583C126.899 210.472 126.943 210.366 127.021 210.287C127.099 210.209 127.205 210.165 127.316 210.165H287.583C287.693 210.165 287.8 210.209 287.878 210.287C287.956 210.366 288 210.472 288 210.583C288 210.693 287.956 210.799 287.878 210.878C287.8 210.956 287.693 211 287.583 211Z" fill="#CACACA"/>
</g>
<defs>
<clipPath id="clip0">
<rect width="288" height="211" fill="white"/>
</clipPath>
</defs>
</svg>
